<svg width="400" height="400" fill="none" xmlns="http://www.w3.org/2000/svg">
    <path d="M226.5 305.999h91.187c36.538-3.2 61.463-29.137 61.463-60.662 0-29.838-24.413-54.663-56.463-59.938-.6-9.5-2.612-19.062-6.012-28.475-19.363-53.45-78.413-81.087-131.863-61.737-32.225 11.662-55.062 37.75-63.887 68.325a92.917 92.917 0 00-19.288-2.038C56.375 161.474 20 193.912 20 233.899c0 37.163 30.587 67.763 72.763 71.938H109"
          stroke="#fff" stroke-width="8" stroke-linecap="round"/>
    <path d="M254.161 268v-42.182h7.641v17.858h19.546v-17.858h7.662V268h-7.662v-17.919h-19.546V268h-7.641zm48.577 0h-8.157l14.851-42.182h9.433L333.736 268h-8.157l-11.266-33.531h-.33L302.738 268zm.267-16.539h22.245v6.138h-22.245v-6.138z"
          fill="#fff"/>
    <path fill-rule="evenodd" clip-rule="evenodd"
          d="M249.826 199.534c-.043 9.774-17.225 17.691-38.413 17.691-.359 0-.717-.002-1.074-.006C215.743 221.025 219 225.112 219 230c0 .549.009 1.1.023 1.652 17.57-1.63 30.803-8.792 30.803-17.381v-14.737zm0-.075v-.332l-.008-.001a7.4 7.4 0 01.008.333zm-76.818-.332H173v.097a.008.008 0 00.004.002l.004-.099z"
          fill="#fff"/>
    <path fill-rule="evenodd" clip-rule="evenodd"
          d="M211.413 197.342c21.215 0 38.414-7.938 38.414-17.729 0-.124-.003-.248-.009-.371l.009.001v15.144c0 9.791-17.199 17.729-38.414 17.729S173 204.178 173 194.387v-14.732c.049 9.772 17.228 17.687 38.413 17.687zM173 179.571a8.92 8.92 0 01.008-.328H173v.328z"
          fill="#fff"/>
    <path fill-rule="evenodd" clip-rule="evenodd"
          d="M173.008 159.36c.427-9.621 17.458-17.36 38.405-17.36 20.947 0 37.978 7.738 38.405 17.358l.009.002v15.143c0 9.792-17.199 17.729-38.414 17.729S173 184.295 173 174.503V159.36h.008zm-6.339 140.075c25.222 0 45.669-9.437 45.669-21.078 0-.147-.003-.294-.01-.44a.03.03 0 01.01.001v18.004c0 11.641-20.447 21.078-45.669 21.078-25.222 0-45.669-9.437-45.669-21.078v-17.515c.058 11.618 20.483 21.028 45.669 21.028zM121 278.307c.001-.13.004-.26.01-.389H121v.389z"
          fill="#fff"/>
    <path fill-rule="evenodd" clip-rule="evenodd"
          d="M166.669 275.796c25.222 0 45.669-9.437 45.669-21.078a9.27 9.27 0 00-.01-.441l.01.001v18.004c0 11.641-20.447 21.078-45.669 21.078-25.222 0-45.669-9.437-45.669-21.078v-17.514c.058 11.618 20.483 21.028 45.669 21.028zM121 254.668c.001-.13.004-.26.01-.39H121v.39z"
          fill="#fff"/>
    <path fill-rule="evenodd" clip-rule="evenodd"
          d="M121.105 230.639c1.603-10.97 21.39-19.639 45.564-19.639 24.165 0 43.946 8.662 45.562 19.626.04.004.076.008.107.013v18.004c0 11.641-20.447 21.078-45.669 21.078-25.222 0-45.669-9.437-45.669-21.078v-18.004h.105z"
          fill="#fff"/>
</svg>
