<svg width="80" height="80" fill="none" xmlns="http://www.w3.org/2000/svg">
    <path d="M53.4 61.2h10.138c7.307-.64 12.292-5.828 12.292-12.133 0-5.967-4.882-10.932-11.293-11.987-.12-1.9-.522-3.813-1.202-5.695-3.873-10.69-15.682-16.218-26.373-12.348-6.445 2.333-11.012 7.55-12.777 13.665a18.59 18.59 0 00-3.857-.407C11.274 32.295 4 38.782 4 46.78c0 7.432 6.117 13.552 14.552 14.387H26"
          stroke="#5E308C" stroke-width="3"/>
    <path d="M26.857 58.053c-1.534-.72-1.534-2.9 0-3.62l9.757-4.583a8 8 0 016.802 0l9.757 4.582c1.533.72 1.533 2.9 0 3.621l-9.757 4.583a8 8 0 01-6.802 0l-9.757-4.583z"
          stroke="url(#paint0_linear)" stroke-width="3"/>
    <path d="M26.857 52.038c-1.534-.72-1.534-2.9 0-3.62l9.757-4.583a8 8 0 016.802 0l9.757 4.582c1.533.72 1.533 2.9 0 3.62l-9.757 4.584a8 8 0 01-6.802 0l-9.757-4.583z"
          stroke="url(#paint1_linear)" stroke-width="3"/>
    <path d="M26.857 46.023c-1.534-.72-1.534-2.9 0-3.62l9.757-4.583a8 8 0 016.802 0l9.757 4.583c1.533.72 1.533 2.9 0 3.62l-9.757 4.583a8 8 0 01-6.802 0l-9.757-4.583z"
          stroke="#5E308C" stroke-width="3"/>
    <defs>
        <linearGradient id="paint0_linear" x1="40.015" y1="56.372" x2="40.015" y2="47.801" gradientUnits="userSpaceOnUse">
            <stop stop-color="#5E308C"/>
            <stop offset="1" stop-color="#C2B8C9" stop-opacity="0"/>
        </linearGradient>
        <linearGradient id="paint1_linear" x1="39.916" y1="52.538" x2="39.916" y2="44.643" gradientUnits="userSpaceOnUse">
            <stop stop-color="#5E308C"/>
            <stop offset="1" stop-color="#CEC8D5" stop-opacity="0"/>
        </linearGradient>
    </defs>
</svg>
