<svg width="178" height="80" fill="none" xmlns="http://www.w3.org/2000/svg">
    <path d="M71.232 20.002c3.08 0 6.159 0 9.238.002a95.54 95.54 0 00-.015 2.782c-.894.05-1.79.048-2.684.042-.01 2.266-.004 4.534.002 6.803-1.301-.105-2.607-.037-3.908-.055.055-2.26-.004-4.523.04-6.784-.903.042-1.807.04-2.711.034v-.36c.028-.822.032-1.643.038-2.464zm8.202 9.557c1.22-3.19 2.412-6.39 3.69-9.557 1.334.014 2.668-.021 4.002.024 1.26 3.165 2.474 6.35 3.652 9.548-1.252.012-2.504-.038-3.753.062-.618-1.914-1.343-3.794-1.903-5.728a168.329 168.329 0 01-1.9 5.628c-1.26.11-2.526.014-3.788.024v-.001zm10.334-9.535c3.085-.037 6.17-.019 9.255-.007a76.04 76.04 0 00.012 2.785c-.895.028-1.791.026-2.686.034-.008 2.207.011 4.417-.017 6.626a413.862 413.862 0 00-3.844 0c-.017-2.217-.034-4.434.004-6.65-.908.023-1.816.011-2.724.026.017-.939.013-1.877 0-2.813zm8.296 9.433c1.166-3.16 2.391-6.3 3.596-9.445 1.353.005 2.707-.047 4.06.034 1.203 3.137 2.436 6.262 3.592 9.417a411.533 411.533 0 00-3.768.002c-.622-1.81-1.22-3.63-1.875-5.43-.607 1.81-1.212 3.617-1.829 5.422h-3.776zm-51.255 6.595c1.523-1.018 3.526-1.037 5.217-.458-.057.49-.185.967-.35 1.432-1.233-.367-2.713-.554-3.814.263-1.486 1.143-1.562 3.524-.531 4.992 1.023 1.256 2.911 1.218 4.315.715.159.468.276.946.374 1.43-1.038.392-2.162.303-3.25.297-1.606-.026-3.113-1.14-3.656-2.644-.781-2.08-.24-4.767 1.695-6.027zm9.051-.731c1.49-.352 3.188.072 4.215 1.241 1.042 1.15 1.292 2.811 1.1 4.306-.182 1.465-1.01 2.935-2.403 3.55-.882.363-1.879.632-2.824.375-1.222-.25-2.357-1.03-2.915-2.16-.891-1.817-.782-4.141.442-5.78.573-.783 1.444-1.318 2.386-1.532zm.176 1.481c-.906.316-1.431 1.243-1.596 2.144-.274 1.318-.104 2.866.88 3.864.968.942 2.763.696 3.433-.486.808-1.385.804-3.246-.025-4.621-.514-.925-1.73-1.235-2.692-.9zm17.127-1.243c1.28-.549 2.768-.405 4.035.106a45.02 45.02 0 00-.421 1.498c-.86-.448-1.905-.645-2.825-.269-.626.263-.736 1.249-.17 1.637.974.715 2.306.855 3.136 1.785 1.061 1.11.727 3.112-.544 3.918-.873.637-2.007.473-3.02.5-.677.035-1.314-.218-1.908-.511.125-.48.248-.961.374-1.44 1.05.443 2.31.815 3.398.293.798-.407.632-1.693-.155-2.014-1.135-.572-2.567-.887-3.226-2.089-.654-1.265.065-2.864 1.326-3.414zm46.102.487c1.528-1.021 3.518-1.01 5.219-.46-.085.485-.21.964-.342 1.438-1.239-.357-2.723-.558-3.827.263-1.067.744-1.33 2.166-1.179 3.38.118 1.022.738 2.044 1.731 2.416 1.048.394 2.219.25 3.267-.077.108.478.221.957.331 1.435-.984.35-2.035.294-3.061.292-1.583.047-3.128-.961-3.747-2.416-.933-2.113-.41-4.971 1.608-6.27zm-56.68-.661a27.023 27.023 0 012.005-.017c1.317 2.246 2.777 4.413 3.87 6.782-.14-2.259-.096-4.523-.102-6.785a73.38 73.38 0 011.612 0c.115 3.098-.002 6.204.064 9.304-.618.015-1.237.024-1.856.025-1.331-2.446-2.988-4.727-4.046-7.313.163 2.434.125 4.877.093 7.315a78.152 78.152 0 00-1.642.002c.004-3.104.01-6.209.002-9.313zm16.384-.022a53.433 53.433 0 011.75.007c.079 1.948-.016 3.9.056 5.85.042.716.257 1.52.899 1.928.692.384 1.664.307 2.23-.272.524-.607.575-1.453.588-2.217-.002-1.76-.01-3.518-.004-5.28a31.57 31.57 0 011.782-.016c.017 1.825.02 3.649.01 5.474-.014 1.24-.409 2.586-1.442 3.356-1.316.883-3.166.925-4.487.026-1.006-.722-1.352-2.018-1.384-3.197-.027-1.885-.002-3.773.002-5.66zm9.135.024c.594-.03 1.19-.035 1.785-.025.015 2.603.002 5.206.008 7.809 1.256 0 2.514-.005 3.77.007.014.49.026.982.032 1.472-1.867.08-3.734.011-5.601.047.014-3.104.007-6.207.004-9.31h.002zm4.543.01c2.365-.07 4.731-.036 7.096-.03.005.51.005 1.023-.002 1.536-.895-.034-1.788-.022-2.68-.029.045 2.594.004 5.191.024 7.786-.611.027-1.222.04-1.833.046.083-2.61.005-5.225.051-7.835-.88.012-1.76.005-2.637.021a78.58 78.58 0 01-.019-1.494zm9.364.017c.745-.1 1.496-.07 2.243-.019.982 3.104 2.023 6.188 3.001 9.294h-1.915c-.274-.878-.546-1.756-.817-2.636a55.96 55.96 0 01-2.868.024c-.263.861-.524 1.724-.77 2.59-.633.014-1.269.028-1.903.04 1.058-3.082 1.996-6.203 3.029-9.292v-.001zm-.027 5.298c.734-.008 1.47-.008 2.208-.008-.376-1.254-.796-2.495-1.135-3.76-.31 1.27-.721 2.51-1.073 3.768zm6.461-5.327c.652-.017 1.313-.078 1.965.014 1.406 2.225 2.845 4.457 3.933 6.865-.206-2.297-.136-4.6-.129-6.9a51.872 51.872 0 011.612.006c.081 3.093.014 6.19.042 9.285-.61.032-1.217.043-1.824.043-1.358-2.36-2.854-4.648-4.031-7.109.098 2.369.102 4.74.083 7.111a55.023 55.023 0 00-1.655-.005c.005-3.102.005-6.204.005-9.309l-.001-.001zm16.517-.014a22.644 22.644 0 011.943.008c.718 1.316 1.295 2.703 1.912 4.068.668-1.339 1.241-2.724 1.93-4.053a15.607 15.607 0 011.948-.02c-.876 1.714-1.916 3.336-2.83 5.027-.229.355-.187.79-.2 1.195-.008 1.035.014 2.072-.008 3.108-.62-.014-1.24-.019-1.857.002.059-1.324.123-2.673-.017-3.99-.878-1.813-1.948-3.527-2.82-5.345h-.001zM64.826 50.72c1.228-.447 2.609-.279 3.804.196-.15.501-.298 1-.433 1.506-.842-.426-1.865-.653-2.77-.303-.669.282-.815 1.294-.194 1.706 1.167.767 2.855.94 3.515 2.333.766 1.54-.354 3.488-2.01 3.764-1.302.102-2.697.216-3.888-.437.141-.49.282-.98.427-1.468.995.48 2.177.778 3.254.38.7-.268.857-1.328.31-1.82-.583-.508-1.366-.667-2.04-1.013-.803-.379-1.573-1.035-1.734-1.952-.263-1.234.604-2.492 1.76-2.893zm33.53.86c1.549-1.292 3.751-1.316 5.606-.77a23.705 23.705 0 01-.348 1.502c-1.169-.4-2.55-.56-3.649.116-1.624 1.004-1.768 3.431-.826 4.95.976 1.44 3.006 1.368 4.483.878.097.467.197.936.291 1.407-1.042.445-2.194.309-3.295.31-1.691-.028-3.199-1.316-3.687-2.903-.56-1.892-.166-4.2 1.425-5.49zm15.184-.73c1.279-.6 2.809-.455 4.091.066-.141.501-.283 1.002-.414 1.507-.849-.438-1.88-.647-2.798-.295-.633.273-.785 1.285-.185 1.676 1.031.708 2.41.872 3.233 1.89.501.507.416 1.262.412 1.914.044.86-.586 1.584-1.28 2.002-.831.5-1.841.346-2.762.374-.689.032-1.345-.195-1.943-.509l.358-1.428c1.038.415 2.235.76 3.327.343.766-.364.798-1.563.068-1.985-1.103-.648-2.546-.868-3.284-2.026-.787-1.239-.089-2.928 1.177-3.53zm-43.134-.233c1.803-.002 3.606-.024 5.408.007.046.507.063 1.016.076 1.527-1.237-.099-2.48-.029-3.719-.053.015.755.015 1.511.015 2.268 1.155-.002 2.311.005 3.469.007.01.507.014 1.014.012 1.521-1.166-.083-2.33-.028-3.496-.05.021.864.017 1.726.01 2.589 1.284.043 2.568.026 3.855.019.032.482.047.966.053 1.453-1.905.079-3.812.004-5.717.049.059-3.112.005-6.224.036-9.338l-.002.001zm7.041.137c1.143-.224 2.317-.235 3.477-.178 1.09.058 2.312.573 2.684 1.685.511 1.27-.215 2.82-1.511 3.25a2.15 2.15 0 011.069 1.188c.403 1.052.51 2.194.955 3.237-.622.002-1.241.004-1.86.004-.397-1.008-.486-2.113-.923-3.102-.37-.827-1.405-.654-2.137-.717.05 1.264.01 2.531.045 3.797-.617.01-1.233.024-1.848.045.117-3.068.019-6.14.049-9.21zm1.754 1.188c.041.95.023 1.901.034 2.853.724-.017 1.534.117 2.175-.31.802-.528.759-1.932-.108-2.37-.662-.286-1.404-.197-2.102-.172zm5.227-1.325c.649-.01 1.297-.01 1.948.002.708 2.474 1.525 4.916 2.147 7.415.624-2.508 1.457-4.962 2.283-7.41a25.8 25.8 0 011.837-.005c-1.006 3.116-2.145 6.188-3.168 9.3-.697.019-1.393.026-2.089.032-.876-3.144-1.99-6.218-2.958-9.335zm9.129.015a30.97 30.97 0 011.785-.017c-.001 3.112.025 6.221-.019 9.333a73.753 73.753 0 00-1.772 0c.002-3.106.004-6.212.004-9.316h.002zm11.663.021c1.811-.08 3.623-.028 5.433-.036.047.507.064 1.016.078 1.527-1.238-.081-2.478-.024-3.718-.044.008.759.012 1.517.015 2.276a247.91 247.91 0 013.471.002c.005.505.005 1.014.005 1.52-1.164-.086-2.331-.031-3.494-.046.012.864.014 1.727.007 2.59 1.288.031 2.576.018 3.867.016.019.484.034.97.041 1.458-1.903.055-3.808.005-5.711.036.017-3.1.025-6.198.005-9.299h.001z"
          fill="#5F68C3"/>
    <rect x=".654" y=".5" width="175.923" height="79" rx="3.5" stroke="#E6DAEE"/>
</svg>
