<svg width="177" height="80" fill="none" xmlns="http://www.w3.org/2000/svg">
    <g clip-path="url(#clip0)">
        <path d="M48.692 24v2.19h15.572V24H48.692zm17.779 0v2.19h22.19S86.394 24 83.392 24H66.471zm26.543 0v2.19h13.425l-.797-2.19H93.014zm23.05 0l-.797 2.19h13.304V24h-12.507zm-67.372 4.258v2.19h15.572v-2.19H48.692zm17.779.003v2.186h24.765s-.29-1.685-.794-2.186H66.471zm26.543 0v2.186h14.897l-.737-2.186h-14.16zm21.457 0l-.738 2.186h14.838v-2.186h-14.1zm-61.304 4.255v2.192h6.744v-2.192h-6.744zm17.778 0v2.192h6.744v-2.192h-6.743zm13.304 0v2.192h6.743s.428-1.158.428-2.192h-7.17zm13.24 0v2.192h11.957l-.797-2.192h-11.16zm15.513 0l-.8 2.192h12.015v-2.192h-11.215zm-59.835 4.26v2.19h6.744v-2.19h-6.744zm17.778 0v2.19h17.226s1.44-1.124 1.9-2.19H70.944zm26.544 0v2.19h6.744v-1.219l.428 1.219h12.353l.46-1.219v1.219h6.743v-2.19h-12.659l-.672 1.855-.675-1.855H97.489zm-44.322 4.258v2.19h6.744v-2.19h-6.744zm17.778 0v2.19h19.126c-.46-1.063-1.9-2.19-1.9-2.19H70.945zm26.544 0v2.19h6.744v-2.19h-6.744zm7.969 0l.816 2.19h9.262l.775-2.19h-10.853zm12.016 0v2.19h6.743v-2.19h-6.743zm-64.307 4.258v2.19h6.744v-2.19h-6.744zm17.778 0v2.19h6.744v-2.19h-6.743zm13.304 0v2.19h7.172c0-1.034-.429-2.19-.429-2.19H84.25zm13.24 0v2.19h6.744v-2.19h-6.744zm9.5 0l.791 2.19h6.209l.797-2.19h-7.797zm10.485 0v2.19h6.743v-2.19h-6.743zm-68.66 4.258v2.192h15.572V49.55H48.814zm17.657 0v2.192h23.971c.505-.502.794-2.192.794-2.192H66.47zm26.665 0v2.192h11.097V49.55H93.136zm15.388 0l.812 2.192h3.16l.762-2.192h-4.734zm8.95 0v2.192h11.218V49.55h-11.218zm-68.66 4.26V56h15.572v-2.19H48.814zm17.657 0v2.187h16.921c3.002 0 5.27-2.186 5.27-2.186H66.47zm26.665 0V56h11.097v-2.19H93.136zm16.928 0l.782 2.184.134.003.794-2.186h-1.71zm7.41 0V56h11.218v-2.19h-11.218z"
              fill="#1F70C1"/>
    </g>
    <rect x=".5" y=".5" width="175.923" height="79" rx="3.5" stroke="#E6DAEE"/>
    <defs>
        <clipPath id="clip0">
            <path fill="#fff" transform="translate(48.692 24)" d="M0 0h80v32H0z"/>
        </clipPath>
    </defs>
</svg>
