<svg width="178" height="80" fill="none" xmlns="http://www.w3.org/2000/svg">
    <rect x="1.038" y=".5" width="175.923" height="79" rx="3.5" stroke="#E6DAEE"/>
    <g clip-path="url(#clip0)">
        <path d="M70.551 26.392H39.667v-5.725h30.884v5.725zm2.206-7.931H37.461v10.136h35.296V18.461z" fill="#00B188"/>
        <path d="M39.667 45.35h-2.206V35.213h2.206v4.006h3.942v-4.006h2.206V45.35H43.61v-4.201h-3.942v4.2zm9.49-4.445h2.628c-.05-.745-.357-1.265-1.217-1.265-.649 0-1.217.277-1.411 1.265zm1.67 4.607c-2.238 0-3.762-1.412-3.762-3.73 0-2.255 1.492-3.811 3.47-3.811 2.158 0 3.229 1.443 3.229 3.6v.811h-4.607c.26 1.119 1.135 1.41 2.012 1.41.762 0 1.313-.161 1.994-.584h.082v1.67c-.584.423-1.412.634-2.418.634zm8.695-4.412l-1.136 4.25h-1.93l-2.207-7.137v-.08h2.11l1.2 4.265 1.135-4.266h1.72l1.152 4.266 1.216-4.266h2.028v.081l-2.206 7.137h-1.93l-1.152-4.25zm8.872 4.412c-1.751 0-2.465-.697-2.465-2.335v-7.963h2.141v7.817c0 .502.194.68.616.68.146 0 .357-.047.487-.096h.033v1.767c-.179.065-.487.13-.812.13zm3.504-4.607h2.628c-.048-.745-.356-1.265-1.216-1.265-.649 0-1.217.277-1.412 1.265zm1.671 4.607c-2.238 0-3.763-1.412-3.763-3.73 0-2.255 1.493-3.811 3.472-3.811 2.157 0 3.227 1.443 3.227 3.6v.811H71.9c.259 1.119 1.135 1.41 2.01 1.41.764 0 1.315-.161 1.996-.584h.082v1.67c-.584.423-1.412.634-2.418.634zm11.728-7.379h1.59v1.719h-1.59v2.935c0 .633.244.925.892.925.179 0 .406-.016.65-.098h.048v1.687c-.276.098-.698.21-1.314.21-1.736 0-2.417-.794-2.417-2.627v-3.032h-2.741v2.935c0 .633.243.925.891.925.18 0 .407-.016.65-.098h.048v1.687a3.82 3.82 0 01-1.313.21c-1.737 0-2.418-.794-2.418-2.627v-3.032H77.17v-1.72h1.103v-1.978h2.142v1.979h2.74v-1.979h2.142v1.979zm8.805 2.059c1.12 0 1.654-.632 1.654-1.54 0-.941-.534-1.574-1.654-1.574h-1.396v3.114h1.395zm3.893-1.54c0 2.206-1.476 3.405-3.715 3.405h-1.574v3.293h-2.205V35.213h3.779c2.239 0 3.715 1.2 3.715 3.439zm4.704 4.428v-.616c-.325-.178-.746-.243-1.184-.243-.697 0-1.119.259-1.119.843 0 .6.422.86 1.054.86.6 0 1.054-.309 1.249-.844zm.065 1.557c-.471.568-1.167.843-1.915.843-1.41 0-2.563-.858-2.563-2.384 0-1.41 1.153-2.351 2.806-2.351.519 0 1.056.08 1.607.242v-.128c0-.78-.438-1.12-1.589-1.12a4.12 4.12 0 00-2.029.552h-.08v-1.72c.55-.323 1.525-.6 2.481-.6 2.174 0 3.358 1.038 3.358 2.855v4.524h-2.076v-.713zm3.163-2.887c0-2.32 1.639-3.78 3.78-3.78.762 0 1.476.163 2.011.552v1.832h-.081a2.689 2.689 0 00-1.654-.567c-1.071 0-1.882.73-1.882 1.962 0 1.233.811 1.947 1.882 1.947.632 0 1.183-.212 1.654-.569h.081v1.833c-.535.39-1.249.552-2.011.552-2.141 0-3.78-1.443-3.78-3.763zm9.278.324v3.276h-2.141V35.213h2.141v5.774l2.158-2.855h2.433v.081l-2.595 3.276 2.595 3.78v.08h-2.45l-2.141-3.275zm9.392 1.006v-.616c-.323-.178-.746-.243-1.183-.243-.698 0-1.119.259-1.119.843 0 .6.421.86 1.053.86.601 0 1.055-.309 1.249-.844zm.065 1.557c-.47.568-1.168.843-1.914.843-1.411 0-2.562-.858-2.562-2.384 0-1.41 1.151-2.351 2.807-2.351a5.69 5.69 0 011.604.242v-.128c0-.78-.437-1.12-1.589-1.12-.729 0-1.428.21-2.028.552h-.081v-1.72c.552-.323 1.525-.6 2.482-.6 2.174 0 3.358 1.038 3.358 2.855v4.524h-2.077v-.713zm5.678-5.337c.389-.795.957-1.249 1.752-1.249.292 0 .584.065.696.13v2.043h-.08a2.444 2.444 0 00-.941-.162c-.665 0-1.184.39-1.363 1.135v4.153h-2.14v-7.218h2.076V39.3zm8.127 3.6v-2.319c-.357-.519-.827-.745-1.363-.745-.94 0-1.573.681-1.573 1.913 0 1.233.633 1.898 1.573 1.898.536 0 1.006-.228 1.363-.746zm.064 1.704c-.454.584-1.168.908-2.141.908-1.849 0-3.033-1.686-3.033-3.763 0-2.076 1.184-3.779 3.033-3.779.941 0 1.622.293 2.077.828v-3.584h2.141V45.35h-2.077v-.746zM37.46 48.661h6.262v1.232h-4.85v3.098h4.396v1.2h-4.396v3.374h4.85v1.232h-6.261V48.66zm11.437 2.854c1.605 0 2.498 1.055 2.498 2.789v4.493h-1.347v-4.46c0-.925-.47-1.59-1.492-1.59-.843 0-1.557.536-1.8 1.297v4.753h-1.347V51.66h1.346v1.04c.422-.665 1.136-1.184 2.142-1.184zm6.116.146h1.833v1.152h-1.833v3.844c0 .81.421 1.086 1.184 1.086.21 0 .437-.032.6-.097h.049v1.151a2.19 2.19 0 01-.844.146c-1.671 0-2.336-.763-2.336-2.156v-3.974h-1.232v-1.152h1.233v-1.896h1.346v1.896zm4.087 2.871h3.553c-.049-1.054-.568-1.865-1.671-1.865-1.022 0-1.687.762-1.882 1.864zm2.125 4.411c-2.093 0-3.52-1.395-3.52-3.633s1.33-3.795 3.26-3.795c1.964 0 2.985 1.412 2.985 3.503v.617h-4.899c.146 1.443 1.072 2.14 2.353 2.14.795 0 1.362-.178 1.995-.648h.049v1.184c-.584.454-1.347.632-2.223.632zm5.661-6.179c.309-.762.99-1.216 1.768-1.216.31 0 .585.048.698.113v1.33h-.048c-.195-.097-.52-.146-.844-.146-.73 0-1.346.486-1.574 1.297v4.655H65.54V51.66h1.346v1.103zm6.813 4.961c1.33 0 2.109-1.054 2.109-2.498 0-1.426-.78-2.496-2.11-2.496-.73 0-1.41.438-1.767 1.134v2.742c.356.697 1.038 1.118 1.768 1.118zm.227-6.211c2.124 0 3.26 1.736 3.26 3.713 0 1.98-1.136 3.715-3.26 3.715-.876 0-1.622-.454-1.995-.941v3.536h-1.347V51.66h1.347v.81c.373-.502 1.119-.956 1.995-.956zm6.197 1.25c.307-.762.989-1.216 1.767-1.216.309 0 .584.048.698.113v1.33h-.049c-.194-.097-.519-.146-.843-.146-.73 0-1.346.486-1.573 1.297v4.655h-1.347V51.66h1.347v1.103zm4.411-3.99c.471 0 .86.373.86.844a.85.85 0 01-.86.843c-.453 0-.86-.373-.86-.843 0-.471.407-.844.86-.844zm-.664 10.022h1.346V51.66h-1.347v7.136zm6.147-4.166c1.022.323 2.157.745 2.157 2.107 0 1.46-1.2 2.206-2.74 2.206-.942 0-1.882-.227-2.418-.649v-1.28h.065c.6.55 1.492.794 2.336.794.762 0 1.444-.293 1.444-.909 0-.632-.567-.778-1.688-1.15-1.005-.325-2.124-.699-2.124-2.044 0-1.38 1.135-2.19 2.579-2.19.843 0 1.59.179 2.19.584v1.298h-.049a3.243 3.243 0 00-2.109-.747c-.843 0-1.314.374-1.314.877 0 .567.52.729 1.671 1.102zm4.721-.098h3.552c-.049-1.054-.568-1.865-1.671-1.865-1.022 0-1.687.762-1.881 1.864zm2.124 4.411c-2.092 0-3.52-1.395-3.52-3.633s1.33-3.795 3.26-3.795c1.965 0 2.986 1.412 2.986 3.503v.617h-4.9c.147 1.443 1.072 2.14 2.353 2.14.796 0 1.363-.178 1.995-.648h.049v1.184c-.584.454-1.346.632-2.223.632z"
              fill="#231F20"/>
    </g>
    <defs>
        <clipPath id="clip0">
            <path fill="#fff" transform="translate(37.46 18.46)" d="M0 0h103.147v43.077H0z"/>
        </clipPath>
    </defs>
</svg>
