<svg width="177" height="80" fill="none" xmlns="http://www.w3.org/2000/svg">
    <g clip-path="url(#clip0)" fill="#0033A1">
        <path d="M96.407 42.74l6.71-6.562h-6.614v-3.084h11.306v3.136l-6.71 6.535h6.841v3.093H96.407V42.74zm-1.275-13.85h-3.495v3.172h3.495v-3.171zm-.052 4.239h-3.495v12.764h3.494V33.13zM49.299 39.47a6.618 6.618 0 016.631-6.587 6.619 6.619 0 016.588 6.631 6.615 6.615 0 01-6.614 6.588 6.604 6.604 0 01-6.614-6.588.076.076 0 00.009-.044zm9.829 0c0-1.808-1.433-3.32-3.215-3.32-1.809 0-3.19 1.503-3.19 3.32 0 1.818 1.381 3.32 3.19 3.32 1.782 0 3.215-1.511 3.215-3.32zm19.168-6.377h3.468v1.433c.813-1.048 2.071-1.686 3.521-1.686 3.014 0 4.823 1.94 4.823 5.233v7.785H86.57v-7.322c0-1.712-.795-2.708-2.35-2.708-1.329 0-2.43.917-2.43 3.058v6.972h-3.494V33.093zm29.845 6.379c0-4.517 3.32-6.64 6.203-6.64 1.66 0 2.962.612 3.801 1.503v-1.24h3.494v12.764h-3.494v-1.433c-.839.996-2.193 1.686-3.853 1.686-2.709-.009-6.151-2.15-6.151-6.64zm10.1-.026c0-1.887-1.381-3.416-3.268-3.416-1.931-.009-3.416 1.45-3.416 3.416s1.477 3.442 3.416 3.442c1.896 0 3.277-1.555 3.268-3.442zm4.814-6.353h3.468v1.433c.813-1.048 2.071-1.686 3.521-1.686 3.014 0 4.823 1.94 4.823 5.233v7.785h-3.547v-7.322c0-1.712-.787-2.708-2.351-2.708-1.328 0-2.428.917-2.428 3.058v6.972h-3.495l.009-12.765z"/>
        <path d="M96.407 45.85v-3.11l6.71-6.562h-6.614v-3.084h11.306v3.136l-6.71 6.535m-55.531-3.407l-.044.105c-.96 2.035-2.743 3.197-4.875 3.197-3.093 0-5.504-2.437-5.504-5.556 0-3.198 2.402-5.6 5.583-5.6 2.062 0 3.625.97 4.656 2.874l.053.105 3.11-1.992-.052-.088C46.878 29.643 43.978 28 40.728 28c-5.19 0-9.113 3.914-9.113 9.112 0 5.277 3.827 9.104 9.104 9.104 3.399 0 6.404-1.887 8.038-5.05l.052-.096-3.241-1.712zm17.832.114c0-4.517 3.32-6.64 6.203-6.64 1.66 0 2.962.69 3.8 1.634v-1.372h3.495V45.5c0 3.6-2.271 6.51-6.587 6.51-3.242 0-5.618-1.687-6.64-3.679l3.084-1.739c.664 1.328 1.835 2.167 3.547 2.167 1.887 0 3.084-1.476 3.084-3.136v-1.197c-.839.996-2.193 1.686-3.853 1.686-2.69-.009-6.133-2.15-6.133-6.64zm10.108-.026c0-1.887-1.38-3.416-3.267-3.416-1.94 0-3.416 1.45-3.416 3.416s1.476 3.442 3.416 3.442c1.887 0 3.267-1.555 3.267-3.442zm69.973-3.216v-3.136h-2.402v-4.211h-3.495v4.211h-2.175v3.136h2.166v4.08c0 4.16 1.328 5.54 5.382 5.54h.507v-3.268c-2.14 0-2.403-.306-2.403-2.298v-4.053h2.42z"/>
    </g>
    <rect x=".577" y=".5" width="175.923" height="79" rx="3.5" stroke="#E6DAEE"/>
    <defs>
        <clipPath id="clip0">
            <path fill="#fff" transform="translate(31.615 28)" d="M0 0h112.862v24H0z"/>
        </clipPath>
    </defs>
</svg>
