<svg width="320" height="170" fill="none" xmlns="http://www.w3.org/2000/svg">
    <g clip-path="url(#clip0)">
        <rect width="320" height="170" rx="4" fill="url(#paint1_radial)"/>
        <path fill-rule="evenodd" clip-rule="evenodd"
              d="M12.236 178.143c-5.29-2.988-5.29-7.832 0-10.82l44.298-25.024c5.29-2.988 13.865-2.988 19.155 0l44.297 25.024c5.29 2.988 5.29 7.832 0 10.82l-44.297 25.024c-5.29 2.988-13.866 2.988-19.155 0l-44.298-25.024zm82.383 46.538c-5.29-2.988-5.29-7.833 0-10.821l44.298-25.024c5.29-2.988 13.866-2.988 19.155 0l44.298 25.024c5.289 2.988 5.289 7.833 0 10.821l-44.298 25.024c-5.289 2.988-13.865 2.988-19.155 0l-44.298-25.024zm-82.383 35.717c-5.29 2.988-5.29 7.833 0 10.821l44.298 25.024c5.29 2.988 13.865 2.988 19.155 0l44.297-25.024c5.29-2.988 5.29-7.833 0-10.821l-44.297-25.023c-5.29-2.989-13.866-2.989-19.155 0l-44.298 25.023z"
              fill="url(#paint2_linear)" fill-opacity=".04"/>
        <path fill-rule="evenodd" clip-rule="evenodd"
              d="M94.18 40.086c-5.29-2.988-5.29-7.833 0-10.821L138.478 4.24c5.289-2.988 13.865-2.988 19.155 0l44.297 25.024c5.29 2.988 5.29 7.833 0 10.82L157.633 65.11c-5.29 2.989-13.866 2.989-19.155 0L94.18 40.087zm82.383 46.538c-5.289-2.989-5.289-7.833 0-10.821l44.298-25.024c5.29-2.988 13.866-2.988 19.155 0l44.298 25.024c5.289 2.988 5.289 7.832 0 10.82l-44.298 25.024c-5.289 2.988-13.865 2.988-19.155 0l-44.298-25.023zM94.18 122.34c-5.29 2.988-5.29 7.832 0 10.82l44.298 25.024c5.289 2.988 13.865 2.988 19.155 0l44.297-25.024c5.29-2.988 5.29-7.832 0-10.82l-44.297-25.024c-5.29-2.988-13.866-2.988-19.155 0L94.18 122.34z"
              fill="url(#paint3_linear)" fill-opacity=".04"/>
        <path fill-rule="evenodd" clip-rule="evenodd"
              d="M177.905 178.143c-5.289-2.988-5.289-7.832 0-10.82l44.298-25.024c5.29-2.988 13.866-2.988 19.155 0l44.298 25.024c5.289 2.988 5.289 7.832 0 10.82l-44.298 25.024c-5.289 2.988-13.865 2.988-19.155 0l-44.298-25.024zm82.384 46.538c-5.29-2.988-5.29-7.833 0-10.821l44.298-25.024c5.289-2.988 13.865-2.988 19.155 0l44.297 25.024c5.29 2.988 5.29 7.833 0 10.821l-44.297 25.024c-5.29 2.988-13.866 2.988-19.155 0l-44.298-25.024zm-82.384 35.717c-5.289 2.988-5.289 7.833 0 10.821l44.298 25.024c5.29 2.988 13.866 2.988 19.155 0l44.298-25.024c5.289-2.988 5.289-7.833 0-10.821l-44.298-25.023c-5.289-2.989-13.865-2.989-19.155 0l-44.298 25.023z"
              fill="url(#paint4_linear)" fill-opacity=".04"/>
    </g>
    <path d="M60 74.832l11.42-1.57v11.021H60.002L60 74.833zm11.42 10.861V96.59l-11.418-1.567v-9.328H71.42zm1.264-12.604L87.88 71v13.283H72.684V73.089zM87.88 85.693V98.85l-15.196-2.088V85.693H87.88zm25.799 7.464h-2.64V82.95c0-.837.053-1.859.157-3.07h-.044c-.165.69-.31 1.184-.437 1.486l-4.787 11.791h-1.835l-4.799-11.703c-.134-.344-.276-.869-.424-1.572h-.044c.06.63.09 1.66.09 3.09v10.186h-2.462V77.383h3.747l4.217 10.505c.321.806.53 1.409.626 1.804h.056a26.44 26.44 0 01.671-1.849l4.296-10.46h3.613l-.001 15.773zm4.956-13.628a1.57 1.57 0 01-1.09-.407 1.327 1.327 0 01-.454-1.034c0-.418.151-.766.454-1.046a1.553 1.553 0 011.09-.418c.44 0 .813.14 1.119.418.305.28.459.627.459 1.046 0 .395-.154.735-.459 1.017a1.59 1.59 0 01-1.119.424zm1.286 13.629h-2.595V81.892h2.595v11.264zm11.6-.518c-.916.52-2.002.781-3.255.781-1.7 0-3.073-.522-4.117-1.567-1.043-1.044-1.566-2.4-1.566-4.064 0-1.856.561-3.346 1.684-4.472 1.122-1.126 2.622-1.689 4.502-1.689 1.044 0 1.965.18 2.763.54v2.376c-.799-.587-1.649-.88-2.55-.88-1.096 0-1.995.365-2.696 1.094-.701.73-1.052 1.685-1.052 2.865 0 1.166.33 2.087.99 2.761.659.675 1.545 1.012 2.657 1.012.932 0 1.811-.326 2.639-.978l.001 2.221zm9.228-8.315c-.314-.243-.764-.363-1.354-.363-.768 0-1.41.34-1.924 1.023-.515.681-.772 1.61-.772 2.782v5.39h-2.596V81.894h2.596v2.321h.044c.253-.792.643-1.41 1.169-1.853.525-.443 1.113-.666 1.761-.666.471 0 .828.07 1.075.21l.001 2.42zm6.935 9.096c-1.767 0-3.178-.526-4.234-1.578-1.055-1.052-1.583-2.448-1.583-4.185 0-1.892.549-3.37 1.65-4.433 1.101-1.064 2.582-1.596 4.447-1.596 1.79 0 3.184.518 4.183 1.552 1 1.034 1.498 2.467 1.498 4.3 0 1.798-.538 3.236-1.616 4.317-1.077 1.083-2.525 1.623-4.345 1.623zm.123-9.756c-1.014 0-1.816.348-2.404 1.044-.59.697-.884 1.657-.884 2.882 0 1.18.298 2.11.895 2.788.596.678 1.395 1.017 2.394 1.017 1.023 0 1.807-.334 2.355-1 .547-.668.822-1.618.822-2.85 0-1.239-.273-2.196-.822-2.87-.549-.674-1.334-1.011-2.356-1.011zm7.775 9.14v-2.364c.97.726 2.04 1.09 3.21 1.09 1.566 0 2.349-.455 2.349-1.365 0-.257-.067-.474-.201-.654a1.889 1.889 0 00-.543-.478 4.437 4.437 0 00-.805-.374c-.311-.11-.655-.235-1.035-.375a10.95 10.95 0 01-1.27-.583 3.828 3.828 0 01-.939-.698 2.598 2.598 0 01-.565-.885 3.205 3.205 0 01-.19-1.155c0-.543.131-1.021.392-1.436a3.368 3.368 0 011.051-1.044 5.083 5.083 0 011.499-.638 6.978 6.978 0 011.734-.214c1.058 0 2.005.157 2.84.472v2.233c-.805-.543-1.73-.814-2.773-.814-.329 0-.625.033-.89.098-.264.066-.49.158-.677.275a1.368 1.368 0 00-.436.423.999.999 0 00-.157.544c0 .242.053.448.157.617.105.168.259.317.465.445.204.129.451.246.738.352.287.106.617.222.99.347.452.179.894.381 1.326.605.392.205.726.438 1.002.698.271.254.488.561.637.902.149.341.224.747.224 1.216 0 .572-.134 1.07-.403 1.495a3.33 3.33 0 01-1.074 1.056 5.05 5.05 0 01-1.549.62 8.146 8.146 0 01-1.852.204c-1.253.001-2.338-.203-3.255-.614zm15.683.616c-1.768 0-3.179-.526-4.235-1.578-1.055-1.052-1.582-2.448-1.582-4.185 0-1.892.55-3.37 1.651-4.433 1.099-1.064 2.581-1.596 4.445-1.596 1.79 0 3.184.518 4.184 1.552.999 1.034 1.499 2.467 1.499 4.3 0 1.798-.539 3.236-1.616 4.317-1.078 1.083-2.528 1.623-4.346 1.623zm.123-9.756c-1.015 0-1.817.348-2.406 1.044-.59.697-.884 1.657-.884 2.882 0 1.18.299 2.11.895 2.788.596.678 1.395 1.017 2.395 1.017 1.021 0 1.805-.334 2.354-1 .549-.668.822-1.618.822-2.85 0-1.239-.273-2.196-.822-2.87-.549-.674-1.333-1.011-2.354-1.011zm14.966-5.104a2.389 2.389 0 00-1.197-.297c-1.26 0-1.89.7-1.89 2.101v1.53h2.663v2.001h-2.651v9.261h-2.596v-9.261h-1.957v-2.002h1.957v-1.826c0-1.188.396-2.124 1.186-2.81.791-.686 1.779-1.029 2.965-1.029.641 0 1.148.07 1.52.209v2.123zm7.484 14.476c-.507.25-1.175.374-2.003.374-2.222 0-3.333-1.049-3.333-3.145v-6.369h-1.912v-2.002h1.912v-2.607l2.596-.725v3.332h2.741v2.002h-2.741v5.631c0 .667.122 1.144.369 1.43.247.286.656.43 1.23.43a1.8 1.8 0 001.141-.375v2.024zm22.014.12h-2.92l-1.442-4.015h-6.309l-1.387 4.016h-2.908l6.006-15.774h2.997l5.962 15.773h.001zm-5.067-6.148l-2.226-6.292a7.287 7.287 0 01-.212-.99h-.044a6.31 6.31 0 01-.224.99l-2.204 6.292h4.91zm15.447-4.048l-6.186 8.205h6.163v1.992h-9.799V92.2l6.32-8.315h-5.715v-1.992h9.217v1.068zm12.181 10.197h-2.594v-1.783h-.044c-.754 1.364-1.925 2.046-3.512 2.046-2.708 0-4.061-1.598-4.061-4.796v-6.732h2.595v6.468c0 2.024.794 3.036 2.383 3.036.768 0 1.399-.278 1.896-.835.496-.557.744-1.287.744-2.19v-6.479h2.595l-.002 11.264zm10.034-8.833c-.313-.243-.764-.363-1.354-.363-.768 0-1.409.34-1.924 1.023-.514.681-.772 1.61-.772 2.782v5.39h-2.595V81.894h2.595v2.321h.044c.253-.792.643-1.41 1.169-1.853.526-.443 1.113-.666 1.761-.666.47 0 .828.07 1.074.21l.002 2.42zm11.555 3.893h-7.808c.03 1.041.355 1.844.979 2.41.622.564 1.478.846 2.567.846 1.223 0 2.346-.36 3.367-1.077v2.056c-1.044.645-2.424.968-4.139.968-1.686 0-3.007-.511-3.966-1.535-.958-1.023-1.436-2.461-1.436-4.316 0-1.753.527-3.182 1.583-4.285 1.055-1.104 2.366-1.656 3.932-1.656 1.567 0 2.777.495 3.635 1.485.858.99 1.287 2.364 1.287 4.125l-.001.98zm-2.506-1.803c-.011-.917-.227-1.63-.659-2.14-.433-.509-1.029-.763-1.79-.763a2.54 2.54 0 00-1.896.803c-.518.535-.837 1.235-.957 2.1h5.302z"
          fill="#fff"/>
    <defs>
        <linearGradient id="paint2_linear" x1="107.303" y1="140.058" x2="107.303" y2="298.484" gradientUnits="userSpaceOnUse">
            <stop stop-color="#fff"/>
            <stop offset="1" stop-color="#fff" stop-opacity="0"/>
        </linearGradient>
        <linearGradient id="paint3_linear" x1="189.247" y1="2" x2="189.247" y2="160.426" gradientUnits="userSpaceOnUse">
            <stop stop-color="#fff"/>
            <stop offset="1" stop-color="#fff" stop-opacity="0"/>
        </linearGradient>
        <linearGradient id="paint4_linear" x1="272.972" y1="140.058" x2="272.972" y2="298.484" gradientUnits="userSpaceOnUse">
            <stop stop-color="#fff"/>
            <stop offset="1" stop-color="#fff" stop-opacity="0"/>
        </linearGradient>
        <radialGradient id="paint0_radial" cx="0" cy="0" r="1" gradientUnits="userSpaceOnUse" gradientTransform="matrix(319.99955 169.99995 -456.69625 859.66261 0 0)">
            <stop stop-color="#652B93"/>
            <stop offset="1" stop-color="#0F0C35"/>
        </radialGradient>
        <radialGradient id="paint1_radial" cx="0" cy="0" r="1" gradientUnits="userSpaceOnUse" gradientTransform="matrix(398.4004 219.34856 -453.33024 823.37876 -78.4 -49.35)">
            <stop stop-color="#7747E3"/>
            <stop offset=".981" stop-color="#3891D5"/>
        </radialGradient>
        <clipPath id="clip0">
            <rect width="320" height="170" rx="4" fill="#fff"/>
        </clipPath>
    </defs>
</svg>
