<svg width="320" height="170" fill="none" xmlns="http://www.w3.org/2000/svg">
    <g clip-path="url(#clip0)">
        <rect width="320" height="170" rx="4" fill="url(#paint1_radial)"/>
        <path fill-rule="evenodd" clip-rule="evenodd"
              d="M12.236 178.143c-5.29-2.988-5.29-7.832 0-10.82l44.298-25.024c5.29-2.988 13.865-2.988 19.155 0l44.297 25.024c5.29 2.988 5.29 7.832 0 10.82l-44.297 25.024c-5.29 2.988-13.866 2.988-19.155 0l-44.298-25.024zm82.383 46.538c-5.29-2.988-5.29-7.833 0-10.821l44.298-25.024c5.29-2.988 13.866-2.988 19.155 0l44.298 25.024c5.289 2.988 5.289 7.833 0 10.821l-44.298 25.024c-5.289 2.988-13.865 2.988-19.155 0l-44.298-25.024zm-82.383 35.717c-5.29 2.988-5.29 7.833 0 10.821l44.298 25.024c5.29 2.988 13.865 2.988 19.155 0l44.297-25.024c5.29-2.988 5.29-7.833 0-10.821l-44.297-25.023c-5.29-2.989-13.866-2.989-19.155 0l-44.298 25.023z"
              fill="url(#paint2_linear)" fill-opacity=".04"/>
        <path fill-rule="evenodd" clip-rule="evenodd"
              d="M94.18 40.086c-5.29-2.988-5.29-7.833 0-10.821L138.478 4.24c5.289-2.988 13.865-2.988 19.155 0l44.297 25.024c5.29 2.988 5.29 7.833 0 10.82L157.633 65.11c-5.29 2.989-13.866 2.989-19.155 0L94.18 40.087zm82.383 46.538c-5.289-2.989-5.289-7.833 0-10.821l44.298-25.024c5.29-2.988 13.866-2.988 19.155 0l44.298 25.024c5.289 2.988 5.289 7.832 0 10.82l-44.298 25.024c-5.289 2.988-13.865 2.988-19.155 0l-44.298-25.023zM94.18 122.34c-5.29 2.988-5.29 7.832 0 10.82l44.298 25.024c5.289 2.988 13.865 2.988 19.155 0l44.297-25.024c5.29-2.988 5.29-7.832 0-10.82l-44.297-25.024c-5.29-2.988-13.866-2.988-19.155 0L94.18 122.34z"
              fill="url(#paint3_linear)" fill-opacity=".04"/>
        <path fill-rule="evenodd" clip-rule="evenodd"
              d="M177.905 178.143c-5.289-2.988-5.289-7.832 0-10.82l44.298-25.024c5.29-2.988 13.866-2.988 19.155 0l44.298 25.024c5.289 2.988 5.289 7.832 0 10.82l-44.298 25.024c-5.289 2.988-13.865 2.988-19.155 0l-44.298-25.024zm82.384 46.538c-5.29-2.988-5.29-7.833 0-10.821l44.298-25.024c5.289-2.988 13.865-2.988 19.155 0l44.297 25.024c5.29 2.988 5.29 7.833 0 10.821l-44.297 25.024c-5.29 2.988-13.866 2.988-19.155 0l-44.298-25.024zm-82.384 35.717c-5.289 2.988-5.289 7.833 0 10.821l44.298 25.024c5.29 2.988 13.866 2.988 19.155 0l44.298-25.024c5.289-2.988 5.289-7.833 0-10.821l-44.298-25.023c-5.289-2.989-13.865-2.989-19.155 0l-44.298 25.023z"
              fill="url(#paint4_linear)" fill-opacity=".04"/>
        <path fill-rule="evenodd" clip-rule="evenodd"
              d="M92.126 78.343h-.082a7.185 7.185 0 00-9.833.747.126.126 0 00-.083.022 9.337 9.337 0 015.63 3.497l-4.173 4.172a3.599 3.599 0 10-4.76 4.76v.001c.465.21.967.32 1.477.32h7.195v.054l.01-.01h7.196a3.598 3.598 0 000-7.195v-.718a7.186 7.186 0 00-2.577-5.65zm-17.462 17.36l-.01.04a9.288 9.288 0 005.648 1.88h7.16l.045.045h7.196a9.357 9.357 0 009.429-9.284 9.361 9.361 0 00-4.115-7.828 12.963 12.963 0 00-3.91-6.304l-.06.06.008-.072c-5.36-4.732-13.54-4.22-18.271 1.14a12.942 12.942 0 00-2.788 5.176 1.56 1.56 0 01.2-.066A9.351 9.351 0 0071 88.352a9.352 9.352 0 003.654 7.36l.01-.01z"
              fill="#fff"/>
        <path d="M123.288 93.6a9.199 9.199 0 01-6.668-2.738 8.887 8.887 0 01-2.799-6.589 8.906 8.906 0 012.799-6.589 9.2 9.2 0 016.668-2.788 8.93 8.93 0 016.396 2.577l-1.798 1.83a6.48 6.48 0 00-4.598-1.82 6.41 6.41 0 00-4.749 2.02 6.606 6.606 0 00-1.951 4.8 6.592 6.592 0 001.951 4.74 6.78 6.78 0 009.459.11 5.37 5.37 0 001.384-3.142h-6.064v-2.585h8.58c.083.52.117 1.048.101 1.577a8.088 8.088 0 01-2.213 5.963 8.609 8.609 0 01-6.498 2.635zm19.948-1.718a6.186 6.186 0 01-8.56 0 5.76 5.76 0 01-1.748-4.294 5.768 5.768 0 011.748-4.293 6.197 6.197 0 018.56 0 5.764 5.764 0 011.748 4.293 5.76 5.76 0 01-1.758 4.294h.01zm-6.67-1.686a3.271 3.271 0 004.779 0 3.602 3.602 0 001.01-2.608 3.608 3.608 0 00-1.01-2.617 3.327 3.327 0 00-4.801 0 3.605 3.605 0 00-1.011 2.617 3.597 3.597 0 001.021 2.608h.012zm19.826 1.686a6.186 6.186 0 01-8.56 0 5.76 5.76 0 01-1.748-4.294 5.768 5.768 0 011.748-4.293 6.186 6.186 0 018.56 0 5.764 5.764 0 011.748 4.293 5.749 5.749 0 01-1.748 4.294zm-6.668-1.686a3.273 3.273 0 004.628.15 3.602 3.602 0 001.161-2.759 3.608 3.608 0 00-1.01-2.616 3.324 3.324 0 00-4.799 0 3.605 3.605 0 00-1.011 2.617 3.597 3.597 0 001.021 2.608h.01zm15.317 8.8a5.3 5.3 0 01-3.365-1.072 6.207 6.207 0 01-1.961-2.486l2.303-.96a3.876 3.876 0 001.142 1.505c.533.43 1.203.656 1.889.637a3.036 3.036 0 002.355-.91 3.69 3.69 0 00.839-2.626v-.87h-.091a3.856 3.856 0 01-3.162 1.365 5.489 5.489 0 01-4.042-1.758 5.819 5.819 0 01-1.728-4.234 5.877 5.877 0 011.728-4.265 5.477 5.477 0 014.042-1.768 4.35 4.35 0 011.859.414 3.74 3.74 0 011.315.96h.091v-.96h2.506v10.761a6.274 6.274 0 01-1.607 4.7 5.658 5.658 0 01-4.113 1.567zm.183-7.76a2.943 2.943 0 002.284-1.01 3.737 3.737 0 00.918-2.588 3.817 3.817 0 00-.918-2.637 2.936 2.936 0 00-2.284-1.01A3.124 3.124 0 00162.86 85a3.685 3.685 0 00-1.011 2.617 3.617 3.617 0 001.011 2.588 3.13 3.13 0 002.364 1.03zm9.994-15.662v17.663h-2.637V75.574h2.637zm7.235 18.027a5.734 5.734 0 01-4.254-1.729 5.852 5.852 0 01-1.708-4.284 5.93 5.93 0 011.647-4.325 5.428 5.428 0 014.041-1.689 5.107 5.107 0 012.021.394 4.77 4.77 0 011.545 1.01c.382.368.72.778 1.01 1.224.235.375.434.771.597 1.18l.272.689-8.082 3.325a3.033 3.033 0 002.91 1.82 3.45 3.45 0 002.961-1.667l2.02 1.365a6.63 6.63 0 01-1.941 1.84 5.501 5.501 0 01-3.039.847zm-3.375-6.195l5.376-2.234a1.85 1.85 0 00-.839-.919 2.74 2.74 0 00-1.384-.354 3.12 3.12 0 00-2.172.96 3.203 3.203 0 00-.981 2.547zm22.363 6.194a8.326 8.326 0 01-8.467-8.518 8.326 8.326 0 018.131-8.518c.111-.002.224-.002.336-.002a7.542 7.542 0 015.992 2.667l-1.456 1.414a5.495 5.495 0 00-4.526-2.072 6.18 6.18 0 00-4.497 1.798 6.314 6.314 0 00-1.83 4.71 6.307 6.307 0 001.83 4.709 6.173 6.173 0 004.497 1.798 6.423 6.423 0 005.051-2.365l1.456 1.456a7.947 7.947 0 01-2.798 2.132 8.518 8.518 0 01-3.719.791zm10.427-.364h-2.092v-16.32h2.092v16.32zm3.417-9.822a5.851 5.851 0 018.245 0 5.914 5.914 0 011.617 4.244 5.914 5.914 0 01-1.617 4.244 5.851 5.851 0 01-8.245 0 5.914 5.914 0 01-1.617-4.244 5.906 5.906 0 011.617-4.244zm1.555 7.175a3.528 3.528 0 004.986.138c.048-.044.093-.092.137-.138a4.045 4.045 0 001.082-2.93 4.028 4.028 0 00-1.082-2.929 3.528 3.528 0 00-4.986-.137c-.048.044-.093.092-.137.137a4.045 4.045 0 00-1.082 2.93 4.036 4.036 0 001.092 2.92l-.01.01zm19.896 2.647h-2.02v-1.545h-.06a3.895 3.895 0 01-1.476 1.394 4.115 4.115 0 01-2.072.555 3.934 3.934 0 01-3.173-1.273 5.066 5.066 0 01-1.082-3.415v-6.87h2.093v6.487c0 2.082.919 3.122 2.758 3.122.83.026 1.619-.35 2.123-1.01.542-.686.831-1.54.819-2.415v-6.185h2.092v11.155h-.002zm7.104.364a4.91 4.91 0 01-3.739-1.708 6.064 6.064 0 01-1.567-4.234 6.064 6.064 0 011.567-4.235 4.918 4.918 0 013.739-1.708 4.743 4.743 0 012.283.545c.619.31 1.142.782 1.516 1.364h.091l-.091-1.545v-5.163h2.092v16.32h-2.02v-1.545h-.092a3.857 3.857 0 01-1.515 1.364 4.739 4.739 0 01-2.264.545zm.344-1.91a3.33 3.33 0 002.516-1.09 4.097 4.097 0 001.011-2.942 4.1 4.1 0 00-1.011-2.942 3.413 3.413 0 00-5.051 0 4.048 4.048 0 00-1.011 2.93 4.048 4.048 0 001.011 2.93 3.327 3.327 0 002.535 1.115z"
              fill="#fff"/>
    </g>
    <defs>
        <linearGradient id="paint2_linear" x1="107.303" y1="140.058" x2="107.303" y2="298.484" gradientUnits="userSpaceOnUse">
            <stop stop-color="#fff"/>
            <stop offset="1" stop-color="#fff" stop-opacity="0"/>
        </linearGradient>
        <linearGradient id="paint3_linear" x1="189.247" y1="2" x2="189.247" y2="160.426" gradientUnits="userSpaceOnUse">
            <stop stop-color="#fff"/>
            <stop offset="1" stop-color="#fff" stop-opacity="0"/>
        </linearGradient>
        <linearGradient id="paint4_linear" x1="272.972" y1="140.058" x2="272.972" y2="298.484" gradientUnits="userSpaceOnUse">
            <stop stop-color="#fff"/>
            <stop offset="1" stop-color="#fff" stop-opacity="0"/>
        </linearGradient>
        <radialGradient id="paint0_radial" cx="0" cy="0" r="1" gradientUnits="userSpaceOnUse" gradientTransform="matrix(319.99955 169.99995 -456.69625 859.66261 0 0)">
            <stop stop-color="#652B93"/>
            <stop offset="1" stop-color="#0F0C35"/>
        </radialGradient>
        <radialGradient id="paint1_radial" cx="0" cy="0" r="1" gradientUnits="userSpaceOnUse" gradientTransform="matrix(398.4004 219.34856 -453.33024 823.37876 -78.4 -49.35)">
            <stop stop-color="#4E79E7"/>
            <stop offset=".981" stop-color="#0BBDB2"/>
        </radialGradient>
        <clipPath id="clip0">
            <rect width="320" height="170" rx="4" fill="#fff"/>
        </clipPath>
    </defs>
</svg>
