<svg width="320" height="170" fill="none" xmlns="http://www.w3.org/2000/svg">
    <g clip-path="url(#clip0)">
        <rect width="320" height="170" rx="4" fill="url(#paint1_radial)"/>
        <path fill-rule="evenodd" clip-rule="evenodd"
              d="M12.236 178.143c-5.29-2.988-5.29-7.832 0-10.82l44.297-25.024c5.29-2.988 13.866-2.988 19.156 0l44.297 25.024c5.29 2.988 5.29 7.832 0 10.82l-44.297 25.024c-5.29 2.988-13.866 2.988-19.155 0l-44.298-25.024zm82.383 46.538c-5.29-2.988-5.29-7.832 0-10.82l44.298-25.024c5.29-2.988 13.865-2.988 19.155 0l44.298 25.024c5.289 2.988 5.289 7.832 0 10.82l-44.298 25.024c-5.29 2.988-13.865 2.988-19.155 0l-44.298-25.024zm-82.383 35.718c-5.29 2.988-5.29 7.832 0 10.82l44.297 25.024c5.29 2.988 13.866 2.988 19.156 0l44.297-25.024c5.29-2.988 5.29-7.832 0-10.82l-44.297-25.024c-5.29-2.988-13.866-2.988-19.155 0l-44.298 25.024z"
              fill="url(#paint2_linear)" fill-opacity=".04"/>
        <path fill-rule="evenodd" clip-rule="evenodd"
              d="M94.18 40.086c-5.29-2.988-5.29-7.833 0-10.821L138.478 4.24c5.289-2.988 13.865-2.988 19.155 0l44.298 25.024c5.289 2.988 5.289 7.833 0 10.82L157.633 65.11c-5.29 2.989-13.866 2.989-19.155 0L94.18 40.087zm82.384 46.538c-5.29-2.989-5.29-7.833 0-10.821l44.297-25.024c5.29-2.988 13.866-2.988 19.155 0l44.298 25.024c5.29 2.988 5.29 7.832 0 10.82l-44.298 25.024c-5.289 2.988-13.865 2.988-19.155 0l-44.297-25.023zM94.18 122.34c-5.29 2.988-5.29 7.832 0 10.82l44.298 25.024c5.289 2.988 13.865 2.988 19.155 0l44.298-25.024c5.289-2.988 5.289-7.832 0-10.82l-44.298-25.024c-5.29-2.988-13.866-2.988-19.155 0L94.18 122.34z"
              fill="url(#paint3_linear)" fill-opacity=".04"/>
        <path fill-rule="evenodd" clip-rule="evenodd"
              d="M177.905 178.143c-5.289-2.988-5.289-7.832 0-10.82l44.298-25.024c5.289-2.988 13.865-2.988 19.155 0l44.298 25.024c5.289 2.988 5.289 7.832 0 10.82l-44.298 25.024c-5.29 2.988-13.866 2.988-19.155 0l-44.298-25.024zm82.384 46.538c-5.29-2.988-5.29-7.832 0-10.82l44.297-25.024c5.29-2.988 13.866-2.988 19.155 0l44.298 25.024c5.29 2.988 5.29 7.832 0 10.82l-44.298 25.024c-5.289 2.988-13.865 2.988-19.155 0l-44.297-25.024zm-82.384 35.718c-5.289 2.988-5.289 7.832 0 10.82l44.298 25.024c5.289 2.988 13.865 2.988 19.155 0l44.298-25.024c5.289-2.988 5.289-7.832 0-10.82l-44.298-25.024c-5.29-2.988-13.866-2.988-19.155 0l-44.298 25.024z"
              fill="url(#paint4_linear)" fill-opacity=".04"/>
        <path d="M98.509 80.234c-.093-.868-.484-1.544-1.173-2.028-.683-.484-1.571-.726-2.665-.726-.77 0-1.429.116-1.979.348-.55.232-.971.547-1.263.945-.291.398-.44.852-.447 1.362 0 .424.096.792.288 1.104.2.311.468.576.806.795.338.212.712.391 1.123.537.411.146.826.269 1.243.368l1.91.477c.768.18 1.507.421 2.216.726.716.305 1.356.69 1.92 1.154a5.125 5.125 0 011.352 1.68c.331.656.497 1.425.497 2.307 0 1.193-.305 2.243-.915 3.152-.61.901-1.491 1.607-2.645 2.118-1.146.503-2.535.755-4.166.755-1.584 0-2.96-.245-4.126-.736-1.16-.49-2.069-1.206-2.725-2.147-.65-.942-1-2.088-1.054-3.44h3.63c.053.709.271 1.299.656 1.77.384.47.885.821 1.501 1.053.623.232 1.32.348 2.088.348.802 0 1.505-.12 2.108-.358.61-.245 1.087-.583 1.432-1.014a2.45 2.45 0 00.527-1.531c-.007-.53-.162-.968-.467-1.313-.305-.351-.733-.643-1.283-.875-.543-.238-1.18-.45-1.909-.636l-2.317-.597c-1.677-.43-3.003-1.083-3.977-1.958-.968-.882-1.452-2.052-1.452-3.51 0-1.2.325-2.25.975-3.152.656-.902 1.547-1.601 2.674-2.098 1.127-.504 2.403-.756 3.829-.756 1.445 0 2.71.252 3.798.756 1.094.497 1.952 1.19 2.575 2.078.623.881.945 1.896.965 3.042h-3.55zm10.239 9.973l-.01-4.345h.577l5.488-6.135h4.206l-6.751 7.517h-.746l-2.764 2.963zM105.467 95V74.636h3.599V95h-3.599zm9.585 0l-4.972-6.95 2.426-2.536L119.357 95h-4.305zm8.757 5.697c-.49 0-.944-.039-1.362-.119-.411-.073-.739-.162-.984-.268l.835-2.794c.782.225 1.438.261 1.969.109.537-.146.977-.64 1.322-1.481l.308-.826-5.538-15.59h3.818l3.52 11.533h.159l3.53-11.534 3.848.02-6.135 17.102c-.285.796-.663 1.482-1.133 2.059a4.652 4.652 0 01-1.731 1.322c-.676.312-1.484.467-2.426.467zm31.513-19.19h-3.719a4.628 4.628 0 00-.587-1.62 4.346 4.346 0 00-1.064-1.214 4.434 4.434 0 00-1.451-.745 5.662 5.662 0 00-1.74-.259c-1.107 0-2.088.278-2.944.835-.855.55-1.524 1.36-2.008 2.426-.484 1.061-.726 2.357-.726 3.888 0 1.558.242 2.87.726 3.938.49 1.06 1.16 1.862 2.008 2.406.856.537 1.833.805 2.934.805.61 0 1.18-.08 1.71-.238a4.69 4.69 0 001.442-.726c.431-.318.792-.71 1.084-1.174a4.44 4.44 0 00.616-1.59l3.719.02a8.004 8.004 0 01-.905 2.724 8.016 8.016 0 01-1.8 2.247 8.298 8.298 0 01-2.605 1.511c-.994.358-2.098.537-3.311.537-1.79 0-3.387-.414-4.793-1.243-1.405-.828-2.512-2.025-3.321-3.589-.808-1.564-1.213-3.44-1.213-5.628 0-2.194.408-4.07 1.223-5.628.816-1.564 1.926-2.76 3.331-3.59 1.406-.828 2.996-1.242 4.773-1.242 1.134 0 2.187.159 3.162.477a8.1 8.1 0 012.605 1.402 7.458 7.458 0 011.879 2.247c.497.882.822 1.89.975 3.023zm6.818-6.87V95h-3.599V74.636h3.599zm13.436 13.94v-8.85h3.599V95h-3.49v-2.715h-.159a4.586 4.586 0 01-1.7 2.099c-.782.543-1.747.815-2.893.815-1.001 0-1.886-.222-2.655-.666-.763-.451-1.359-1.104-1.79-1.96-.431-.86-.646-1.902-.646-3.121v-9.725h3.599v9.168c0 .968.265 1.737.796 2.307.53.57 1.226.855 2.088.855a3.3 3.3 0 001.541-.388 3.134 3.134 0 001.223-1.153c.325-.517.487-1.164.487-1.94zm19.372-4.813l-3.281.358a2.642 2.642 0 00-.488-.934 2.417 2.417 0 00-.914-.707c-.385-.178-.856-.268-1.412-.268-.749 0-1.379.163-1.89.487-.503.325-.752.746-.745 1.263-.007.444.155.806.487 1.084.338.278.895.507 1.67.686l2.605.557c1.446.311 2.519.805 3.222 1.481.709.676 1.067 1.561 1.074 2.655-.007.961-.288 1.81-.845 2.546-.55.729-1.316 1.299-2.297 1.71-.981.41-2.108.616-3.381.616-1.869 0-3.374-.39-4.514-1.173-1.14-.789-1.82-1.886-2.038-3.291l3.51-.338c.159.69.497 1.21 1.014 1.56.517.352 1.19.528 2.018.528.855 0 1.541-.176 2.058-.527.524-.352.786-.786.786-1.303 0-.437-.169-.799-.507-1.084-.332-.285-.849-.503-1.551-.656l-2.605-.547c-1.465-.305-2.549-.818-3.252-1.54-.702-.73-1.05-1.651-1.044-2.765-.006-.941.249-1.757.766-2.446.523-.696 1.249-1.233 2.177-1.61.935-.385 2.012-.578 3.232-.578 1.79 0 3.198.382 4.226 1.144 1.034.762 1.674 1.793 1.919 3.092zm10.922-4.037v2.784h-8.779v-2.784h8.779zm-6.612-3.659h3.6v14.338c0 .484.073.855.218 1.114.153.252.352.424.597.517.245.093.517.14.815.14.226 0 .431-.017.617-.05a5.31 5.31 0 00.437-.09l.607 2.814a8.09 8.09 0 01-.825.219c-.352.08-.783.126-1.293.139-.902.026-1.714-.11-2.436-.408a3.785 3.785 0 01-1.72-1.412c-.418-.636-.623-1.432-.617-2.386V76.068zm16.22 19.23c-1.531 0-2.854-.318-3.967-.954-1.107-.643-1.959-1.551-2.556-2.725-.596-1.18-.895-2.568-.895-4.166 0-1.57.299-2.95.895-4.136.603-1.193 1.445-2.121 2.526-2.784 1.08-.67 2.35-1.005 3.808-1.005.941 0 1.83.153 2.665.458a6.02 6.02 0 012.227 1.392c.65.63 1.16 1.432 1.531 2.406.372.968.557 2.121.557 3.46v1.104h-12.518v-2.426h9.068c-.007-.69-.156-1.303-.448-1.84a3.247 3.247 0 00-1.223-1.282c-.517-.312-1.12-.468-1.809-.468-.736 0-1.382.18-1.939.537a3.703 3.703 0 00-1.303 1.392 4.009 4.009 0 00-.467 1.88v2.117c0 .889.162 1.651.487 2.288a3.48 3.48 0 001.362 1.451c.584.332 1.267.497 2.049.497.523 0 .997-.073 1.422-.218a3.151 3.151 0 001.103-.667 2.77 2.77 0 00.706-1.083l3.361.377a5.234 5.234 0 01-1.213 2.327c-.59.656-1.346 1.167-2.267 1.531-.921.358-1.975.537-3.162.537zm9.836-.298V79.727h3.49v2.546h.159c.279-.882.756-1.561 1.432-2.039.683-.483 1.462-.725 2.337-.725.199 0 .421.01.666.03.252.013.461.036.627.069v3.311a3.808 3.808 0 00-.726-.14 6.686 6.686 0 00-.945-.069c-.656 0-1.246.143-1.77.428a3.127 3.127 0 00-1.223 1.163c-.298.497-.447 1.07-.447 1.72V95h-3.6z"
              fill="url(#paint5_linear)"/>
    </g>
    <defs>
        <linearGradient id="paint2_linear" x1="107.303" y1="140.058" x2="107.303" y2="298.484" gradientUnits="userSpaceOnUse">
            <stop stop-color="#fff"/>
            <stop offset="1" stop-color="#fff" stop-opacity="0"/>
        </linearGradient>
        <linearGradient id="paint3_linear" x1="189.247" y1="2" x2="189.247" y2="160.426" gradientUnits="userSpaceOnUse">
            <stop stop-color="#fff"/>
            <stop offset="1" stop-color="#fff" stop-opacity="0"/>
        </linearGradient>
        <linearGradient id="paint4_linear" x1="272.972" y1="140.058" x2="272.972" y2="298.484" gradientUnits="userSpaceOnUse">
            <stop stop-color="#fff"/>
            <stop offset="1" stop-color="#fff" stop-opacity="0"/>
        </linearGradient>
        <linearGradient id="paint5_linear" x1="159.998" y1="70.984" x2="159.998" y2="99" gradientUnits="userSpaceOnUse">
            <stop stop-color="#fff"/>
            <stop offset="1" stop-color="#fff" stop-opacity=".5"/>
        </linearGradient>
        <radialGradient id="paint0_radial" cx="0" cy="0" r="1" gradientUnits="userSpaceOnUse" gradientTransform="matrix(319.99955 169.99995 -456.69625 859.66261 0 0)">
            <stop stop-color="#652B93"/>
            <stop offset="1" stop-color="#0F0C35"/>
        </radialGradient>
        <radialGradient id="paint1_radial" cx="0" cy="0" r="1" gradientUnits="userSpaceOnUse" gradientTransform="matrix(398.4004 219.34856 -453.33024 823.37876 -78.4 -49.35)">
            <stop stop-color="#DB6058"/>
            <stop offset=".858" stop-color="#7646E2"/>
        </radialGradient>
        <clipPath id="clip0">
            <rect width="320" height="170" rx="4" fill="#fff"/>
        </clipPath>
    </defs>
</svg>
