<svg width="320" height="170" fill="none" xmlns="http://www.w3.org/2000/svg">
    <g clip-path="url(#clip0)">
        <rect width="320" height="170" rx="4" fill="url(#paint1_radial)"/>
        <path fill-rule="evenodd" clip-rule="evenodd"
              d="M12.236 178.143c-5.29-2.988-5.29-7.832 0-10.82l44.297-25.024c5.29-2.988 13.866-2.988 19.156 0l44.297 25.024c5.29 2.988 5.29 7.832 0 10.82l-44.297 25.024c-5.29 2.988-13.866 2.988-19.155 0l-44.298-25.024zm82.383 46.538c-5.29-2.988-5.29-7.832 0-10.82l44.298-25.024c5.29-2.988 13.865-2.988 19.155 0l44.298 25.024c5.289 2.988 5.289 7.832 0 10.82l-44.298 25.024c-5.29 2.988-13.865 2.988-19.155 0l-44.298-25.024zm-82.383 35.718c-5.29 2.988-5.29 7.832 0 10.82l44.297 25.024c5.29 2.988 13.866 2.988 19.156 0l44.297-25.024c5.29-2.988 5.29-7.832 0-10.82l-44.297-25.024c-5.29-2.988-13.866-2.988-19.155 0l-44.298 25.024z"
              fill="url(#paint2_linear)" fill-opacity=".04"/>
        <path fill-rule="evenodd" clip-rule="evenodd"
              d="M94.18 40.086c-5.29-2.988-5.29-7.833 0-10.821L138.478 4.24c5.289-2.988 13.865-2.988 19.155 0l44.298 25.024c5.289 2.988 5.289 7.833 0 10.82L157.633 65.11c-5.29 2.989-13.866 2.989-19.155 0L94.18 40.087zm82.384 46.538c-5.29-2.989-5.29-7.833 0-10.821l44.297-25.024c5.29-2.988 13.866-2.988 19.155 0l44.298 25.024c5.29 2.988 5.29 7.832 0 10.82l-44.298 25.024c-5.289 2.988-13.865 2.988-19.155 0l-44.297-25.023zM94.18 122.34c-5.29 2.988-5.29 7.832 0 10.82l44.298 25.024c5.289 2.988 13.865 2.988 19.155 0l44.298-25.024c5.289-2.988 5.289-7.832 0-10.82l-44.298-25.024c-5.29-2.988-13.866-2.988-19.155 0L94.18 122.34z"
              fill="url(#paint3_linear)" fill-opacity=".04"/>
        <path fill-rule="evenodd" clip-rule="evenodd"
              d="M177.905 178.143c-5.289-2.988-5.289-7.832 0-10.82l44.298-25.024c5.289-2.988 13.865-2.988 19.155 0l44.298 25.024c5.289 2.988 5.289 7.832 0 10.82l-44.298 25.024c-5.29 2.988-13.866 2.988-19.155 0l-44.298-25.024zm82.384 46.538c-5.29-2.988-5.29-7.832 0-10.82l44.297-25.024c5.29-2.988 13.866-2.988 19.155 0l44.298 25.024c5.29 2.988 5.29 7.832 0 10.82l-44.298 25.024c-5.289 2.988-13.865 2.988-19.155 0l-44.297-25.024zm-82.384 35.718c-5.289 2.988-5.289 7.832 0 10.82l44.298 25.024c5.289 2.988 13.865 2.988 19.155 0l44.298-25.024c5.289-2.988 5.289-7.832 0-10.82l-44.298-25.024c-5.29-2.988-13.866-2.988-19.155 0l-44.298 25.024z"
              fill="url(#paint4_linear)" fill-opacity=".04"/>
        <path d="M115.128 80.234c-.093-.868-.484-1.544-1.173-2.028-.683-.484-1.571-.726-2.665-.726-.769 0-1.429.116-1.979.348-.55.232-.971.547-1.263.945-.291.398-.44.852-.447 1.362 0 .424.096.792.288 1.104.199.311.468.576.806.795a5.67 5.67 0 001.123.537c.411.146.826.269 1.243.368l1.909.477c.769.18 1.508.421 2.218.726.716.305 1.355.69 1.919 1.154a5.112 5.112 0 011.352 1.68c.331.656.497 1.425.497 2.307 0 1.193-.305 2.243-.915 3.152-.609.901-1.491 1.607-2.645 2.118-1.146.503-2.535.755-4.166.755-1.584 0-2.959-.245-4.126-.736-1.16-.49-2.068-1.206-2.725-2.147-.649-.942-1.001-2.088-1.054-3.44h3.63c.053.709.272 1.299.656 1.77.384.47.885.821 1.501 1.053.623.232 1.32.348 2.088.348.803 0 1.505-.12 2.108-.358.61-.245 1.088-.583 1.432-1.014.345-.437.521-.948.527-1.531-.006-.53-.162-.968-.467-1.313-.305-.351-.733-.643-1.283-.875-.543-.238-1.18-.45-1.909-.636l-2.317-.597c-1.677-.43-3.002-1.083-3.977-1.958-.968-.882-1.452-2.052-1.452-3.51 0-1.2.325-2.25.975-3.152.656-.902 1.548-1.601 2.675-2.098 1.126-.504 2.402-.756 3.828-.756 1.445 0 2.711.252 3.798.756 1.094.497 1.952 1.19 2.575 2.078.623.881.945 1.896.965 3.042h-3.55zm10.239 9.973l-.01-4.345h.577l5.488-6.135h4.206l-6.751 7.517h-.746l-2.764 2.963zM122.086 95V74.636h3.599V95h-3.599zm9.585 0l-4.972-6.95 2.427-2.536 6.85 9.486h-4.305zm8.757 5.697c-.49 0-.944-.039-1.362-.119-.411-.073-.739-.162-.984-.268l.835-2.794c.782.225 1.439.261 1.969.109.537-.146.978-.64 1.322-1.481l.309-.826-5.539-15.59h3.818l3.52 11.533h.159l3.53-11.534 3.848.02-6.135 17.102c-.285.796-.663 1.482-1.133 2.059a4.657 4.657 0 01-1.73 1.322c-.677.312-1.485.467-2.427.467zM154.51 95V74.636h7.796c1.472 0 2.695.232 3.669.696.981.458 1.714 1.084 2.197 1.88.491.795.736 1.697.736 2.704 0 .829-.159 1.538-.477 2.128a4.012 4.012 0 01-1.283 1.422 5.433 5.433 0 01-1.799.785v.2c.722.04 1.415.261 2.078.666.669.397 1.216.96 1.64 1.69.425.729.637 1.61.637 2.645 0 1.054-.256 2.002-.766 2.844-.51.835-1.279 1.494-2.307 1.978-1.027.484-2.32.726-3.878.726h-8.243zm3.689-3.082h3.968c1.339 0 2.303-.256 2.893-.766.597-.517.895-1.18.895-1.989 0-.603-.149-1.146-.447-1.63a3.08 3.08 0 00-1.273-1.154c-.55-.285-1.207-.427-1.969-.427h-4.067v5.966zm0-8.621h3.65c.636 0 1.209-.116 1.72-.348.51-.239.911-.573 1.203-1.004.298-.438.447-.955.447-1.551 0-.79-.278-1.439-.835-1.95-.55-.51-1.369-.765-2.456-.765h-3.729v5.618zm18.95 12.011c-.968 0-1.84-.172-2.615-.517a4.27 4.27 0 01-1.83-1.55c-.444-.684-.666-1.526-.666-2.526 0-.862.159-1.575.477-2.138a3.688 3.688 0 011.303-1.353 6.574 6.574 0 011.859-.765 15.115 15.115 0 012.158-.388c.895-.093 1.62-.176 2.177-.249.557-.08.961-.198 1.213-.358.259-.165.388-.42.388-.765v-.06c0-.749-.222-1.329-.666-1.74-.444-.41-1.084-.616-1.919-.616-.882 0-1.581.192-2.098.576-.511.385-.855.839-1.034 1.363l-3.361-.478c.265-.928.703-1.703 1.312-2.326a5.71 5.71 0 012.238-1.412c.881-.319 1.856-.478 2.923-.478a9.52 9.52 0 012.197.259c.73.172 1.396.457 1.999.855a4.302 4.302 0 011.452 1.6c.371.677.557 1.522.557 2.536V95h-3.461v-2.098h-.119a4.396 4.396 0 01-.925 1.193c-.391.365-.885.66-1.481.885-.59.219-1.283.328-2.078.328zm.934-2.645c.723 0 1.349-.142 1.88-.427.53-.292.938-.676 1.223-1.154a2.94 2.94 0 00.437-1.56v-1.8c-.113.092-.305.179-.577.258a8.1 8.1 0 01-.895.209c-.331.06-.659.113-.984.159l-.845.12a6.283 6.283 0 00-1.442.357c-.424.166-.759.398-1.004.696-.245.292-.368.67-.368 1.134 0 .663.242 1.163.726 1.501.484.338 1.1.507 1.849.507zm22.82-8.899l-3.281.358a2.642 2.642 0 00-.488-.934 2.417 2.417 0 00-.914-.707c-.385-.178-.855-.268-1.412-.268-.749 0-1.379.163-1.889.487-.504.325-.753.746-.746 1.263-.007.444.156.806.487 1.084.338.278.895.507 1.67.686l2.606.557c1.445.311 2.518.805 3.221 1.481.709.676 1.067 1.561 1.074 2.655-.007.961-.288 1.81-.845 2.546-.55.729-1.316 1.299-2.297 1.71-.981.41-2.108.616-3.381.616-1.869 0-3.374-.39-4.514-1.173-1.14-.789-1.82-1.886-2.038-3.291l3.51-.338c.159.69.497 1.21 1.014 1.56.517.352 1.19.528 2.018.528.855 0 1.542-.176 2.059-.527.523-.352.785-.786.785-1.303 0-.437-.169-.799-.507-1.084-.331-.285-.849-.503-1.551-.656l-2.605-.547c-1.465-.305-2.549-.818-3.252-1.54-.702-.73-1.05-1.651-1.044-2.765-.006-.941.249-1.757.766-2.446.524-.696 1.249-1.233 2.177-1.61.935-.385 2.012-.578 3.232-.578 1.79 0 3.198.382 4.226 1.144 1.034.762 1.674 1.793 1.919 3.092zm10.057 11.534c-1.531 0-2.853-.318-3.967-.954-1.107-.643-1.959-1.551-2.555-2.725-.597-1.18-.895-2.568-.895-4.166 0-1.57.298-2.95.895-4.136.603-1.193 1.445-2.121 2.525-2.784 1.081-.67 2.35-1.005 3.808-1.005.942 0 1.83.153 2.665.458a6.025 6.025 0 012.228 1.392c.649.63 1.16 1.432 1.531 2.406.371.968.557 2.121.557 3.46v1.104h-12.519v-2.426h9.068c-.006-.69-.155-1.303-.447-1.84a3.254 3.254 0 00-1.223-1.282c-.517-.312-1.12-.468-1.81-.468-.736 0-1.382.18-1.939.537a3.692 3.692 0 00-1.302 1.392 4.01 4.01 0 00-.468 1.88v2.117c0 .889.163 1.651.488 2.288.324.63.778 1.113 1.362 1.451.583.332 1.266.497 2.048.497.524 0 .998-.073 1.422-.218a3.164 3.164 0 001.104-.667 2.78 2.78 0 00.706-1.083l3.36.377a5.234 5.234 0 01-1.213 2.327c-.59.656-1.345 1.167-2.267 1.531-.921.358-1.975.537-3.162.537z"
              fill="url(#paint5_linear)"/>
    </g>
    <defs>
        <linearGradient id="paint2_linear" x1="107.303" y1="140.058" x2="107.303" y2="298.484" gradientUnits="userSpaceOnUse">
            <stop stop-color="#fff"/>
            <stop offset="1" stop-color="#fff" stop-opacity="0"/>
        </linearGradient>
        <linearGradient id="paint3_linear" x1="189.247" y1="2" x2="189.247" y2="160.426" gradientUnits="userSpaceOnUse">
            <stop stop-color="#fff"/>
            <stop offset="1" stop-color="#fff" stop-opacity="0"/>
        </linearGradient>
        <linearGradient id="paint4_linear" x1="272.972" y1="140.058" x2="272.972" y2="298.484" gradientUnits="userSpaceOnUse">
            <stop stop-color="#fff"/>
            <stop offset="1" stop-color="#fff" stop-opacity="0"/>
        </linearGradient>
        <linearGradient id="paint5_linear" x1="160.499" y1="70.984" x2="160.499" y2="99" gradientUnits="userSpaceOnUse">
            <stop stop-color="#fff"/>
            <stop offset="1" stop-color="#fff" stop-opacity=".5"/>
        </linearGradient>
        <radialGradient id="paint0_radial" cx="0" cy="0" r="1" gradientUnits="userSpaceOnUse" gradientTransform="matrix(319.99955 169.99995 -456.69625 859.66261 0 0)">
            <stop stop-color="#652B93"/>
            <stop offset="1" stop-color="#0F0C35"/>
        </radialGradient>
        <radialGradient id="paint1_radial" cx="0" cy="0" r="1" gradientUnits="userSpaceOnUse" gradientTransform="matrix(398.4004 219.34856 -453.33024 823.37876 -78.4 -49.35)">
            <stop stop-color="#7747E3"/>
            <stop offset=".981" stop-color="#3891D5"/>
        </radialGradient>
        <clipPath id="clip0">
            <rect width="320" height="170" rx="4" fill="#fff"/>
        </clipPath>
    </defs>
</svg>
