<svg width="320" height="170" fill="none" xmlns="http://www.w3.org/2000/svg">
    <g clip-path="url(#clip0)">
        <rect width="320" height="170" rx="4" fill="url(#paint1_radial)"/>
        <path fill-rule="evenodd" clip-rule="evenodd"
              d="M12.236 178.143c-5.29-2.988-5.29-7.832 0-10.82l44.297-25.024c5.29-2.988 13.866-2.988 19.156 0l44.297 25.024c5.29 2.988 5.29 7.832 0 10.82l-44.297 25.024c-5.29 2.988-13.866 2.988-19.155 0l-44.298-25.024zm82.383 46.538c-5.29-2.988-5.29-7.832 0-10.82l44.298-25.024c5.29-2.988 13.865-2.988 19.155 0l44.298 25.024c5.289 2.988 5.289 7.832 0 10.82l-44.298 25.024c-5.29 2.988-13.865 2.988-19.155 0l-44.298-25.024zm-82.383 35.718c-5.29 2.988-5.29 7.832 0 10.82l44.297 25.024c5.29 2.988 13.866 2.988 19.156 0l44.297-25.024c5.29-2.988 5.29-7.832 0-10.82l-44.297-25.024c-5.29-2.988-13.866-2.988-19.155 0l-44.298 25.024z"
              fill="url(#paint2_linear)" fill-opacity=".04"/>
        <path fill-rule="evenodd" clip-rule="evenodd"
              d="M94.18 40.086c-5.29-2.988-5.29-7.833 0-10.821L138.478 4.24c5.289-2.988 13.865-2.988 19.155 0l44.298 25.024c5.289 2.988 5.289 7.833 0 10.82L157.633 65.11c-5.29 2.989-13.866 2.989-19.155 0L94.18 40.087zm82.384 46.538c-5.29-2.989-5.29-7.833 0-10.821l44.297-25.024c5.29-2.988 13.866-2.988 19.155 0l44.298 25.024c5.29 2.988 5.29 7.832 0 10.82l-44.298 25.024c-5.289 2.988-13.865 2.988-19.155 0l-44.297-25.023zM94.18 122.34c-5.29 2.988-5.29 7.832 0 10.82l44.298 25.024c5.289 2.988 13.865 2.988 19.155 0l44.298-25.024c5.289-2.988 5.289-7.832 0-10.82l-44.298-25.024c-5.29-2.988-13.866-2.988-19.155 0L94.18 122.34z"
              fill="url(#paint3_linear)" fill-opacity=".04"/>
        <path fill-rule="evenodd" clip-rule="evenodd"
              d="M177.905 178.143c-5.289-2.988-5.289-7.832 0-10.82l44.298-25.024c5.289-2.988 13.865-2.988 19.155 0l44.298 25.024c5.289 2.988 5.289 7.832 0 10.82l-44.298 25.024c-5.29 2.988-13.866 2.988-19.155 0l-44.298-25.024zm82.384 46.538c-5.29-2.988-5.29-7.832 0-10.82l44.297-25.024c5.29-2.988 13.866-2.988 19.155 0l44.298 25.024c5.29 2.988 5.29 7.832 0 10.82l-44.298 25.024c-5.289 2.988-13.865 2.988-19.155 0l-44.297-25.024zm-82.384 35.718c-5.289 2.988-5.289 7.832 0 10.82l44.298 25.024c5.289 2.988 13.865 2.988 19.155 0l44.298-25.024c5.289-2.988 5.289-7.832 0-10.82l-44.298-25.024c-5.29-2.988-13.866-2.988-19.155 0l-44.298 25.024z"
              fill="url(#paint4_linear)" fill-opacity=".04"/>
        <path d="M74.495 80.234c-.093-.868-.484-1.544-1.173-2.028-.683-.484-1.571-.726-2.665-.726-.769 0-1.428.116-1.979.348-.55.232-.97.547-1.262.945a2.299 2.299 0 00-.448 1.362c0 .424.096.792.289 1.104.198.311.467.576.805.795.338.212.713.391 1.124.537.41.146.825.269 1.242.368l1.91.477c.769.18 1.508.421 2.217.726.716.305 1.355.69 1.919 1.154a5.118 5.118 0 011.352 1.68c.332.656.497 1.425.497 2.307 0 1.193-.305 2.243-.914 3.152-.61.901-1.492 1.607-2.645 2.118-1.147.503-2.536.755-4.166.755-1.585 0-2.96-.245-4.127-.736-1.16-.49-2.068-1.206-2.724-2.147-.65-.942-1.001-2.088-1.054-3.44h3.629c.053.709.272 1.299.656 1.77.385.47.885.821 1.502 1.053.623.232 1.319.348 2.088.348.802 0 1.504-.12 2.108-.358.61-.245 1.087-.583 1.431-1.014a2.45 2.45 0 00.527-1.531c-.006-.53-.162-.968-.467-1.313-.305-.351-.732-.643-1.283-.875a12.36 12.36 0 00-1.909-.636l-2.316-.597c-1.678-.43-3.003-1.083-3.978-1.958-.967-.882-1.451-2.052-1.451-3.51 0-1.2.324-2.25.974-3.152.656-.902 1.548-1.601 2.675-2.098 1.127-.504 2.403-.756 3.828-.756 1.445 0 2.711.252 3.798.756 1.094.497 1.952 1.19 2.575 2.078.624.881.945 1.896.965 3.042h-3.55zm14.584-.507v2.784H80.3v-2.784h8.78zm-6.612-3.659h3.6v14.338c0 .484.073.855.218 1.114.153.252.352.424.597.517.245.093.517.14.815.14.226 0 .431-.017.617-.05a5.34 5.34 0 00.437-.09l.607 2.814c-.193.066-.468.14-.826.219-.35.08-.782.126-1.292.139-.902.026-1.714-.11-2.436-.408a3.79 3.79 0 01-1.72-1.412c-.418-.636-.624-1.432-.617-2.386V76.068zm16.12 19.23c-1.49 0-2.784-.328-3.877-.984-1.094-.656-1.942-1.574-2.546-2.754-.596-1.18-.895-2.56-.895-4.137 0-1.577.299-2.96.895-4.146.603-1.187 1.452-2.108 2.546-2.764 1.093-.657 2.386-.985 3.878-.985 1.491 0 2.784.328 3.877.985 1.094.656 1.939 1.577 2.536 2.764.603 1.186.905 2.569.905 4.146 0 1.578-.302 2.957-.905 4.137-.597 1.18-1.442 2.098-2.536 2.754-1.093.656-2.386.984-3.877.984zm.02-2.883c.81 0 1.485-.222 2.029-.666.543-.451.948-1.054 1.213-1.81.272-.756.408-1.598.408-2.526 0-.934-.136-1.78-.408-2.535-.265-.763-.67-1.369-1.213-1.82-.544-.45-1.22-.676-2.029-.676-.828 0-1.518.225-2.068.676-.543.451-.951 1.057-1.223 1.82-.265.755-.398 1.6-.398 2.535 0 .928.133 1.77.398 2.526.272.756.68 1.359 1.223 1.81.55.444 1.24.666 2.068.666zM108.961 95V79.727h3.49v2.546h.159c.278-.882.756-1.561 1.432-2.039.682-.483 1.461-.725 2.336-.725.199 0 .421.01.667.03.251.013.46.036.626.069v3.311a3.778 3.778 0 00-.726-.14 6.683 6.683 0 00-.944-.069c-.657 0-1.247.143-1.77.428a3.127 3.127 0 00-1.223 1.163c-.299.497-.448 1.07-.448 1.72V95h-3.599zm15.195.308c-.967 0-1.839-.172-2.615-.517a4.267 4.267 0 01-1.829-1.55c-.444-.684-.666-1.526-.666-2.526 0-.862.159-1.575.477-2.138a3.693 3.693 0 011.302-1.353 6.58 6.58 0 011.86-.765 15.115 15.115 0 012.158-.388 85.07 85.07 0 002.177-.249c.557-.08.961-.198 1.213-.358.259-.165.388-.42.388-.765v-.06c0-.749-.222-1.329-.666-1.74-.444-.41-1.084-.616-1.919-.616-.882 0-1.581.192-2.098.576-.511.385-.855.839-1.034 1.363l-3.361-.478c.265-.928.702-1.703 1.312-2.326a5.71 5.71 0 012.238-1.412c.881-.319 1.856-.478 2.923-.478a9.52 9.52 0 012.197.259 6.186 6.186 0 011.999.855 4.302 4.302 0 011.452 1.6c.371.677.556 1.522.556 2.536V95h-3.46v-2.098h-.119a4.396 4.396 0 01-.925 1.193c-.391.365-.885.66-1.481.885-.59.219-1.283.328-2.079.328zm.935-2.645c.723 0 1.349-.142 1.879-.427a3.156 3.156 0 001.223-1.154c.292-.477.438-.997.438-1.56v-1.8c-.113.092-.305.179-.577.258a8.1 8.1 0 01-.895.209c-.331.06-.659.113-.984.159l-.845.12a6.283 6.283 0 00-1.442.357c-.424.166-.759.398-1.004.696-.246.292-.368.67-.368 1.134 0 .663.242 1.163.726 1.501.484.338 1.1.507 1.849.507zm17.391 8.323c-1.293 0-2.403-.173-3.331-.517-.928-.345-1.674-.806-2.237-1.382-.564-.577-.955-1.21-1.174-1.9l3.242-.785c.146.272.358.55.636.835.278.292.653.534 1.124.726.477.199 1.077.298 1.799.298 1.021 0 1.866-.245 2.536-.735.669-.491 1.004-1.283 1.004-2.377v-2.893h-.179a5.086 5.086 0 01-.815 1.143c-.351.391-.819.72-1.402.984-.577.266-1.303.398-2.178.398-1.173 0-2.237-.275-3.191-.825-.948-.557-1.704-1.386-2.268-2.486-.556-1.107-.835-2.492-.835-4.156 0-1.677.279-3.092.835-4.246.564-1.16 1.323-2.038 2.277-2.635.955-.603 2.019-.905 3.192-.905.895 0 1.631.153 2.208.458.583.298 1.047.66 1.392 1.084.344.417.606.812.785 1.183h.199v-2.526h3.55V95.25c0 1.279-.312 2.343-.935 3.191-.623.856-1.475 1.492-2.555 1.909-1.081.425-2.307.637-3.679.637zm.03-9.029c.762 0 1.411-.185 1.948-.556.537-.372.945-.905 1.223-1.601.279-.696.418-1.531.418-2.506 0-.961-.139-1.803-.418-2.525-.271-.723-.676-1.283-1.213-1.68-.53-.405-1.183-.608-1.958-.608-.803 0-1.472.21-2.009.627-.537.418-.941.991-1.213 1.72-.272.723-.408 1.545-.408 2.466 0 .935.136 1.753.408 2.456.278.696.686 1.24 1.223 1.63.544.385 1.21.577 1.999.577zm17.589 3.341c-1.531 0-2.854-.318-3.967-.954-1.107-.643-1.959-1.551-2.556-2.725-.596-1.18-.895-2.568-.895-4.166 0-1.57.299-2.95.895-4.136.604-1.193 1.445-2.121 2.526-2.784 1.08-.67 2.35-1.005 3.808-1.005.941 0 1.83.153 2.665.458a6.02 6.02 0 012.227 1.392c.65.63 1.16 1.432 1.531 2.406.372.968.557 2.121.557 3.46v1.104h-12.518v-2.426h9.068c-.007-.69-.156-1.303-.448-1.84a3.247 3.247 0 00-1.223-1.282c-.517-.312-1.12-.468-1.809-.468-.736 0-1.382.18-1.939.537a3.703 3.703 0 00-1.303 1.392 4.009 4.009 0 00-.467 1.88v2.117c0 .889.162 1.651.487 2.288a3.48 3.48 0 001.362 1.451c.584.332 1.267.497 2.049.497.523 0 .997-.073 1.422-.218a3.151 3.151 0 001.103-.667 2.77 2.77 0 00.706-1.083l3.361.377a5.234 5.234 0 01-1.213 2.327c-.59.656-1.346 1.167-2.267 1.531-.921.358-1.975.537-3.162.537zM177.042 95V74.636h13.045v3.093h-9.356v5.528h8.461v3.092h-8.461V95h-3.689zm20.505.308c-.968 0-1.839-.172-2.615-.517a4.27 4.27 0 01-1.83-1.55c-.444-.684-.666-1.526-.666-2.526 0-.862.159-1.575.478-2.138a3.693 3.693 0 011.302-1.353 6.574 6.574 0 011.859-.765 15.14 15.14 0 012.158-.388 84.704 84.704 0 002.178-.249c.557-.08.961-.198 1.213-.358.258-.165.388-.42.388-.765v-.06c0-.749-.223-1.329-.667-1.74-.444-.41-1.083-.616-1.919-.616-.881 0-1.581.192-2.098.576-.51.385-.855.839-1.034 1.363l-3.361-.478c.266-.928.703-1.703 1.313-2.326.61-.63 1.356-1.1 2.237-1.412.882-.319 1.856-.478 2.923-.478.736 0 1.469.087 2.198.259a6.18 6.18 0 011.998.855 4.285 4.285 0 011.452 1.6c.371.677.557 1.522.557 2.536V95h-3.46v-2.098h-.12a4.391 4.391 0 01-.924 1.193c-.391.365-.885.66-1.482.885-.59.219-1.282.328-2.078.328zm.935-2.645c.722 0 1.349-.142 1.879-.427.53-.292.938-.676 1.223-1.154.292-.477.437-.997.437-1.56v-1.8c-.112.092-.304.179-.576.258-.265.08-.564.15-.895.209a26.4 26.4 0 01-.984.159l-.846.12a6.274 6.274 0 00-1.441.357c-.425.166-.759.398-1.005.696-.245.292-.368.67-.368 1.134 0 .663.242 1.163.726 1.501.484.338 1.101.507 1.85.507zM209.389 95V74.636h3.6v7.617h.149a6.63 6.63 0 01.785-1.183c.339-.425.796-.786 1.373-1.084.576-.305 1.312-.458 2.207-.458 1.18 0 2.244.302 3.192.905.954.597 1.71 1.482 2.267 2.655.563 1.167.845 2.599.845 4.296 0 1.677-.275 3.102-.825 4.275-.55 1.173-1.3 2.068-2.247 2.685-.948.616-2.022.925-3.222.925-.875 0-1.601-.146-2.178-.438-.576-.292-1.04-.643-1.392-1.054a6.846 6.846 0 01-.805-1.183h-.209V95h-3.54zm3.53-7.636c0 .987.139 1.852.418 2.595.285.742.693 1.322 1.223 1.74.537.41 1.186.616 1.949.616.795 0 1.461-.212 1.998-.636.537-.43.942-1.017 1.213-1.76.279-.749.418-1.6.418-2.555 0-.948-.136-1.79-.408-2.526-.271-.736-.676-1.312-1.213-1.73-.537-.418-1.206-.627-2.008-.627-.769 0-1.422.203-1.959.607-.537.404-.945.971-1.223 1.7-.272.73-.408 1.588-.408 2.576zM226.867 95V79.727h3.49v2.546h.159c.279-.882.756-1.561 1.432-2.039.683-.483 1.462-.725 2.337-.725.198 0 .421.01.666.03.252.013.461.036.626.069v3.311a3.778 3.778 0 00-.726-.14 6.661 6.661 0 00-.944-.069c-.656 0-1.246.143-1.77.428a3.127 3.127 0 00-1.223 1.163c-.298.497-.448 1.07-.448 1.72V95h-3.599zm11.102 0V79.727h3.599V95h-3.599zm1.809-17.44c-.576 0-1.07-.19-1.481-.567-.405-.385-.607-.845-.607-1.382 0-.544.206-1.005.617-1.382a2.078 2.078 0 011.471-.577c.57 0 1.058.192 1.462.577.411.377.616.838.616 1.382 0 .537-.205.997-.616 1.382a2.065 2.065 0 01-1.462.567zm12.153 17.738c-1.524 0-2.834-.335-3.927-1.004-1.087-.67-1.926-1.594-2.516-2.774-.583-1.187-.875-2.552-.875-4.097 0-1.55.298-2.92.895-4.106.597-1.193 1.438-2.121 2.526-2.784 1.093-.67 2.386-1.005 3.877-1.005 1.24 0 2.337.23 3.292.686.961.451 1.726 1.09 2.296 1.92.571.822.895 1.783.975 2.883h-3.44a3.293 3.293 0 00-.995-1.84c-.517-.497-1.21-.745-2.078-.745-.736 0-1.382.199-1.939.596-.557.391-.991.955-1.302 1.69-.305.736-.458 1.618-.458 2.646 0 1.04.153 1.935.458 2.684.305.743.732 1.316 1.282 1.72.557.398 1.21.597 1.959.597.53 0 1.004-.1 1.422-.298.424-.206.779-.5 1.064-.885.285-.385.48-.852.587-1.402h3.44c-.086 1.08-.404 2.038-.955 2.873-.55.829-1.299 1.479-2.247 1.95-.948.463-2.061.695-3.341.695z"
              fill="url(#paint5_linear)"/>
    </g>
    <defs>
        <linearGradient id="paint2_linear" x1="107.303" y1="140.058" x2="107.303" y2="298.484" gradientUnits="userSpaceOnUse">
            <stop stop-color="#fff"/>
            <stop offset="1" stop-color="#fff" stop-opacity="0"/>
        </linearGradient>
        <linearGradient id="paint3_linear" x1="189.247" y1="2" x2="189.247" y2="160.426" gradientUnits="userSpaceOnUse">
            <stop stop-color="#fff"/>
            <stop offset="1" stop-color="#fff" stop-opacity="0"/>
        </linearGradient>
        <linearGradient id="paint4_linear" x1="272.972" y1="140.058" x2="272.972" y2="298.484" gradientUnits="userSpaceOnUse">
            <stop stop-color="#fff"/>
            <stop offset="1" stop-color="#fff" stop-opacity="0"/>
        </linearGradient>
        <linearGradient id="paint5_linear" x1="160.498" y1="70.984" x2="160.498" y2="99" gradientUnits="userSpaceOnUse">
            <stop stop-color="#fff"/>
            <stop offset="1" stop-color="#fff" stop-opacity=".5"/>
        </linearGradient>
        <radialGradient id="paint0_radial" cx="0" cy="0" r="1" gradientUnits="userSpaceOnUse" gradientTransform="matrix(319.99955 169.99995 -456.69625 859.66261 0 0)">
            <stop stop-color="#652B93"/>
            <stop offset="1" stop-color="#0F0C35"/>
        </radialGradient>
        <radialGradient id="paint1_radial" cx="0" cy="0" r="1" gradientUnits="userSpaceOnUse" gradientTransform="matrix(398.4004 219.34856 -453.33024 823.37876 -78.4 -49.35)">
            <stop stop-color="#4E79E7"/>
            <stop offset=".981" stop-color="#0BBDB2"/>
        </radialGradient>
        <clipPath id="clip0">
            <rect width="320" height="170" rx="4" fill="#fff"/>
        </clipPath>
    </defs>
</svg>
