<svg width="320" height="170" fill="none" xmlns="http://www.w3.org/2000/svg">
    <g clip-path="url(#clip0)">
        <rect width="320" height="170" rx="4" fill="url(#paint1_radial)"/>
        <path fill-rule="evenodd" clip-rule="evenodd"
              d="M12.236 178.143c-5.29-2.988-5.29-7.832 0-10.82l44.298-25.024c5.29-2.988 13.865-2.988 19.155 0l44.297 25.024c5.29 2.988 5.29 7.832 0 10.82l-44.297 25.024c-5.29 2.988-13.866 2.988-19.155 0l-44.298-25.024zm82.383 46.538c-5.29-2.988-5.29-7.833 0-10.821l44.298-25.024c5.29-2.988 13.866-2.988 19.155 0l44.298 25.024c5.289 2.988 5.289 7.833 0 10.821l-44.298 25.024c-5.289 2.988-13.865 2.988-19.155 0l-44.298-25.024zm-82.383 35.717c-5.29 2.988-5.29 7.833 0 10.821l44.298 25.024c5.29 2.988 13.865 2.988 19.155 0l44.297-25.024c5.29-2.988 5.29-7.833 0-10.821l-44.297-25.023c-5.29-2.989-13.866-2.989-19.155 0l-44.298 25.023z"
              fill="url(#paint2_linear)" fill-opacity=".04"/>
        <path fill-rule="evenodd" clip-rule="evenodd"
              d="M94.18 40.086c-5.29-2.988-5.29-7.833 0-10.821L138.478 4.24c5.289-2.988 13.865-2.988 19.155 0l44.297 25.024c5.29 2.988 5.29 7.833 0 10.82L157.633 65.11c-5.29 2.989-13.866 2.989-19.155 0L94.18 40.087zm82.383 46.538c-5.289-2.989-5.289-7.833 0-10.821l44.298-25.024c5.29-2.988 13.866-2.988 19.155 0l44.298 25.024c5.289 2.988 5.289 7.832 0 10.82l-44.298 25.024c-5.289 2.988-13.865 2.988-19.155 0l-44.298-25.023zM94.18 122.34c-5.29 2.988-5.29 7.832 0 10.82l44.298 25.024c5.289 2.988 13.865 2.988 19.155 0l44.297-25.024c5.29-2.988 5.29-7.832 0-10.82l-44.297-25.024c-5.29-2.988-13.866-2.988-19.155 0L94.18 122.34z"
              fill="url(#paint3_linear)" fill-opacity=".04"/>
        <path fill-rule="evenodd" clip-rule="evenodd"
              d="M177.905 178.143c-5.289-2.988-5.289-7.832 0-10.82l44.298-25.024c5.29-2.988 13.866-2.988 19.155 0l44.298 25.024c5.289 2.988 5.289 7.832 0 10.82l-44.298 25.024c-5.289 2.988-13.865 2.988-19.155 0l-44.298-25.024zm82.384 46.538c-5.29-2.988-5.29-7.833 0-10.821l44.298-25.024c5.289-2.988 13.865-2.988 19.155 0l44.297 25.024c5.29 2.988 5.29 7.833 0 10.821l-44.297 25.024c-5.29 2.988-13.866 2.988-19.155 0l-44.298-25.024zm-82.384 35.717c-5.289 2.988-5.289 7.833 0 10.821l44.298 25.024c5.29 2.988 13.866 2.988 19.155 0l44.298-25.024c5.289-2.988 5.289-7.833 0-10.821l-44.298-25.023c-5.289-2.989-13.865-2.989-19.155 0l-44.298 25.023z"
              fill="url(#paint4_linear)" fill-opacity=".04"/>
        <path fill-rule="evenodd" clip-rule="evenodd"
              d="M145.674 76.042h10.971l-5.801-9.333-10.647 16.874h-4.845l12.95-20.27A3.06 3.06 0 01150.844 62c1.006 0 1.945.478 2.491 1.28l13.001 20.303h-4.846l-2.286-3.77h-11.107l-2.423-3.771zm50.332 3.77V62.205h-4.112v19.33c0 .53.205 1.041.597 1.434.393.392.922.614 1.502.614h18.75l2.423-3.77h-19.16zm-68.025-3.156c3.993 0 7.234-3.225 7.234-7.217a7.237 7.237 0 00-7.234-7.234h-17.988v21.378h4.11V65.975h13.605a3.452 3.452 0 013.447 3.464 3.452 3.452 0 01-3.447 3.463l-11.591-.017 12.274 10.698h5.971l-8.257-6.927h1.876zm-43.29 6.927C78.789 83.583 74 78.806 74 72.903c0-5.904 4.79-10.698 10.69-10.698h12.427c5.903 0 10.689 4.794 10.689 10.697 0 5.904-4.786 10.68-10.69 10.68H84.692zm12.15-3.77a6.91 6.91 0 006.92-6.91c0-3.822-3.097-6.928-6.92-6.928H84.965c-3.822 0-6.92 3.106-6.92 6.927a6.912 6.912 0 006.92 6.91H96.84zm78.077 3.77c-5.904 0-10.698-4.777-10.698-10.68 0-5.904 4.794-10.698 10.698-10.698h14.758l-2.406 3.77h-12.079a6.932 6.932 0 00-6.927 6.927c0 3.822 3.105 6.91 6.927 6.91h14.826l-2.422 3.77h-12.677zm50.28-3.77a6.91 6.91 0 01-6.654-5.034h17.574l2.423-3.77h-19.997c.819-2.9 3.498-5.034 6.654-5.034h12.063l2.44-3.77h-14.776c-5.903 0-10.697 4.794-10.697 10.697 0 5.904 4.794 10.68 10.697 10.68h12.677l2.423-3.77h-14.827zm-29.941 21.636h10.97l-5.801-9.333-10.646 16.874h-4.846l12.95-20.269a3.06 3.06 0 012.542-1.314c1.007 0 1.945.478 2.491 1.28l13.001 20.303h-4.845l-2.287-3.77h-11.107l-2.422-3.771zm-17.693.614c3.992 0 7.234-3.224 7.234-7.217a7.238 7.238 0 00-7.234-7.234h-17.988v21.378h4.11V91.383h13.605a3.451 3.451 0 013.446 3.463 3.451 3.451 0 01-3.446 3.464l-11.592-.017 12.274 10.697h5.972l-8.258-6.927h1.877zm36.239-3.753c0 5.903 4.794 10.68 10.697 10.68h12.677l2.423-3.77h-14.827c-3.822 0-6.927-3.089-6.927-6.91a6.932 6.932 0 016.927-6.927h12.08l2.405-3.771H224.5c-5.903 0-10.697 4.794-10.697 10.698zm29.976-35.712a1.871 1.871 0 00-1.877 1.877c0 1.058.836 1.894 1.877 1.894a1.879 1.879 0 001.893-1.894 1.875 1.875 0 00-1.893-1.877zm2.405 1.894a2.403 2.403 0 01-2.405 2.405 2.4 2.4 0 01-2.389-2.405 2.4 2.4 0 012.389-2.406 2.403 2.403 0 012.405 2.406zm-1.928-1.348c-.17-.068-.324-.085-.699-.085h-.683v2.695h.529v-1.023h.376l.546 1.023h.597l-.615-1.109a.752.752 0 00.081-.045.691.691 0 00.363-.483c.034-.103.034-.188.034-.222 0-.17-.051-.598-.529-.751zm-.462 1.139a8.44 8.44 0 00-.05.004h-.341v-.785h.154c.256 0 .375 0 .494.051.12.069.205.188.205.325 0 .102-.017.17-.068.239-.093.138-.241.152-.394.165z"
              fill="#fff"/>
    </g>
    <defs>
        <linearGradient id="paint2_linear" x1="107.303" y1="140.058" x2="107.303" y2="298.484" gradientUnits="userSpaceOnUse">
            <stop stop-color="#fff"/>
            <stop offset="1" stop-color="#fff" stop-opacity="0"/>
        </linearGradient>
        <linearGradient id="paint3_linear" x1="189.247" y1="2" x2="189.247" y2="160.426" gradientUnits="userSpaceOnUse">
            <stop stop-color="#fff"/>
            <stop offset="1" stop-color="#fff" stop-opacity="0"/>
        </linearGradient>
        <linearGradient id="paint4_linear" x1="272.972" y1="140.058" x2="272.972" y2="298.484" gradientUnits="userSpaceOnUse">
            <stop stop-color="#fff"/>
            <stop offset="1" stop-color="#fff" stop-opacity="0"/>
        </linearGradient>
        <radialGradient id="paint0_radial" cx="0" cy="0" r="1" gradientUnits="userSpaceOnUse" gradientTransform="matrix(319.99955 169.99995 -456.69625 859.66261 0 0)">
            <stop stop-color="#652B93"/>
            <stop offset="1" stop-color="#0F0C35"/>
        </radialGradient>
        <radialGradient id="paint1_radial" cx="0" cy="0" r="1" gradientUnits="userSpaceOnUse" gradientTransform="matrix(398.4004 219.34856 -453.33024 823.37876 -78.4 -49.35)">
            <stop stop-color="#DB6058"/>
            <stop offset=".858" stop-color="#7646E2"/>
        </radialGradient>
        <clipPath id="clip0">
            <rect width="320" height="170" rx="4" fill="#fff"/>
        </clipPath>
    </defs>
</svg>
