<svg width="320" height="170" fill="none" xmlns="http://www.w3.org/2000/svg">
    <g clip-path="url(#clip0)">
        <rect width="320" height="170" rx="4" fill="url(#paint1_radial)"/>
        <path fill-rule="evenodd" clip-rule="evenodd"
              d="M12.236 178.143c-5.29-2.988-5.29-7.832 0-10.82l44.298-25.024c5.29-2.988 13.865-2.988 19.155 0l44.297 25.024c5.29 2.988 5.29 7.832 0 10.82l-44.297 25.024c-5.29 2.988-13.866 2.988-19.155 0l-44.298-25.024zm82.383 46.538c-5.29-2.988-5.29-7.833 0-10.821l44.298-25.024c5.29-2.988 13.866-2.988 19.155 0l44.298 25.024c5.289 2.988 5.289 7.833 0 10.821l-44.298 25.024c-5.289 2.988-13.865 2.988-19.155 0l-44.298-25.024zm-82.383 35.717c-5.29 2.988-5.29 7.833 0 10.821l44.298 25.024c5.29 2.988 13.865 2.988 19.155 0l44.297-25.024c5.29-2.988 5.29-7.833 0-10.821l-44.297-25.023c-5.29-2.989-13.866-2.989-19.155 0l-44.298 25.023z"
              fill="url(#paint2_linear)" fill-opacity=".04"/>
        <path fill-rule="evenodd" clip-rule="evenodd"
              d="M94.18 40.086c-5.29-2.988-5.29-7.833 0-10.821L138.478 4.24c5.289-2.988 13.865-2.988 19.155 0l44.297 25.024c5.29 2.988 5.29 7.833 0 10.82L157.633 65.11c-5.29 2.989-13.866 2.989-19.155 0L94.18 40.087zm82.383 46.538c-5.289-2.989-5.289-7.833 0-10.821l44.298-25.024c5.29-2.988 13.866-2.988 19.155 0l44.298 25.024c5.289 2.988 5.289 7.832 0 10.82l-44.298 25.024c-5.289 2.988-13.865 2.988-19.155 0l-44.298-25.023zM94.18 122.34c-5.29 2.988-5.29 7.832 0 10.82l44.298 25.024c5.289 2.988 13.865 2.988 19.155 0l44.297-25.024c5.29-2.988 5.29-7.832 0-10.82l-44.297-25.024c-5.29-2.988-13.866-2.988-19.155 0L94.18 122.34z"
              fill="url(#paint3_linear)" fill-opacity=".04"/>
        <path fill-rule="evenodd" clip-rule="evenodd"
              d="M177.905 178.143c-5.289-2.988-5.289-7.832 0-10.82l44.298-25.024c5.29-2.988 13.866-2.988 19.155 0l44.298 25.024c5.289 2.988 5.289 7.832 0 10.82l-44.298 25.024c-5.289 2.988-13.865 2.988-19.155 0l-44.298-25.024zm82.384 46.538c-5.29-2.988-5.29-7.833 0-10.821l44.298-25.024c5.289-2.988 13.865-2.988 19.155 0l44.297 25.024c5.29 2.988 5.29 7.833 0 10.821l-44.297 25.024c-5.29 2.988-13.866 2.988-19.155 0l-44.298-25.024zm-82.384 35.717c-5.289 2.988-5.289 7.833 0 10.821l44.298 25.024c5.29 2.988 13.866 2.988 19.155 0l44.298-25.024c5.289-2.988 5.289-7.833 0-10.821l-44.298-25.023c-5.289-2.989-13.865-2.989-19.155 0l-44.298 25.023z"
              fill="url(#paint4_linear)" fill-opacity=".04"/>
    </g>
    <path fill-rule="evenodd" clip-rule="evenodd"
          d="M70.49 65.017c8.857-3.185 18.657 1.358 21.874 10.178v.002c.384 1.055.663 2.129.833 3.208 4.75 1.36 8.453 5.344 8.453 10.35 0 5.778-4.607 10.268-10.823 10.809l-.085.007h-7.523V95.62h7.348c4.457-.422 7.131-3.474 7.131-6.863 0-3.177-2.665-6.136-6.627-6.784l-1.554-.254-.1-1.57a12.927 12.927 0 00-.766-3.599c-2.465-6.757-9.995-10.268-16.823-7.813a13.045 13.045 0 00-8.145 8.648l-.512 1.76-1.793-.378a11.755 11.755 0 00-2.423-.254c-5.79 0-10.003 4.067-10.003 8.577 0 4.18 3.471 7.943 8.801 8.506h5.364v3.953h-5.561l-.097-.01C50.465 98.851 45 93.715 45 87.09c0-7.143 6.462-12.53 13.955-12.53.509 0 1.01.026 1.505.073a16.992 16.992 0 0110.03-9.615zm5.47 27.308v-1.318a2.635 2.635 0 10-5.27 0v1.318h5.27zm-7.905 0h-.635a2 2 0 00-2 2v9.174a2 2 0 002 2h11.81a2 2 0 002-2v-9.174a2 2 0 00-2-2h-.635v-1.318a5.27 5.27 0 00-10.54 0v1.318zm79.594-12.896c.253.094.513.142.782.142a1.98 1.98 0 001.423-.57 1.94 1.94 0 00.593-1.422c0-.553-.198-1.02-.593-1.4a1.94 1.94 0 00-1.423-.592 1.93 1.93 0 00-.782.166 1.892 1.892 0 00-.641.427c-.174.174-.316.38-.427.616a2.106 2.106 0 00-.142.783c0 .285.048.545.142.783.111.237.253.45.427.64.19.174.403.316.641.427zm-.759 1.826v11.62h3.106v-11.62h-3.106zm-23.502 11.62v-16.98h5.976a6.21 6.21 0 012.253.403 5.407 5.407 0 011.85 1.091 5.134 5.134 0 011.233 1.708c.301.648.451 1.367.451 2.158 0 .806-.15 1.541-.451 2.205-.3.648-.711 1.21-1.233 1.684a5.723 5.723 0 01-1.85 1.114 6.54 6.54 0 01-2.253.38h-2.774v6.236h-3.202zm6.024-9.273c.838 0 1.47-.237 1.897-.711.427-.474.64-1.02.64-1.636a2.4 2.4 0 00-.166-.878 1.742 1.742 0 00-.474-.735 2.125 2.125 0 00-.783-.522 2.987 2.987 0 00-1.114-.19h-2.822v4.672h2.822zm7.631-2.347h2.917v1.612h.19c.142-.284.332-.545.569-.782a4.21 4.21 0 01.782-.617c.301-.174.617-.308.949-.403a3.868 3.868 0 011.02-.142c.411 0 .758.04 1.043.118.3.08.553.182.759.308l-.83 2.822a2.544 2.544 0 00-.64-.213 3.078 3.078 0 00-.83-.095c-.427 0-.815.087-1.162.261a2.543 2.543 0 00-.902.688c-.237.3-.426.656-.569 1.067-.126.395-.189.83-.189 1.304v5.691h-3.107v-11.62zm14.561 0h3.533l2.893 7.398h.166l2.917-7.398h3.51l-5.004 11.62h-3.059l-4.956-11.62zm21.174 10.386h.189v1.233h3.059v-6.971c0-1.66-.474-2.91-1.422-3.747-.949-.854-2.324-1.28-4.127-1.28-2.134 0-3.818.774-5.051 2.323l2.253 1.542c.743-.902 1.652-1.352 2.727-1.352.727 0 1.336.205 1.826.616.49.396.735.902.735 1.518v.356a8.185 8.185 0 00-1.209-.356c-.49-.126-1.115-.19-1.873-.19-.68 0-1.313.095-1.898.285a4.349 4.349 0 00-1.494.783 3.68 3.68 0 00-.996 1.256c-.237.475-.355 1.012-.355 1.613 0 .585.11 1.122.332 1.612.221.49.529.91.925 1.257.395.348.853.617 1.375.807a4.739 4.739 0 001.707.308c.807 0 1.463-.158 1.969-.474a5.182 5.182 0 001.328-1.139zm-.949-3.889c.395.095.775.23 1.138.403 0 .348-.071.688-.213 1.02-.127.316-.316.6-.569.854-.237.237-.53.435-.878.593a2.973 2.973 0 01-1.138.213c-.506 0-.956-.142-1.352-.427a1.353 1.353 0 01-.569-1.138c0-.474.198-.87.593-1.186.411-.332.988-.498 1.731-.498a4.5 4.5 0 011.257.166zm7.716-3.841h-2.039v-2.656h2.039v-3.557h3.107v3.557h2.846v2.656h-2.846v4.505c0 .269.024.522.071.76.063.22.174.41.332.568.221.253.538.38.949.38.268 0 .482-.024.64-.072.158-.063.308-.142.451-.237l.877 2.728c-.364.173-.759.3-1.186.379a6.121 6.121 0 01-1.375.142 4.588 4.588 0 01-1.589-.26 3.53 3.53 0 01-1.162-.76c-.743-.71-1.115-1.723-1.115-3.035v-5.098zm16.944 8.465a6.478 6.478 0 002.182-2.3l-2.585-1.28c-.269.49-.641.9-1.115 1.233-.458.316-1.043.474-1.755.474a4.04 4.04 0 01-1.067-.142 3.322 3.322 0 01-.972-.498 3.474 3.474 0 01-.735-.854 3.541 3.541 0 01-.38-1.233h8.751a1.3 1.3 0 01.024-.26c0-.08.007-.167.023-.262v-.284c0-.87-.126-1.676-.379-2.42a5.391 5.391 0 00-1.115-1.92 4.887 4.887 0 00-1.826-1.28c-.727-.317-1.557-.475-2.49-.475-.885 0-1.699.166-2.442.498a6.006 6.006 0 00-1.897 1.352 5.899 5.899 0 00-1.257 1.968 6.256 6.256 0 00-.451 2.372c0 .9.15 1.73.451 2.49a6.096 6.096 0 001.304 1.944 6.095 6.095 0 001.945 1.304c.758.3 1.581.45 2.466.45 1.312 0 2.419-.291 3.32-.877zm-.854-7.493c.127.253.198.482.214.688h-5.621c.206-.68.562-1.21 1.067-1.59a2.846 2.846 0 011.755-.568c.475 0 .878.07 1.21.213.348.142.632.324.853.545.238.222.411.459.522.712zm21.447 5.027a6.545 6.545 0 01-2.134 2.42c-.901.616-2.032.924-3.391.924-.902 0-1.732-.15-2.49-.45a6.095 6.095 0 01-1.945-1.305 6.326 6.326 0 01-1.281-1.944c-.3-.76-.45-1.59-.45-2.49 0-.902.15-1.732.45-2.49a5.971 5.971 0 011.281-1.945 5.785 5.785 0 011.945-1.28c.758-.317 1.588-.475 2.49-.475 1.343 0 2.474.308 3.391.925a5.47 5.47 0 012.015 2.395l-2.845 1.186c-.269-.538-.617-.94-1.044-1.21-.411-.284-.932-.426-1.565-.426-.411 0-.798.079-1.162.237-.363.158-.688.38-.972.664a3.135 3.135 0 00-.64 1.043 3.81 3.81 0 00-.238 1.376c0 .505.08.964.238 1.375.158.411.371.759.64 1.043.284.285.609.506.972.664.364.158.751.237 1.162.237.648 0 1.194-.142 1.636-.426.459-.3.823-.728 1.091-1.28l2.846 1.232zm1.895-14.015v16.98h3.107v-16.98h-3.107zm11.153 4.98c.901 0 1.723.158 2.466.474a5.48 5.48 0 011.944 1.281 5.475 5.475 0 011.281 1.945c.316.758.474 1.588.474 2.49 0 .9-.158 1.73-.474 2.49a5.716 5.716 0 01-1.281 1.968 5.94 5.94 0 01-1.944 1.28c-.743.3-1.565.45-2.466.45-.902 0-1.732-.15-2.49-.45a6.301 6.301 0 01-1.945-1.28 6.253 6.253 0 01-1.281-1.968c-.3-.76-.45-1.59-.45-2.49 0-.902.15-1.732.45-2.49a5.971 5.971 0 011.281-1.945 5.785 5.785 0 011.945-1.28c.758-.317 1.588-.475 2.49-.475zm0 9.51c.395 0 .774-.072 1.138-.214.379-.158.711-.38.996-.664a2.96 2.96 0 00.664-1.043 3.56 3.56 0 00.261-1.4 3.56 3.56 0 00-.261-1.399 2.959 2.959 0 00-.664-1.043 2.772 2.772 0 00-.996-.64 2.826 2.826 0 00-1.138-.237 2.88 2.88 0 00-1.162.237 2.817 2.817 0 00-.973.64 3.251 3.251 0 00-.687 1.043 3.877 3.877 0 00-.238 1.4c0 .521.08.988.238 1.399a3.123 3.123 0 001.66 1.707c.363.142.751.213 1.162.213zm15.895.972h.19v1.517h2.916v-11.62h-3.106v5.692c0 .474-.063.925-.19 1.352a3.16 3.16 0 01-.521 1.09 2.66 2.66 0 01-.83.736c-.317.174-.688.26-1.115.26-.711 0-1.257-.197-1.636-.592-.364-.411-.546-1.036-.546-1.874v-6.663h-3.106v7.043c0 1.502.355 2.703 1.067 3.604.727.901 1.826 1.352 3.296 1.352.791 0 1.494-.166 2.111-.498a4.038 4.038 0 001.47-1.4zm14.308.118h-.19c-.285.49-.727.91-1.328 1.257-.601.348-1.344.522-2.229.522-.743 0-1.455-.15-2.135-.45a6.144 6.144 0 01-1.778-1.281 6.353 6.353 0 01-1.21-1.968c-.3-.76-.45-1.59-.45-2.49 0-.902.15-1.732.45-2.49a6.059 6.059 0 011.21-1.945 5.606 5.606 0 011.778-1.28 5.008 5.008 0 012.135-.475c.885 0 1.628.174 2.229.522.601.348 1.043.767 1.328 1.257h.19l-.19-1.66v-5.099h3.106v16.98h-2.916v-1.4zm-3.107-1.09c.411 0 .798-.072 1.162-.214.379-.158.711-.38.996-.664a3.24 3.24 0 00.688-1.043 3.56 3.56 0 00.261-1.4 3.56 3.56 0 00-.261-1.399 3.237 3.237 0 00-.688-1.043 2.772 2.772 0 00-.996-.64 2.884 2.884 0 00-1.162-.237c-.411 0-.806.079-1.186.237a3.14 3.14 0 00-1.66 1.707c-.174.411-.261.87-.261 1.376 0 .505.087.964.261 1.375a3.14 3.14 0 001.66 1.707c.38.158.775.237 1.186.237zm11.115 2.584c.601.19 1.281.285 2.04.285.743 0 1.415-.103 2.016-.308.616-.206 1.138-.483 1.565-.83a3.943 3.943 0 001.019-1.234c.238-.458.356-.94.356-1.446a3.09 3.09 0 00-.877-2.205c-.569-.633-1.447-1.091-2.633-1.376l-1.778-.427c-.474-.126-.854-.269-1.138-.427-.269-.158-.404-.371-.404-.64 0-.284.166-.514.498-.688.332-.19.72-.284 1.162-.284.427 0 .854.103 1.281.308.427.206.751.538.972.996l2.68-1.09c-.411-.95-1.051-1.637-1.921-2.064-.869-.442-1.857-.664-2.964-.664-.664 0-1.289.087-1.874.261a4.514 4.514 0 00-1.494.711 3.44 3.44 0 00-1.019 1.115c-.237.443-.356.949-.356 1.518 0 .506.103.948.308 1.328.206.38.467.703.783.972a4.5 4.5 0 001.043.664c.396.174.775.3 1.139.38l1.636.355c.68.158 1.154.34 1.423.546.284.19.427.442.427.758 0 .285-.166.53-.498.736-.332.205-.783.308-1.352.308a2.825 2.825 0 01-1.518-.427c-.443-.3-.798-.751-1.067-1.352l-2.775 1.186c.159.411.388.822.688 1.233.301.395.664.751 1.091 1.067.443.3.956.546 1.541.735z"
          fill="#fff"/>
    <defs>
        <linearGradient id="paint2_linear" x1="107.303" y1="140.058" x2="107.303" y2="298.484" gradientUnits="userSpaceOnUse">
            <stop stop-color="#fff"/>
            <stop offset="1" stop-color="#fff" stop-opacity="0"/>
        </linearGradient>
        <linearGradient id="paint3_linear" x1="189.247" y1="2" x2="189.247" y2="160.426" gradientUnits="userSpaceOnUse">
            <stop stop-color="#fff"/>
            <stop offset="1" stop-color="#fff" stop-opacity="0"/>
        </linearGradient>
        <linearGradient id="paint4_linear" x1="272.972" y1="140.058" x2="272.972" y2="298.484" gradientUnits="userSpaceOnUse">
            <stop stop-color="#fff"/>
            <stop offset="1" stop-color="#fff" stop-opacity="0"/>
        </linearGradient>
        <radialGradient id="paint0_radial" cx="0" cy="0" r="1" gradientUnits="userSpaceOnUse" gradientTransform="matrix(319.99955 169.99995 -456.69625 859.66261 0 0)">
            <stop stop-color="#652B93"/>
            <stop offset="1" stop-color="#0F0C35"/>
        </radialGradient>
        <radialGradient id="paint1_radial" cx="0" cy="0" r="1" gradientUnits="userSpaceOnUse" gradientTransform="matrix(398.4004 219.34856 -453.33024 823.37876 -78.4 -49.35)">
            <stop stop-color="#7747E3"/>
            <stop offset=".981" stop-color="#3891D5"/>
        </radialGradient>
        <clipPath id="clip0">
            <rect width="320" height="170" rx="4" fill="#fff"/>
        </clipPath>
    </defs>
</svg>
