<svg width="280" height="280" fill="none" xmlns="http://www.w3.org/2000/svg">
    <path fill-rule="evenodd" clip-rule="evenodd"
          d="M98.009 74.498C98.463 64.246 116.61 56 138.93 56s40.468 8.246 40.923 18.497l.009.001v12.465c-16.354 2.369-28.287 9.346-28.654 17.635h-.009v4.064a85.847 85.847 0 01-12.269.864c-3.763 0-7.407-.235-10.868-.673v-4.255l-.009-.001c-.378-8.523-12.986-15.66-30.054-17.824V74.497h.009zm30.054 43.167a86.227 86.227 0 0111.568-.765c4.018 0 7.901.267 11.569.765v-3.559a85.85 85.85 0 01-12.269.863 86.57 86.57 0 01-10.868-.673v3.369z"
          fill="#fff"/>
    <path fill-rule="evenodd" clip-rule="evenodd"
          d="M156.108 106.698c.454-10.252 18.602-18.498 40.923-18.498 22.32 0 40.467 8.246 40.922 18.497l.009.001v16.137c0 10.433-18.325 18.891-40.931 18.891-4.533 0-8.893-.34-12.969-.968v-3.96l-.009-.001c-.362-8.169-11.961-15.065-27.953-17.529v-12.57h.008zm27.944 76.434c4.078.628 8.442.969 12.979.969 22.606 0 40.931-8.458 40.931-18.891v-16.137l-.009-.001c.006.131.009.263.009.395 0 10.433-18.325 18.891-40.931 18.891-4.533 0-8.893-.34-12.969-.968v15.31c0 .144-.003.288-.01.432zm.01-21.188c4.076.628 8.436.968 12.969.968 22.606 0 40.931-8.458 40.931-18.892v-16.136l-.009-.001c.006.131.009.263.009.395 0 10.433-18.325 18.891-40.931 18.891-4.533 0-8.893-.34-12.969-.968v15.743zM93.8 140.961v-4.163h.008c.373-8.406 12.642-15.464 29.354-17.733v-12.367l-.008-.001C122.699 96.446 104.551 88.2 82.231 88.2s-40.469 8.246-40.922 18.498h-.01v16.137c0 10.433 18.326 18.891 40.932 18.891 4.018 0 7.9-.267 11.569-.765zm0 5.443a86.236 86.236 0 01-11.569.765c-22.573 0-40.879-8.434-40.931-18.846v15.697c0 10.434 18.325 18.892 40.931 18.892 4.018 0 7.9-.267 11.569-.765v-15.743zm0 21.189a86.235 86.235 0 01-11.569.765c-22.573 0-40.879-8.434-40.931-18.847v15.699c0 10.433 18.325 18.891 40.931 18.891 4.026 0 7.916-.268 11.591-.768a8.941 8.941 0 01-.022-.633v-15.107zm-52.491-39.709a9.031 9.031 0 00-.01.349v-.349h.01zm0 21.189a8.982 8.982 0 00-.01.349v-.349h.01z"
          fill="#fff"/>
    <path d="M179.863 198.109c0 10.434-18.326 18.891-40.932 18.891C116.326 217 98 208.543 98 198.109v-16.136c4.077 0 78.147-.512 81.863 0v16.136z" fill="#fff"/>
    <path d="M179.863 182.366c0 10.433-18.326 18.891-40.932 18.891-22.605 0-40.931-8.458-40.931-18.891 0-10.433 18.326-18.891 40.931-18.891 22.606 0 40.932 8.458 40.932 18.891z"
          fill="#22134A"/>
    <path d="M179.863 176.92c0 10.433-18.326 18.891-40.932 18.891-22.605 0-40.931-8.458-40.931-18.891v-16.137c4.077 0 78.147-.512 81.863 0v16.137z" fill="#fff"/>
    <path d="M179.863 161.178c0 10.433-18.326 18.891-40.932 18.891-22.605 0-40.931-8.458-40.931-18.891 0-10.434 18.326-18.892 40.931-18.892 22.606 0 40.932 8.458 40.932 18.892z"
          fill="#22134A"/>
    <path d="M179.863 155.734c0 10.434-18.326 18.891-40.932 18.891-22.605 0-40.931-8.457-40.931-18.891v-16.136c4.077 0 78.147-.512 81.863 0v16.136z" fill="#fff"/>
    <path d="M179.863 139.991c0 10.433-18.326 18.891-40.932 18.891-22.605 0-40.931-8.458-40.931-18.891 0-10.433 18.326-18.891 40.931-18.891 22.606 0 40.932 8.458 40.932 18.891z"
          fill="#fff"/>
</svg>
