<svg width="180" height="40" fill="none" xmlns="http://www.w3.org/2000/svg">
    <path d="M16.092 25.437c-.06-.18-.269-.299-.448-.239l-1.853.448a.384.384 0 00-.269.479c.926 3.078 3.676 5.05 6.634 5.14 1.584.06 3.049-.419 4.274-1.256a8.751 8.751 0 005.11 1.853c2.899.09 5.618-.986 7.62-3.078 2.033-2.092 3.198-5.05 3.318-8.308v-.09c.12-5.468-1.973-10.668-5.888-14.583C30.974 2.217 26.103.125 21.023.006c-3.885-.09-7.65.896-10.938 2.928a.936.936 0 00-.269 1.345l.449.658a.913.913 0 001.255.268 17.374 17.374 0 019.503-2.51c9.533.299 17.034 8.278 16.765 17.811v.06c-.21 5.14-3.646 8.786-8.158 8.637a5.864 5.864 0 01-3.288-1.106 6.914 6.914 0 001.196-4.154c-.03-1.793-.807-3.526-2.032-4.841l-6.485-6.904c.269-.12.567-.209.866-.239a4.18 4.18 0 014.602 2.51.39.39 0 00.479.21l1.823-.598a.377.377 0 00.239-.508 6.87 6.87 0 00-8.04-4.154 7.412 7.412 0 00-1.942.807c-1.524-1.225-3.377-1.942-5.349-2.002-2.959-.09-5.738 1.016-7.8 3.108-2.092 2.121-3.287 5.11-3.377 8.427-.12 3.885 1.166 7.92 3.706 11.685 3.496 5.17 9.384 8.368 15.779 8.547 3.974.12 7.8-.927 11.117-2.989a.966.966 0 00.269-1.344L30.945 35c-.3-.418-.837-.538-1.256-.269-2.869 1.793-6.186 2.66-9.593 2.57-5.498-.18-10.608-2.928-13.627-7.381-2.241-3.288-3.347-6.784-3.257-10.101.15-5.32 3.706-9.085 8.427-8.935 1.255.03 2.45.448 3.437 1.165a6.495 6.495 0 00-1.255 3.228c-.24 2.062.418 4.064 1.823 5.528l6.873 7.292a4.308 4.308 0 01-2.211.508c-1.913-.09-3.616-1.315-4.214-3.168zm.299-9.742c.06-.658.269-1.255.568-1.793l6.574 6.993c.777.807 1.255 1.882 1.285 2.988.03.807-.15 1.584-.508 2.271l-6.813-7.232a4.132 4.132 0 01-1.106-3.227zm39.716-3.824c1.494 0 3.018.299 4.662.926.15.06.21.21.18.33l-.479 1.613c-.06.15-.21.24-.358.18-1.345-.509-2.63-.778-3.766-.778-1.673 0-2.75.718-2.75 1.853 0 3.078 7.95 1.076 7.95 6.605 0 2.51-2.212 4.183-5.41 4.183-1.583 0-3.316-.328-5.199-1.076-.12-.06-.21-.209-.15-.328l.479-1.614c.06-.15.209-.239.358-.18 1.584.598 3.048.957 4.304.957 1.763 0 2.839-.747 2.839-1.942 0-3.168-7.98-1.196-7.98-6.605-.03-2.48 2.152-4.124 5.32-4.124zm8.995-.508c.867 0 1.524.568 1.644 1.405.15 1.046-.777 2.002-1.853 1.883-.837-.09-1.434-.748-1.434-1.644.03-.956.717-1.644 1.643-1.644zm-1.105 4.662h2.211c.15 0 .27.12.27.27v9.95c0 .15-.12.27-.27.27h-2.211a.268.268 0 01-.27-.27v-9.95c0-.15.12-.27.27-.27zm5.498-.002H71.2c.12 0 .239.09.269.21l.298 1.194s.03.03.03 0c.837-1.075 2.032-1.673 3.437-1.673 1.524 0 2.75.717 3.347 1.912h.03c.956-1.225 2.271-1.912 3.765-1.912 2.302 0 3.915 1.584 3.915 3.825v6.664c0 .15-.12.27-.269.27H83.81a.268.268 0 01-.27-.27v-6.216c0-1.165-.836-2.002-2.031-2.002-1.405 0-2.391 1.046-2.391 2.54v5.678c0 .15-.12.27-.269.27h-2.211a.268.268 0 01-.27-.27v-6.156c0-1.165-.926-2.122-2.091-2.092-1.375.03-2.331 1.076-2.331 2.54v5.678c0 .15-.12.27-.27.27h-2.21a.268.268 0 01-.27-.27v-9.951c.03-.12.15-.24.3-.24zm19.365 0h1.704c.12 0 .239.09.269.21l.269 1.105s.03.03.03 0c.776-1.016 1.972-1.584 3.346-1.584 2.84 0 4.812 2.271 4.812 5.499 0 3.227-2.002 5.498-4.812 5.498-1.255 0-2.36-.508-3.107-1.404h-.03v5.35c0 .149-.12.268-.27.268h-2.21a.268.268 0 01-.27-.269V16.292c0-.15.12-.27.27-.27zm4.901 1.883c-1.464 0-2.48 1.105-2.48 2.63v1.404c0 1.524 1.016 2.63 2.48 2.63 1.614 0 2.75-1.405 2.75-3.347 0-1.943-1.136-3.317-2.75-3.317zm10.4 5.589c0 .658.418 1.076 1.076 1.076.179 0 .418-.03.657-.09.15-.03.299.09.329.24l.209 1.553c.03.15-.06.27-.209.3a8.637 8.637 0 01-1.644.178c-1.912 0-3.138-1.165-3.138-2.988V11.691c0-.15.12-.27.269-.27h2.212c.149 0 .269.12.269.27v11.804h-.03zm8.487 4.183c-.956 2.391-2.271 3.527-4.184 3.527-.388 0-.866-.06-1.374-.15-.15-.03-.239-.18-.209-.299l.268-1.613c.03-.15.18-.24.329-.21.269.06.538.09.747.09.927 0 1.495-.508 2.003-1.733l.358-.927-4.214-9.98c-.059-.18.06-.36.24-.36h2.271c.119 0 .209.06.239.18l2.63 7.172c0 .03.03.03.03 0l2.57-7.172c.029-.12.149-.18.239-.18h2.271c.179 0 .329.18.239.36l-4.453 11.295zm6.515-16.256h2.211c.15 0 .269.12.269.269v5.618c0 .03.03.03.03 0 .747-1.016 1.972-1.554 3.377-1.554 2.391 0 4.094 1.644 4.094 4.005v6.484c0 .15-.119.27-.269.27h-2.211a.267.267 0 01-.269-.27v-6.036c0-1.285-.927-2.182-2.182-2.182-1.464 0-2.57 1.106-2.57 2.72v5.498c0 .15-.119.27-.269.27h-2.211a.267.267 0 01-.269-.27V11.691c-.03-.15.119-.27.269-.27zm17.303 4.332c2.988 0 5.05 2.152 5.05 5.32 0 .298-.03.597-.03.866 0 0 0 .03-.029.03h-7.621s-.03 0-.03.03c.209 1.673 1.524 2.75 3.317 2.75.837 0 1.763-.24 2.78-.748.149-.06.298 0 .358.12l.598 1.374c.06.12 0 .299-.12.359-1.404.657-2.779.926-3.944.926-3.377 0-5.708-2.271-5.708-5.498 0-3.228 2.211-5.53 5.379-5.53zm-2.63 4.542h5.021s.029 0 .029-.03c-.089-1.494-1.045-2.48-2.42-2.48-1.405 0-2.481.986-2.63 2.51-.03 0 0 0 0 0zm13.837-.328c.627 0 1.344.06 2.002.21 0 0 .03 0 .03-.03v-.538c0-1.076-.867-1.853-2.152-1.853-.986 0-2.062.209-3.198.657-.149.06-.298-.03-.358-.15l-.508-1.404c-.06-.15.03-.299.149-.358 1.465-.538 2.869-.777 4.214-.777 2.66 0 4.423 1.583 4.423 3.915v4.273c0 .448.269.747.717.747.09 0 .179 0 .269-.03.149-.03.269.09.299.24l.149 1.463c0 .15-.089.27-.209.3-.389.06-.777.119-1.225.119-1.076 0-1.883-.538-2.242-1.375h-.029a4.888 4.888 0 01-3.437 1.405c-2.182 0-3.736-1.375-3.736-3.288 0-2.24 1.793-3.526 4.842-3.526zm-.389 4.871c1.464 0 2.421-1.016 2.421-2.45v-.628a6.653 6.653 0 00-1.704-.209c-1.554 0-2.54.657-2.54 1.763 0 .867.807 1.524 1.823 1.524zm10.4-1.344c0 .658.418 1.076 1.076 1.076.179 0 .418-.03.657-.09.149-.03.299.09.329.24l.209 1.553c.03.15-.06.27-.209.3a8.637 8.637 0 01-1.644.178c-1.913 0-3.138-1.165-3.138-2.988V11.691c0-.15.12-.27.269-.27h2.212c.149 0 .269.12.269.27v11.804h-.03zm6.783-7.472h2.63c.15 0 .269.12.269.27v1.523c0 .15-.119.27-.269.27h-2.63s-.029 0-.029.03v4.99c0 .807.627 1.494 1.434 1.494.329 0 .717-.03 1.106-.12.149-.03.299.06.328.21l.269 1.524c.03.15-.059.269-.209.299a9.167 9.167 0 01-2.122.269c-2.091 0-3.556-1.375-3.556-3.377v-5.26s0-.03-.03-.03h-1.673a.267.267 0 01-.269-.269v-1.524c0-.15.119-.269.269-.269h1.673s.03 0 .03-.03v-2.809c0-.15.12-.269.269-.269h2.212c.149 0 .269.12.269.27l.029 2.808c0-.03 0 0 0 0zm5.32-4.601h2.211c.15 0 .269.12.269.269v5.618c0 .03.03.03.03 0 .747-1.016 1.973-1.554 3.377-1.554 2.391 0 4.094 1.644 4.094 4.005v6.484c0 .15-.119.27-.269.27h-2.211a.267.267 0 01-.269-.27v-6.036c0-1.285-.926-2.182-2.182-2.182-1.464 0-2.57 1.106-2.57 2.72v5.498c0 .15-.119.27-.269.27h-2.211a.267.267 0 01-.269-.27V11.691c0-.15.119-.27.269-.27z"
          fill="#000"/>
</svg>
