<svg width="148" height="32" fill="none" xmlns="http://www.w3.org/2000/svg">
    <path d="M16.836 25.217c0 .983-.172 1.818-.492 2.531a6.113 6.113 0 01-1.253 1.843c-.811.811-1.794 1.377-2.95 1.72a12.85 12.85 0 01-3.686.517c-1.13 0-2.237-.172-3.318-.492-1.082-.32-2.065-.884-2.95-1.67-.639-.566-1.155-1.279-1.573-2.115C.197 26.716 0 25.806 0 24.8h3.908c0 .516.098.983.32 1.425.196.443.466.811.786 1.13.442.468 1.008.763 1.647.91a8.244 8.244 0 001.867.221c.738 0 1.426-.073 2.065-.245s1.18-.467 1.573-.86c.246-.246.442-.517.59-.812.147-.295.245-.688.245-1.204 0-.762-.245-1.352-.761-1.72-.492-.394-1.082-.64-1.72-.762a15.894 15.894 0 00-2.336-.295 19.94 19.94 0 01-2.31-.27 7.872 7.872 0 01-2.04-.615 6.274 6.274 0 01-1.696-1.155c-.491-.492-.86-1.057-1.155-1.745-.295-.688-.418-1.45-.418-2.31 0-.836.172-1.573.492-2.262a7.604 7.604 0 011.327-1.867c.688-.689 1.573-1.23 2.654-1.623 1.082-.393 2.237-.59 3.49-.59 1.131 0 2.188.173 3.245.517 1.032.344 1.917.86 2.605 1.523a7.156 7.156 0 011.524 2.016c.393.737.59 1.573.614 2.458h-3.908a3.64 3.64 0 00-.27-1.106c-.172-.37-.369-.689-.64-.959-.343-.344-.81-.639-1.425-.836a5.8 5.8 0 00-1.77-.294c-.589 0-1.203.073-1.818.245a3.176 3.176 0 00-1.573.91 2.983 2.983 0 00-.516.761c-.123.27-.197.615-.197 1.008 0 .688.197 1.204.59 1.573.393.369.91.59 1.524.688.664.099 1.426.197 2.261.27a42.11 42.11 0 012.286.271c.786.123 1.524.32 2.236.64a6.634 6.634 0 011.844 1.203 5.286 5.286 0 011.229 1.82c.32.663.467 1.474.467 2.359zm16.491 6.243l-1.475-1.647c-.835.737-1.77 1.302-2.802 1.646a9.725 9.725 0 01-3.146.541 7.916 7.916 0 01-2.654-.442 6.991 6.991 0 01-2.212-1.254 5.759 5.759 0 01-1.5-1.99c-.368-.787-.564-1.672-.564-2.655 0-1.303.344-2.409 1.007-3.342.688-.934 1.573-1.721 2.704-2.41a11.586 11.586 0 01-.91-1.056 7.246 7.246 0 01-.712-1.057 5.749 5.749 0 01-.467-1.13 5.424 5.424 0 01-.172-1.328c0-.835.147-1.572.467-2.212a5.137 5.137 0 013.048-2.728c.688-.245 1.45-.344 2.236-.344.762 0 1.5.123 2.187.344a5.605 5.605 0 011.844 1.008c.54.442.958.983 1.278 1.622.32.64.467 1.377.467 2.212 0 .688-.099 1.303-.295 1.843a4.871 4.871 0 01-.836 1.475c-.344.442-.762.86-1.253 1.229-.492.369-1.008.737-1.573 1.057l3.637 3.957c.172-.344.295-.713.369-1.155.074-.443.123-.91.172-1.401.049-.467.049-.934.049-1.377v-1.18h5.407v2.925h-2.409a16.254 16.254 0 01-.32 2.458 6.654 6.654 0 01-.933 2.237l3.859 4.203c-.025-.05-4.498-.05-4.498-.05zm-8.48-9.266c-.343.22-.688.417-.982.614a3.515 3.515 0 00-.787.688 3.4 3.4 0 00-.54.86 3.2 3.2 0 00-.197 1.131c0 .54.098 1.008.32 1.426.196.417.49.761.835 1.032.344.27.737.491 1.204.614.443.148.934.197 1.426.197.639 0 1.253-.099 1.892-.27a3.187 3.187 0 001.622-1.033l-4.792-5.26zm3.663-6.808c0-.738-.222-1.278-.664-1.672-.442-.393-1.008-.59-1.671-.59-.615 0-1.155.172-1.622.541-.467.369-.713.91-.713 1.647 0 .344.074.639.197.934.123.295.294.565.467.835.196.27.393.517.639.762l.688.689c.32-.172.639-.37.958-.541.32-.197.615-.393.86-.64.246-.245.467-.515.615-.835.172-.32.246-.713.246-1.13zm27.675 1.818c0 1.008-.148 1.917-.467 2.753a5.687 5.687 0 01-1.401 2.114c-.615.59-1.401 1.056-2.31 1.376-.934.32-1.991.492-3.196.492h-4.423v7.496h-3.785v-20.94h8.208c1.205 0 2.262.172 3.196.491.934.32 1.695.787 2.31 1.352a5.687 5.687 0 011.4 2.114c.32.835.468 1.745.468 2.752zm-3.834.025c0-1.008-.295-1.819-.885-2.458-.59-.639-1.524-.934-2.802-.934h-4.276v6.759h4.276c1.278 0 2.212-.32 2.802-.934.59-.614.885-1.425.885-2.433zm26.273 14.206l-.443-2.31c-.147.294-.393.614-.712.933-.32.32-.713.615-1.155.86a8.148 8.148 0 01-1.549.64 6.257 6.257 0 01-1.819.245c-1.228 0-2.36-.172-3.416-.491-1.057-.344-1.99-.934-2.826-1.819a9.045 9.045 0 01-1.352-1.794 11.216 11.216 0 01-.836-2.016 12.864 12.864 0 01-.418-2.236 26.087 26.087 0 01-.122-2.458c0-.835.024-1.646.098-2.433.074-.786.197-1.5.393-2.187a8.782 8.782 0 01.836-1.991c.344-.64.81-1.229 1.376-1.794a7.65 7.65 0 012.876-1.819 9.442 9.442 0 013.342-.615c1.303 0 2.483.222 3.54.64 1.056.442 1.941 1.007 2.654 1.745a8.11 8.11 0 011.302 1.818c.344.688.566 1.475.615 2.409H77.1c-.05-.418-.147-.762-.32-1.057a6.672 6.672 0 00-.59-.86c-.737-.836-1.843-1.278-3.342-1.278a5.17 5.17 0 00-1.868.368c-.639.246-1.155.59-1.573 1.057a4.802 4.802 0 00-.86 1.303 6.69 6.69 0 00-.492 1.548 9.148 9.148 0 00-.22 1.647c-.025.54-.05 1.057-.05 1.524 0 .467.025.983.05 1.548.048.566.122 1.106.245 1.671.123.541.295 1.082.492 1.573.22.492.491.934.86 1.303.418.442.934.786 1.548 1.008.615.22 1.23.32 1.843.32.689 0 1.303-.1 1.82-.32a3.818 3.818 0 001.302-.885c.565-.59.934-1.204 1.106-1.868.172-.664.246-1.4.246-2.187h-4.891v-3.17h8.676v11.452c0-.024-2.458-.024-2.458-.024zm11.699-.025c-.369.074-.64.123-.811.172a5.75 5.75 0 01-.811.05c-1.254 0-2.261-.32-3.048-.984-.762-.639-1.155-1.696-1.155-3.17V10.077h3.711v16.762c0 .442.099.81.27 1.081.173.27.59.393 1.205.393.147 0 .27 0 .344-.024.074 0 .172-.025.27-.025.025.05.025 3.146.025 3.146zm15.655-7.643c0 1.302-.147 2.384-.467 3.268a8.848 8.848 0 01-1.327 2.409c-.541.639-1.253 1.204-2.187 1.671-.934.467-1.991.713-3.17.713-1.18 0-2.237-.246-3.171-.713-.934-.467-1.672-1.032-2.212-1.671a8.854 8.854 0 01-1.328-2.409c-.32-.884-.467-1.966-.467-3.268 0-1.303.148-2.384.467-3.27a8.854 8.854 0 011.328-2.408c.54-.639 1.253-1.204 2.212-1.671.933-.467 1.99-.713 3.17-.713s2.237.246 3.171.713c.934.467 1.671 1.032 2.187 1.671a8.848 8.848 0 011.327 2.409c.32.884.467 1.966.467 3.268zm-3.76 0c0-.738-.074-1.426-.197-2.114a3.883 3.883 0 00-.885-1.77 2.927 2.927 0 00-.983-.688c-.393-.197-.835-.27-1.352-.27-.516 0-.958.098-1.351.27a3.204 3.204 0 00-.983.688 3.775 3.775 0 00-.885 1.77c-.148.688-.197 1.376-.197 2.114 0 .737.074 1.425.197 2.113a3.69 3.69 0 00.885 1.745c.245.27.59.516.983.688.393.197.835.27 1.352.27.516 0 .958-.098 1.351-.27.393-.196.713-.417.983-.688a3.797 3.797 0 00.885-1.745c.148-.688.197-1.4.197-2.113zm20.793.024c0 1.45-.221 2.753-.688 3.883a6.768 6.768 0 01-2.065 2.827 5.137 5.137 0 01-1.647.934c-.614.245-1.327.344-2.089.344a6.542 6.542 0 01-2.457-.492 3.966 3.966 0 01-1.868-1.548l-.246 1.671h-3.195V10.126h3.686v7.078c.345-.442.885-.786 1.573-1.081.689-.295 1.5-.418 2.434-.418.786 0 1.499.098 2.113.32a5.654 5.654 0 011.647.909c1.892 1.524 2.802 3.81 2.802 6.857zm-3.761-.049c0-.664-.073-1.327-.196-1.99a4.16 4.16 0 00-.787-1.746c-.27-.344-.614-.614-1.007-.86-.394-.246-.885-.344-1.45-.344-.738 0-1.328.147-1.77.467a3.07 3.07 0 00-1.057 1.18 5.52 5.52 0 00-.516 1.597c-.098.59-.123 1.155-.123 1.696 0 .737.098 1.5.271 2.286.172.786.54 1.4 1.056 1.892.246.246.566.418.91.565.344.148.762.197 1.229.197.565 0 1.056-.123 1.45-.344.393-.246.737-.516 1.007-.86a4.16 4.16 0 00.787-1.745 9.145 9.145 0 00.196-1.991zm20.154 7.521c-.319.147-.59.245-.811.32-.221.073-.565.098-1.008.098-.811 0-1.425-.222-1.868-.64-.442-.442-.688-.933-.737-1.499-.344.64-.934 1.18-1.769 1.622-.836.443-1.795.688-2.901.688-.934 0-1.745-.122-2.433-.393-.688-.27-1.253-.614-1.72-1.057a4.603 4.603 0 01-1.057-1.523 4.6 4.6 0 01-.344-1.82c0-.736.123-1.376.393-1.94a4.65 4.65 0 011.106-1.475 4.999 4.999 0 011.647-.959 7.705 7.705 0 012.04-.418l4.522-.32V20.94c0-.737-.172-1.327-.516-1.745-.344-.442-1.032-.663-2.089-.663-.86 0-1.549.196-2.016.565-.491.368-.737.91-.786 1.622h-3.564c.049-.86.271-1.622.615-2.237a4.416 4.416 0 011.376-1.548 6.17 6.17 0 011.991-.91 9.369 9.369 0 012.408-.294c1.328 0 2.507.22 3.54.688 1.032.467 1.769 1.278 2.236 2.433a5.51 5.51 0 01.369 1.524c.049.54.073 1.057.073 1.573v5.702c0 .344.074.614.197.762.123.147.344.22.664.22.147 0 .27 0 .319-.024.049 0 .099 0 .148-.024l-.025 2.679zm-4.94-6.636l-3.908.295c-.565.049-1.081.22-1.524.565-.442.344-.688.811-.688 1.45 0 .59.221 1.057.664 1.4.442.345.958.517 1.524.517 1.155 0 2.113-.295 2.826-.91.737-.59 1.081-1.474 1.081-2.605.025-.024.025-.712.025-.712zm13.05 6.783c-.368.074-.639.123-.811.172a5.75 5.75 0 01-.811.05c-1.253 0-2.261-.32-3.047-.984-.762-.639-1.156-1.696-1.156-3.17V10.077h3.712v16.762c0 .442.098.81.27 1.081.172.27.59.393 1.204.393.148 0 .271 0 .344-.024.074 0 .172-.025.271-.025l.024 3.146z"
          fill="#D6002A"/>
    <path d="M147.514 0H.049v3.392h147.465V0z" fill="#000"/>
</svg>
