<svg width="320" height="170" fill="none" xmlns="http://www.w3.org/2000/svg">
    <g clip-path="url(#clip0)">
        <rect width="320" height="170" rx="4" fill="url(#paint1_radial)"/>
        <path fill-rule="evenodd" clip-rule="evenodd"
              d="M12.236 178.143c-5.29-2.988-5.29-7.832 0-10.82l44.298-25.024c5.29-2.988 13.865-2.988 19.155 0l44.298 25.024c5.289 2.988 5.289 7.832 0 10.82l-44.298 25.024c-5.29 2.988-13.866 2.988-19.155 0l-44.298-25.024zm82.383 46.538c-5.29-2.988-5.29-7.833 0-10.821l44.298-25.024c5.29-2.988 13.866-2.988 19.155 0l44.298 25.024c5.29 2.988 5.29 7.833 0 10.821l-44.298 25.024c-5.289 2.988-13.865 2.988-19.155 0l-44.298-25.024zm-82.383 35.717c-5.29 2.988-5.29 7.833 0 10.821l44.298 25.024c5.29 2.988 13.865 2.988 19.155 0l44.298-25.024c5.289-2.988 5.289-7.833 0-10.821l-44.298-25.023c-5.29-2.989-13.866-2.989-19.155 0l-44.298 25.023z"
              fill="url(#paint2_linear)" fill-opacity=".04"/>
        <path fill-rule="evenodd" clip-rule="evenodd"
              d="M94.18 40.086c-5.29-2.988-5.29-7.833 0-10.821L138.478 4.24c5.289-2.988 13.865-2.988 19.155 0l44.297 25.024c5.29 2.988 5.29 7.833 0 10.82L157.633 65.11c-5.29 2.989-13.866 2.989-19.155 0L94.18 40.087zm82.383 46.538c-5.289-2.989-5.289-7.833 0-10.821l44.298-25.024c5.29-2.988 13.866-2.988 19.155 0l44.298 25.024c5.289 2.988 5.289 7.832 0 10.82l-44.298 25.024c-5.289 2.988-13.865 2.988-19.155 0l-44.298-25.023zM94.18 122.34c-5.29 2.988-5.29 7.832 0 10.82l44.298 25.024c5.289 2.988 13.865 2.988 19.155 0l44.297-25.024c5.29-2.988 5.29-7.832 0-10.82l-44.297-25.024c-5.29-2.988-13.866-2.988-19.155 0L94.18 122.34z"
              fill="url(#paint3_linear)" fill-opacity=".04"/>
        <path fill-rule="evenodd" clip-rule="evenodd"
              d="M177.905 178.143c-5.289-2.988-5.289-7.832 0-10.82l44.298-25.024c5.29-2.988 13.866-2.988 19.155 0l44.298 25.024c5.289 2.988 5.289 7.832 0 10.82l-44.298 25.024c-5.289 2.988-13.865 2.988-19.155 0l-44.298-25.024zm82.384 46.538c-5.29-2.988-5.29-7.833 0-10.821l44.298-25.024c5.289-2.988 13.865-2.988 19.155 0l44.297 25.024c5.29 2.988 5.29 7.833 0 10.821l-44.297 25.024c-5.29 2.988-13.866 2.988-19.155 0l-44.298-25.024zm-82.384 35.717c-5.289 2.988-5.289 7.833 0 10.821l44.298 25.024c5.29 2.988 13.866 2.988 19.155 0l44.298-25.024c5.289-2.988 5.289-7.833 0-10.821l-44.298-25.023c-5.289-2.989-13.865-2.989-19.155 0l-44.298 25.023z"
              fill="url(#paint4_linear)" fill-opacity=".04"/>
        <path fill-rule="evenodd" clip-rule="evenodd"
              d="M135.106 76.244c0 1.317.152 2.385.417 3.168.303.783.682 1.637 1.213 2.563.189.284.265.57.265.818 0 .356-.227.712-.72 1.068l-2.387 1.495c-.341.214-.682.32-.985.32-.379 0-.758-.177-1.137-.498a11.095 11.095 0 01-1.364-1.673 27.04 27.04 0 01-1.175-2.1c-2.955 3.275-6.669 4.912-11.14 4.912-3.183 0-5.722-.854-7.578-2.563-1.857-1.708-2.804-3.986-2.804-6.834 0-3.026 1.136-5.482 3.448-7.333 2.311-1.85 5.38-2.776 9.283-2.776 1.289 0 2.615.107 4.017.285 1.402.178 2.842.462 4.357.783V65.28c0-2.705-.606-4.591-1.781-5.695-1.212-1.103-3.258-1.637-6.176-1.637-1.326 0-2.69.142-4.092.462-1.402.32-2.766.712-4.092 1.21-.607.25-1.061.392-1.327.464-.265.07-.454.106-.606.106-.53 0-.796-.356-.796-1.103v-1.744c0-.57.076-.997.266-1.246.189-.25.53-.498 1.061-.748 1.326-.64 2.917-1.174 4.774-1.601 1.857-.463 3.827-.677 5.911-.677 4.509 0 7.806.961 9.928 2.883 2.084 1.923 3.145 4.841 3.145 8.757v11.533h.075zm-15.384 5.41c1.251 0 2.539-.213 3.903-.64 1.364-.428 2.577-1.21 3.6-2.279.606-.676 1.061-1.423 1.288-2.278.228-.854.379-1.886.379-3.096v-1.496a33.493 33.493 0 00-3.486-.605 30.356 30.356 0 00-3.562-.213c-2.538 0-4.395.463-5.646 1.424-1.25.96-1.856 2.313-1.856 4.093 0 1.673.454 2.919 1.402 3.773.909.89 2.235 1.317 3.978 1.317zM150.15 85.5c-.683 0-1.137-.107-1.44-.356-.304-.214-.569-.712-.796-1.389l-8.905-27.515c-.227-.712-.341-1.174-.341-1.424 0-.57.303-.89.91-.89h3.713c.72 0 1.213.107 1.478.356.303.214.53.712.758 1.389l6.366 23.564 5.911-23.564c.189-.712.416-1.175.72-1.389.303-.213.833-.355 1.515-.355h3.032c.72 0 1.212.106 1.515.355.303.214.569.712.72 1.389l5.987 23.849 6.555-23.85c.228-.711.493-1.174.758-1.388.303-.213.796-.355 1.478-.355h3.524c.606 0 .947.284.947.89 0 .151-.027.303-.059.477l-.017.092a4.718 4.718 0 01-.265.89l-9.132 27.515c-.227.712-.492 1.175-.795 1.388-.304.214-.796.356-1.44.356h-3.259c-.72 0-1.213-.107-1.516-.356-.303-.249-.568-.712-.72-1.424l-5.873-22.959-5.835 22.924c-.19.712-.417 1.174-.72 1.424-.303.249-.834.356-1.516.356h-3.258zm48.69.96c-1.97 0-3.94-.213-5.835-.64-1.894-.427-3.372-.89-4.357-1.424-.607-.32-1.023-.676-1.175-.997a2.377 2.377 0 01-.227-.996v-1.816c0-.747.303-1.103.871-1.103.227 0 .455.035.682.107.147.046.341.121.562.207h.001l.384.149a21.68 21.68 0 004.169 1.246c1.515.284 2.993.427 4.509.427 2.387 0 4.244-.392 5.532-1.175 1.288-.783 1.97-1.922 1.97-3.382 0-.996-.341-1.815-1.023-2.491-.682-.677-1.97-1.282-3.827-1.851l-5.494-1.602c-2.766-.819-4.812-2.029-6.063-3.63-1.25-1.567-1.894-3.311-1.894-5.162 0-1.495.341-2.812 1.023-3.951a9.352 9.352 0 012.728-2.919c1.137-.819 2.425-1.424 3.941-1.85 1.515-.428 3.107-.606 4.774-.606.834 0 1.705.036 2.539.142.871.107 1.667.25 2.463.392.757.178 1.477.356 2.159.57.683.213 1.213.427 1.592.64.53.285.909.57 1.137.89.227.285.341.676.341 1.175v1.673c0 .747-.303 1.139-.872 1.139-.303 0-.796-.143-1.44-.427-2.16-.926-4.585-1.389-7.275-1.389-2.16 0-3.865.32-5.04.997-1.174.676-1.78 1.709-1.78 3.168 0 .997.378 1.851 1.136 2.527.758.677 2.16 1.353 4.168 1.958l5.381 1.602c2.728.819 4.699 1.958 5.873 3.417 1.175 1.46 1.743 3.132 1.743 4.983 0 1.53-.341 2.92-.985 4.13a9.732 9.732 0 01-2.766 3.132c-1.175.89-2.577 1.53-4.206 1.993-1.705.498-3.486.748-5.419.748zm7.162 17.3C193.536 112.409 175.423 117 159.85 117c-21.826 0-41.492-7.581-56.345-20.182-1.175-.997-.114-2.35 1.288-1.566 16.066 8.756 35.884 14.06 56.383 14.06 13.831 0 29.025-2.705 43.007-8.258 2.084-.89 3.865 1.281 1.819 2.705zm-9.397-6.016c4.054-.463 12.997-1.46 14.588.463 1.592 1.886-1.781 9.824-3.296 13.348-.455 1.068.53 1.495 1.553.676 6.669-5.268 8.412-16.267 7.048-17.868-1.364-1.567-13.073-2.92-20.196 1.78-1.099.747-.91 1.744.303 1.601z"
              fill="#fff"/>
    </g>
    <defs>
        <linearGradient id="paint2_linear" x1="107.303" y1="140.058" x2="107.303" y2="298.484" gradientUnits="userSpaceOnUse">
            <stop stop-color="#fff"/>
            <stop offset="1" stop-color="#fff" stop-opacity="0"/>
        </linearGradient>
        <linearGradient id="paint3_linear" x1="189.247" y1="2" x2="189.247" y2="160.426" gradientUnits="userSpaceOnUse">
            <stop stop-color="#fff"/>
            <stop offset="1" stop-color="#fff" stop-opacity="0"/>
        </linearGradient>
        <linearGradient id="paint4_linear" x1="272.972" y1="140.058" x2="272.972" y2="298.484" gradientUnits="userSpaceOnUse">
            <stop stop-color="#fff"/>
            <stop offset="1" stop-color="#fff" stop-opacity="0"/>
        </linearGradient>
        <radialGradient id="paint0_radial" cx="0" cy="0" r="1" gradientUnits="userSpaceOnUse" gradientTransform="matrix(319.99955 169.99995 -456.69625 859.66261 0 0)">
            <stop stop-color="#652B93"/>
            <stop offset="1" stop-color="#0F0C35"/>
        </radialGradient>
        <radialGradient id="paint1_radial" cx="0" cy="0" r="1" gradientUnits="userSpaceOnUse" gradientTransform="matrix(398.4004 219.34856 -453.33024 823.37876 -78.4 -49.35)">
            <stop stop-color="#DB6058"/>
            <stop offset=".858" stop-color="#7646E2"/>
        </radialGradient>
        <clipPath id="clip0">
            <rect width="320" height="170" rx="4" fill="#fff"/>
        </clipPath>
    </defs>
</svg>
