<svg width="400" height="400" fill="none" xmlns="http://www.w3.org/2000/svg">
    <path d="M284.5 306h33.187c36.538-3.2 61.463-29.138 61.463-60.663 0-29.837-24.413-54.662-56.463-59.937-.6-9.5-2.612-19.063-6.012-28.475-19.363-53.45-78.413-81.088-131.863-61.738-32.225 11.663-55.062 37.75-63.887 68.325a92.986 92.986 0 00-19.288-2.037C56.375 161.475 20 193.912 20 233.9c0 37.162 30.587 67.762 72.763 71.937H135"
          stroke="#fff" stroke-width="8" stroke-linecap="round"/>
    <path d="M267.947 294.013c0 14.905-26.18 26.988-58.474 26.988S151 308.918 151 294.013v-23.052c5.824 0 111.638-.732 116.947 0v23.052z" fill="#fff"/>
    <path d="M267.947 271.523c0 14.905-26.18 26.987-58.474 26.987S151 286.428 151 271.523c0-14.905 26.179-26.988 58.473-26.988s58.474 12.083 58.474 26.988z" fill="#22134A"/>
    <path d="M267.947 263.743c0 14.905-26.18 26.988-58.474 26.988S151 278.648 151 263.743v-23.052c5.824 0 111.638-.731 116.947 0v23.052z" fill="#fff"/>
    <path d="M267.947 241.254c0 14.905-26.18 26.988-58.474 26.988S151 256.159 151 241.254s26.179-26.987 58.473-26.987 58.474 12.082 58.474 26.987z" fill="#22134A"/>
    <path d="M267.947 233.478c0 14.905-26.18 26.987-58.474 26.987S151 248.383 151 233.478v-23.052c5.824 0 111.638-.732 116.947 0v23.052z" fill="#fff"/>
    <path d="M267.947 210.988c0 14.905-26.18 26.987-58.474 26.987S151 225.893 151 210.988C151 196.083 177.179 184 209.473 184s58.474 12.083 58.474 26.988z" fill="#fff"/>
</svg>
