<svg width="617" height="364" fill="none" xmlns="http://www.w3.org/2000/svg">
    <path fill-rule="evenodd" clip-rule="evenodd"
          d="M82.91 82.728c-5.29-2.988-5.29-7.833 0-10.82L206.234 2.24c5.289-2.988 13.865-2.988 19.155 0l123.324 69.666c5.29 2.988 5.29 7.833 0 10.82l-123.324 69.667c-5.29 2.988-13.866 2.988-19.155 0L82.91 82.728zm184.987 104.497c-5.29-2.988-5.29-7.832 0-10.82l123.324-69.666c5.289-2.988 13.865-2.988 19.155 0L533.7 176.405c5.29 2.988 5.29 7.832 0 10.82l-123.324 69.666c-5.29 2.988-13.866 2.988-19.155 0l-123.324-69.666zM82.91 280.903c-5.29 2.988-5.29 7.833 0 10.821l123.324 69.666c5.289 2.988 13.865 2.988 19.155 0l123.324-69.666c5.29-2.988 5.29-7.833 0-10.821l-123.324-69.666c-5.29-2.988-13.866-2.988-19.155 0L82.91 280.903z"
          fill="url(#paint0_linear)" fill-opacity=".04"/>
    <defs>
        <linearGradient id="paint0_linear" x1="308.305" y1="0" x2="308.305" y2="363.631" gradientUnits="userSpaceOnUse">
            <stop stop-color="#fff"/>
            <stop offset="1" stop-color="#fff" stop-opacity="0"/>
        </linearGradient>
    </defs>
</svg>
