<svg width="80" height="80" fill="none" xmlns="http://www.w3.org/2000/svg">
    <mask id="a" mask-type="alpha" maskUnits="userSpaceOnUse" x="0" y="0" width="80" height="80">
        <path fill="#E9E9E9" d="M0 0h80v80H0z"/>
    </mask>
    <g mask="url(#a)">
        <path d="M10.192 61.992c-1.533-.72-1.533-2.9 0-3.62l25.07-11.775a8 8 0 016.802 0l25.07 11.775c1.532.72 1.532 2.9 0 3.62l-25.07 11.775a8 8 0 01-6.802 0l-25.07-11.775z"
              stroke="url(#paint0_linear)" stroke-width="3"/>
        <path d="M10.192 50.564c-1.533-.72-1.533-2.9 0-3.62l25.07-11.775a8 8 0 016.802 0l25.07 11.774c1.532.72 1.532 2.9 0 3.62l-25.07 11.775a8 8 0 01-6.802 0l-25.07-11.774z"
              stroke="url(#paint1_linear)" stroke-width="3"/>
        <path d="M10.192 39.135c-1.533-.72-1.533-2.9 0-3.62l25.07-11.775a8 8 0 016.802 0l25.07 11.775c1.532.72 1.532 2.9 0 3.62L42.063 50.91a8 8 0 01-6.802 0l-25.07-11.775z"
              stroke="url(#paint2_linear)" stroke-width="3"/>
        <path fill-rule="evenodd" clip-rule="evenodd"
              d="M38.458 22.42h-4.906l1.083 1.687h4.968l1.022 1.686h2.167l-5.814-9.08a1.343 1.343 0 00-1.114-.572c-.466 0-.885.221-1.137.587l-5.792 9.065h2.168l4.76-7.546 2.595 4.174zm17.604-6.188v7.875h8.569l-1.084 1.686h-8.386a.94.94 0 01-.671-.274.901.901 0 01-.267-.641v-8.645h1.839zm-27.188 3.236a3.23 3.23 0 01-3.235 3.227h-.84l3.694 3.098h-2.67l-5.49-4.784 5.184.008c.855 0 1.541-.695 1.541-1.55 0-.854-.686-1.548-1.541-1.548h-6.084v7.874h-1.839v-9.56h8.045a3.237 3.237 0 013.235 3.235zM1.497 21.017a4.778 4.778 0 004.781 4.776h5.558c2.64 0 4.78-2.136 4.78-4.776 0-2.64-2.14-4.784-4.78-4.784H6.278a4.785 4.785 0 00-4.78 4.784zm13.31 0a3.09 3.09 0 01-3.095 3.09h-5.31a3.091 3.091 0 01-3.096-3.09 3.098 3.098 0 013.095-3.098h5.311a3.097 3.097 0 013.095 3.098zm27.04 0a4.78 4.78 0 004.783 4.776h5.67l1.083-1.686h-6.63a3.094 3.094 0 110-6.188h5.402l1.076-1.686h-6.6a4.787 4.787 0 00-4.785 4.784zm24.294.84a3.09 3.09 0 002.976 2.25h6.631l-1.084 1.686h-5.669a4.78 4.78 0 01-4.784-4.776 4.787 4.787 0 014.784-4.784h6.608l-1.091 1.686h-5.395a3.1 3.1 0 00-2.976 2.25h8.943l-1.083 1.687h-7.86zm11.286-5.45a.837.837 0 00-.84.84c0 .473.374.847.84.847a.84.84 0 00.847-.847.839.839 0 00-.847-.84zm1.076.848a1.073 1.073 0 11-2.144 0 1.073 1.073 0 112.144 0zm-.862-.603c-.077-.03-.145-.038-.313-.038h-.306v1.206h.237v-.458h.168l.244.458h.267l-.275-.497a.35.35 0 00.054-.03.31.31 0 00.145-.206c.015-.046.015-.084.015-.1a.337.337 0 00-.236-.335zm-.207.51l-.022.001h-.153v-.35h.069c.114 0 .168 0 .22.022a.17.17 0 01.093.145.161.161 0 01-.031.107c-.041.062-.108.068-.176.074z"
              fill="#5E308C"/>
    </g>
    <defs>
        <linearGradient id="paint0_linear" x1="38.474" y1="64.572" x2="38.474" y2="49.572" gradientUnits="userSpaceOnUse">
            <stop stop-color="#5E308C"/>
            <stop offset="1" stop-color="#CEC8D5" stop-opacity="0"/>
        </linearGradient>
        <linearGradient id="paint1_linear" x1="38.474" y1="53.143" x2="38.474" y2="38.143" gradientUnits="userSpaceOnUse">
            <stop stop-color="#5E308C"/>
            <stop offset="1" stop-color="#CEC8D5" stop-opacity="0"/>
        </linearGradient>
        <linearGradient id="paint2_linear" x1="38.474" y1="41.715" x2="38.474" y2="26.715" gradientUnits="userSpaceOnUse">
            <stop stop-color="#5E308C"/>
            <stop offset="1" stop-color="#CEC8D5" stop-opacity="0"/>
        </linearGradient>
    </defs>
</svg>
