<svg width="80" height="80" fill="none" xmlns="http://www.w3.org/2000/svg">
    <mask id="a" mask-type="alpha" maskUnits="userSpaceOnUse" x="0" y="0" width="80" height="80">
        <path fill="#E9E9E9" d="M0 0h80v80H0z"/>
    </mask>
    <g mask="url(#a)" stroke-width="3">
        <path d="M26.857 26.623c-1.533-.72-1.533-2.9 0-3.62l9.757-4.583a8 8 0 016.802 0l9.757 4.583c1.533.72 1.533 2.9 0 3.62l-9.757 4.583a8 8 0 01-6.802 0l-9.757-4.583z"
              stroke="#5E308C"/>
        <path d="M48.857 49.052c-1.533-.72-1.533-2.9 0-3.62l9.757-4.583a8 8 0 016.802 0l9.757 4.583c1.533.72 1.533 2.9 0 3.62l-9.757 4.583a8 8 0 01-6.802 0l-9.757-4.583z"
              stroke="url(#paint0_linear)"/>
        <path d="M48.857 43.037c-1.533-.72-1.533-2.9 0-3.62l9.757-4.583a8 8 0 016.802 0l9.757 4.583c1.533.72 1.533 2.9 0 3.62l-9.757 4.583a8 8 0 01-6.802 0l-9.757-4.583z"
              stroke="url(#paint1_linear)"/>
        <path d="M48.857 37.023c-1.533-.72-1.533-2.901 0-3.621l9.757-4.583a8 8 0 016.802 0l9.757 4.583c1.533.72 1.533 2.9 0 3.62l-9.757 4.583a8 8 0 01-6.802 0l-9.757-4.582z"
              stroke="#5E308C"/>
        <path d="M4.857 49.452c-1.533-.72-1.533-2.9 0-3.62l9.757-4.583a8 8 0 016.802 0l9.757 4.583c1.533.72 1.533 2.9 0 3.62l-9.757 4.583a8 8 0 01-6.802 0l-9.757-4.583z"
              stroke="url(#paint2_linear)"/>
        <path d="M4.857 43.437c-1.533-.72-1.533-2.9 0-3.62l9.757-4.583a8 8 0 016.802 0l9.757 4.583c1.533.72 1.533 2.9 0 3.62l-9.757 4.583a8 8 0 01-6.802 0l-9.757-4.583z"
              stroke="url(#paint3_linear)"/>
        <path d="M4.857 37.422c-1.533-.72-1.533-2.9 0-3.62l9.757-4.583a8 8 0 016.802 0l9.757 4.583c1.533.72 1.533 2.9 0 3.62l-9.757 4.583a8 8 0 01-6.802 0l-9.757-4.583z"
              stroke="#5E308C"/>
        <path d="M26.857 59.853c-1.534-.72-1.534-2.9 0-3.62l9.757-4.584a8 8 0 016.802 0l9.757 4.583c1.533.72 1.533 2.9 0 3.62l-9.757 4.583a8 8 0 01-6.802 0l-9.757-4.582z"
              stroke="url(#paint4_linear)"/>
        <path d="M26.857 53.838c-1.534-.72-1.534-2.9 0-3.62l9.757-4.584a8 8 0 016.802 0l9.757 4.583c1.533.72 1.533 2.9 0 3.62l-9.757 4.583a8 8 0 01-6.802 0l-9.757-4.582z"
              stroke="url(#paint5_linear)"/>
        <path d="M26.857 47.823c-1.534-.72-1.534-2.9 0-3.62l9.757-4.584a8 8 0 016.802 0l9.757 4.583c1.533.72 1.533 2.9 0 3.62l-9.757 4.584a8 8 0 01-6.802 0l-9.757-4.583z"
              stroke="#5E308C"/>
    </g>
    <defs>
        <linearGradient id="paint0_linear" x1="62" y1="51.5" x2="57.5" y2="43.5" gradientUnits="userSpaceOnUse">
            <stop stop-color="#5E308C"/>
            <stop offset="1" stop-color="#CEC8D5" stop-opacity="0"/>
        </linearGradient>
        <linearGradient id="paint1_linear" x1="62" y1="45.485" x2="57.5" y2="37.485" gradientUnits="userSpaceOnUse">
            <stop stop-color="#5E308C"/>
            <stop offset="1" stop-color="#CEC8D5" stop-opacity="0"/>
        </linearGradient>
        <linearGradient id="paint2_linear" x1="16.5" y1="50.5" x2="21" y2="43.5" gradientUnits="userSpaceOnUse">
            <stop stop-color="#5E308C"/>
            <stop offset="1" stop-color="#CEC8D5" stop-opacity="0"/>
        </linearGradient>
        <linearGradient id="paint3_linear" x1="16.5" y1="44.485" x2="21" y2="37.485" gradientUnits="userSpaceOnUse">
            <stop stop-color="#5E308C"/>
            <stop offset="1" stop-color="#CEC8D5" stop-opacity="0"/>
        </linearGradient>
        <linearGradient id="paint4_linear" x1="39.916" y1="60.353" x2="39.916" y2="52.458" gradientUnits="userSpaceOnUse">
            <stop stop-color="#5E308C"/>
            <stop offset="1" stop-color="#CEC8D5" stop-opacity="0"/>
        </linearGradient>
        <linearGradient id="paint5_linear" x1="39.916" y1="54.338" x2="39.916" y2="46.443" gradientUnits="userSpaceOnUse">
            <stop stop-color="#5E308C"/>
            <stop offset="1" stop-color="#CEC8D5" stop-opacity="0"/>
        </linearGradient>
    </defs>
</svg>
