<svg width="80" height="80" fill="none" xmlns="http://www.w3.org/2000/svg">
    <path d="M40 63.25c12.825 0 23.25-10.425 23.25-23.25S52.825 16.75 40 16.75 16.75 27.175 16.75 40 27.175 63.25 40 63.25zM22 49.263l9.45-.075a33.657 33.657 0 005.213 10.762C30.25 58.9 24.888 54.812 22 49.262zm11.85-15.638h11.775c.862 4.125.862 8.362.075 12.487l-11.85.075a30.82 30.82 0 010-12.562zm5.887 25.462c-2.362-3.037-4.087-6.375-5.137-9.9l10.313-.075a31.683 31.683 0 01-5.175 9.975zm3 .975a33.066 33.066 0 005.288-10.987L58.112 49a20.3 20.3 0 01-15.375 11.063zM60.25 40c0 2.1-.337 4.125-.9 6l-10.613.075c.75-4.125.713-8.325-.075-12.45H59.2A19.933 19.933 0 0160.25 40zm-2.325-9.375H47.95a34.483 34.483 0 00-5.213-10.688 20.163 20.163 0 0115.188 10.688zm-13.087 0h-10.2a30.983 30.983 0 015.1-9.712 30.99 30.99 0 015.1 9.712zM36.662 20.05c-2.363 3.262-4.088 6.825-5.138 10.575h-9.45c2.887-5.512 8.213-9.525 14.588-10.575zm-5.85 13.575a34.504 34.504 0 00-.038 12.563l-10.012.075A19.395 19.395 0 0119.75 40c0-2.212.375-4.388 1.05-6.375h10.012z"
          fill="#5E308C"/>
</svg>
