<svg width="360" height="200" fill="none" xmlns="http://www.w3.org/2000/svg">
    <mask id="a" mask-type="alpha" maskUnits="userSpaceOnUse" x="0" y="0" width="360" height="200">
        <rect width="360" height="200" rx="4" fill="url(#paint0_radial)"/>
    </mask>
    <g mask="url(#a)">
        <path fill="url(#paint1_radial)" d="M0 0h360v200H0z"/>
        <path fill-rule="evenodd" clip-rule="evenodd"
              d="M-42.815 69.332c-5.29-2.988-5.29-7.832 0-10.82l76.151-43.018c5.29-2.988 13.866-2.988 19.155 0l76.151 43.018c5.29 2.988 5.29 7.832 0 10.82l-76.15 43.018c-5.29 2.988-13.866 2.988-19.156 0l-76.15-43.018zm123.74 69.9c-5.29-2.988-5.29-7.832 0-10.82l76.151-43.018c5.289-2.988 13.865-2.988 19.155 0l76.151 43.018c5.289 2.988 5.289 7.832 0 10.82l-76.151 43.018c-5.29 2.988-13.866 2.988-19.155 0l-76.151-43.018zm-123.74 59.079c-5.29 2.988-5.29 7.833 0 10.821l76.151 43.018c5.29 2.988 13.866 2.988 19.155 0l76.151-43.018c5.29-2.988 5.29-7.833 0-10.821l-76.15-43.017c-5.29-2.988-13.866-2.988-19.156 0l-76.15 43.017z"
              fill="url(#paint2_linear)" fill-opacity=".14"/>
        <path fill-rule="evenodd" clip-rule="evenodd"
              d="M203.185 69.332c-5.289-2.988-5.289-7.832 0-10.82l76.151-43.018c5.29-2.988 13.866-2.988 19.155 0l76.151 43.018c5.29 2.988 5.29 7.832 0 10.82l-76.151 43.018c-5.289 2.988-13.865 2.988-19.155 0l-76.151-43.018zm123.74 69.9c-5.29-2.988-5.29-7.832 0-10.82l76.151-43.018c5.289-2.988 13.865-2.988 19.155 0l76.151 43.018c5.289 2.988 5.289 7.832 0 10.82l-76.151 43.018c-5.29 2.988-13.866 2.988-19.155 0l-76.151-43.018zm-123.74 59.079c-5.289 2.988-5.289 7.833 0 10.821l76.151 43.018c5.29 2.988 13.866 2.988 19.155 0l76.151-43.018c5.29-2.988 5.29-7.833 0-10.821l-76.151-43.017c-5.289-2.988-13.865-2.988-19.155 0l-76.151 43.017z"
              fill="url(#paint3_linear)" fill-opacity=".14"/>
    </g>
    <g clip-path="url(#clip0)" fill="#fff">
        <path d="M152.576 103.039l-1.107 3.163h-.093a22.523 22.523 0 00-1.076-3.101l-5.936-15.039h-5.814v23.969h3.845v-14.79c0-.93 0-1.985-.031-3.287-.03-.652-.092-1.148-.123-1.52h.093c.184.93.399 1.612.553 2.047l7.136 17.488h2.707l7.074-17.643c.154-.403.308-1.21.461-1.892h.093a222.221 222.221 0 00-.185 4.31v15.194h4.091V88h-5.598l-6.09 15.039zm15.563-8.28h3.999v17.179h-3.999V94.76zm2.03-7.255c-.676 0-1.23.248-1.691.682-.462.434-.708.992-.708 1.674 0 .652.246 1.21.708 1.644.461.434 1.015.651 1.691.651.677 0 1.262-.248 1.692-.651.461-.434.708-.992.708-1.644 0-.65-.247-1.209-.708-1.674-.4-.434-.984-.682-1.692-.682zm16.148 7.1a11.06 11.06 0 00-2.245-.247c-1.815 0-3.476.403-4.86 1.209-1.384.806-2.491 1.922-3.199 3.318-.738 1.426-1.107 3.07-1.107 4.961 0 1.643.369 3.101 1.077 4.434.707 1.302 1.691 2.357 3.014 3.07 1.261.713 2.737 1.085 4.398 1.085 1.907 0 3.537-.403 4.829-1.147l.031-.031v-3.721l-.154.124c-.584.434-1.261.806-1.937 1.023-.708.248-1.354.372-1.907.372-1.6 0-2.861-.465-3.753-1.488-.923-.992-1.384-2.357-1.384-4.062 0-1.768.461-3.163 1.415-4.186.953-1.023 2.214-1.55 3.752-1.55 1.292 0 2.615.434 3.814 1.302l.154.124v-3.938l-.031-.031c-.523-.217-1.107-.465-1.907-.62zm13.195-.123a4.2 4.2 0 00-2.706.96c-.677.559-1.138 1.365-1.538 2.326h-.031V94.76h-3.998v17.178h3.998v-8.775c0-1.489.308-2.729.984-3.628.677-.93 1.538-1.395 2.584-1.395.369 0 .738.093 1.2.155.43.124.738.248.953.403l.154.124V94.79l-.092-.031c-.277-.186-.831-.28-1.508-.28zm10.889-.093c-2.799 0-5.045.837-6.613 2.48-1.6 1.644-2.369 3.907-2.369 6.76 0 2.667.8 4.837 2.338 6.419 1.538 1.55 3.63 2.356 6.244 2.356 2.737 0 4.921-.837 6.49-2.512 1.599-1.674 2.368-3.906 2.368-6.666 0-2.729-.738-4.9-2.245-6.48-1.446-1.582-3.568-2.357-6.213-2.357zm3.199 13.209c-.739.961-1.907 1.426-3.353 1.426-1.446 0-2.614-.465-3.445-1.488-.83-.961-1.23-2.357-1.23-4.124 0-1.83.43-3.225 1.23-4.217.831-.992 1.969-1.489 3.414-1.489 1.415 0 2.522.466 3.322 1.427.8.961 1.23 2.356 1.23 4.186-.061 1.86-.399 3.318-1.168 4.279zm14.179-5.706c-1.261-.527-2.061-.93-2.43-1.271-.307-.31-.461-.744-.461-1.302 0-.465.184-.93.646-1.24.461-.31.984-.466 1.753-.466.677 0 1.384.125 2.061.31.676.187 1.291.466 1.784.838l.153.124V95.1l-.092-.031a10.99 10.99 0 00-1.815-.527 12.215 12.215 0 00-1.968-.186c-1.907 0-3.476.465-4.706 1.488-1.23.961-1.815 2.264-1.815 3.783 0 .806.123 1.519.4 2.108.277.59.677 1.148 1.23 1.613.554.434 1.354.93 2.461 1.395.923.403 1.63.713 2.061.961.43.249.707.528.923.745.153.248.246.558.246.961 0 1.147-.862 1.705-2.615 1.705-.676 0-1.384-.124-2.214-.403a8.53 8.53 0 01-2.246-1.147l-.153-.124v3.938l.092.031c.584.279 1.292.465 2.153.682.861.155 1.63.279 2.307.279 2.06 0 3.752-.465 4.952-1.488 1.23-.993 1.876-2.264 1.876-3.907 0-1.148-.308-2.171-.984-2.946-.892-.744-2-1.519-3.599-2.14zm15.133-7.503c-2.799 0-5.044.837-6.613 2.48-1.569 1.644-2.368 3.907-2.368 6.76 0 2.667.799 4.837 2.337 6.419 1.538 1.55 3.63 2.356 6.244 2.356 2.738 0 4.921-.837 6.49-2.512 1.599-1.674 2.368-3.906 2.368-6.666 0-2.729-.738-4.9-2.245-6.48-1.446-1.582-3.568-2.357-6.213-2.357zm3.168 13.209c-.738.961-1.907 1.426-3.353 1.426-1.476 0-2.614-.465-3.445-1.488-.83-.961-1.23-2.357-1.23-4.124 0-1.83.431-3.225 1.23-4.217.831-.992 1.969-1.489 3.415-1.489 1.384 0 2.522.466 3.321 1.427.8.961 1.231 2.356 1.231 4.186 0 1.86-.4 3.318-1.169 4.279zm26.667-9.52V94.76h-4.029v-5.086l-.123.031-3.814 1.148-.092.03v3.877h-6.029v-2.17c0-.993.246-1.768.677-2.264.43-.496 1.076-.745 1.876-.745.554 0 1.138.124 1.784.403l.154.094v-3.504l-.093-.031c-.553-.186-1.292-.31-2.245-.31-1.2 0-2.245.279-3.199.744a5.36 5.36 0 00-2.184 2.201c-.523.93-.799 1.985-.799 3.194v2.388h-2.799v3.286h2.799v13.892h4.029v-13.86h6.029v8.837c0 3.628 1.691 5.457 5.075 5.457.553 0 1.138-.093 1.691-.186.585-.124 1.015-.279 1.261-.403l.031-.031v-3.318l-.154.124a2.587 2.587 0 01-.83.372 2.8 2.8 0 01-.8.124c-.8 0-1.353-.186-1.753-.651-.369-.434-.554-1.147-.554-2.201v-8.124h4.091zM87 80h18.855v19.008H87V80zm20.823 0h18.855v19.008h-18.855V80zM87 100.992h18.855V120H87v-19.008zm20.823 0h18.855V120h-18.855v-19.008z"/>
    </g>
    <defs>
        <radialGradient id="paint0_radial" cx="0" cy="0" r="1" gradientUnits="userSpaceOnUse" gradientTransform="matrix(448.19979 258.05847 -545.84858 948.03794 -88.2 -58.059)">
            <stop stop-color="#7744CB"/>
            <stop offset=".693" stop-color="#461974"/>
        </radialGradient>
        <radialGradient id="paint1_radial" cx="0" cy="0" r="1" gradientUnits="userSpaceOnUse" gradientTransform="matrix(448.19979 258.05847 -545.84858 948.03794 -88.2 -58.059)">
            <stop stop-color="#DB6058"/>
            <stop offset=".858" stop-color="#7646E2"/>
        </radialGradient>
        <linearGradient id="paint2_linear" x1="104.783" y1="13.253" x2="104.783" y2="254.391" gradientUnits="userSpaceOnUse">
            <stop stop-color="#fff"/>
            <stop offset="1" stop-color="#fff" stop-opacity="0"/>
        </linearGradient>
        <linearGradient id="paint3_linear" x1="350.784" y1="13.253" x2="350.784" y2="254.391" gradientUnits="userSpaceOnUse">
            <stop stop-color="#fff"/>
            <stop offset="1" stop-color="#fff" stop-opacity="0"/>
        </linearGradient>
        <clipPath id="clip0">
            <path fill="#fff" transform="translate(87 80)" d="M0 0h185.778v40H0z"/>
        </clipPath>
    </defs>
</svg>
