<svg width="360" height="200" fill="none" xmlns="http://www.w3.org/2000/svg">
    <mask id="a" mask-type="alpha" maskUnits="userSpaceOnUse" x="0" y="0" width="360" height="200">
        <rect width="360" height="200" rx="4" fill="url(#paint0_radial)"/>
    </mask>
    <g mask="url(#a)">
        <path fill="url(#paint1_radial)" d="M0 0h360v200H0z"/>
        <path fill-rule="evenodd" clip-rule="evenodd"
              d="M-42.815 69.332c-5.29-2.988-5.29-7.832 0-10.82l76.151-43.018c5.29-2.988 13.866-2.988 19.155 0l76.151 43.018c5.29 2.988 5.29 7.832 0 10.82l-76.15 43.018c-5.29 2.988-13.866 2.988-19.156 0l-76.15-43.018zm123.74 69.9c-5.29-2.988-5.29-7.832 0-10.82l76.151-43.018c5.289-2.988 13.865-2.988 19.155 0l76.151 43.018c5.289 2.988 5.289 7.832 0 10.82l-76.151 43.018c-5.29 2.988-13.866 2.988-19.155 0l-76.151-43.018zm-123.74 59.079c-5.29 2.988-5.29 7.833 0 10.821l76.151 43.018c5.29 2.988 13.866 2.988 19.155 0l76.151-43.018c5.29-2.988 5.29-7.833 0-10.821l-76.15-43.017c-5.29-2.988-13.866-2.988-19.156 0l-76.15 43.017z"
              fill="url(#paint2_linear)" fill-opacity=".14"/>
        <path fill-rule="evenodd" clip-rule="evenodd"
              d="M203.185 69.332c-5.289-2.988-5.289-7.832 0-10.82l76.151-43.018c5.29-2.988 13.866-2.988 19.155 0l76.151 43.018c5.29 2.988 5.29 7.832 0 10.82l-76.151 43.018c-5.289 2.988-13.865 2.988-19.155 0l-76.151-43.018zm123.74 69.9c-5.29-2.988-5.29-7.832 0-10.82l76.151-43.018c5.289-2.988 13.865-2.988 19.155 0l76.151 43.018c5.289 2.988 5.289 7.832 0 10.82l-76.151 43.018c-5.29 2.988-13.866 2.988-19.155 0l-76.151-43.018zm-123.74 59.079c-5.289 2.988-5.289 7.833 0 10.821l76.151 43.018c5.29 2.988 13.866 2.988 19.155 0l76.151-43.018c5.29-2.988 5.29-7.833 0-10.821l-76.151-43.017c-5.289-2.988-13.865-2.988-19.155 0l-76.151 43.017z"
              fill="url(#paint3_linear)" fill-opacity=".14"/>
        <path d="M86.392 109h-2.795l6.28-17.454h3.044L99.2 109h-2.795l-4.934-14.284h-.137L86.392 109zm.469-6.835h9.068v2.216h-9.068v-2.216zm14.657 11.744v-18h2.488v2.122h.213a7.11 7.11 0 01.64-.946c.278-.358.664-.67 1.159-.937.494-.273 1.147-.41 1.96-.41 1.057 0 2 .268 2.83.802.829.534 1.48 1.304 1.951 2.31.478 1.005.716 2.215.716 3.63s-.236 2.628-.707 3.639c-.472 1.006-1.12 1.782-1.943 2.327-.824.54-1.765.81-2.821.81-.796 0-1.446-.134-1.952-.401-.5-.267-.892-.579-1.176-.937a7.205 7.205 0 01-.657-.955h-.153v6.946h-2.548zm2.497-11.454c0 .92.133 1.727.4 2.42.268.693.654 1.236 1.16 1.628.505.386 1.125.579 1.858.579.761 0 1.397-.201 1.909-.605.511-.409.897-.963 1.159-1.662.267-.699.4-1.485.4-2.36 0-.864-.13-1.64-.392-2.327-.255-.688-.642-1.23-1.159-1.628-.511-.398-1.15-.597-1.917-.597-.739 0-1.364.19-1.875.571-.506.381-.89.912-1.151 1.594s-.392 1.477-.392 2.387zm12.315 11.454v-18h2.489v2.122h.213a7.19 7.19 0 01.639-.946c.279-.358.665-.67 1.159-.937.495-.273 1.148-.41 1.96-.41 1.057 0 2 .268 2.83.802.83.534 1.48 1.304 1.952 2.31.477 1.005.716 2.215.716 3.63s-.236 2.628-.708 3.639c-.471 1.006-1.119 1.782-1.943 2.327-.824.54-1.764.81-2.821.81-.795 0-1.446-.134-1.952-.401-.5-.267-.892-.579-1.176-.937a7.092 7.092 0 01-.656-.955h-.153v6.946h-2.549zm2.497-11.454c0 .92.134 1.727.401 2.42.267.693.653 1.236 1.159 1.628.506.386 1.125.579 1.858.579.761 0 1.398-.201 1.909-.605.511-.409.898-.963 1.159-1.662.267-.699.401-1.485.401-2.36 0-.864-.131-1.64-.392-2.327-.256-.688-.642-1.23-1.159-1.628-.512-.398-1.151-.597-1.918-.597-.739 0-1.364.19-1.875.571-.506.381-.889.912-1.151 1.594-.261.682-.392 1.477-.392 2.387zm14.864-10.91V109h-2.548V91.546h2.548zm5.039 22.33a5.28 5.28 0 01-1.04-.094 3.32 3.32 0 01-.699-.187l.614-2.088c.699.193 1.284.207 1.756.042.477-.159.878-.662 1.201-1.508l.316-.87-4.79-13.26h2.727l3.316 10.158h.136l3.315-10.159 2.753.026-5.412 14.812c-.25.676-.568 1.247-.954 1.713a3.79 3.79 0 01-1.381 1.057c-.534.239-1.153.358-1.858.358zm24.588-17.966v2.045h-7.398V95.91h7.398zM157.949 109V94.392c0-.818.179-1.497.537-2.037a3.291 3.291 0 011.423-1.219 4.54 4.54 0 011.926-.409c.512 0 .949.043 1.313.128.363.08.633.153.809.222l-.596 2.062a14.05 14.05 0 00-.46-.12 2.624 2.624 0 00-.682-.076c-.62 0-1.063.154-1.33.46-.261.307-.392.75-.392 1.33V109h-2.548zm12.997.264c-1.227 0-2.298-.281-3.213-.844-.915-.562-1.625-1.349-2.131-2.36-.505-1.012-.758-2.194-.758-3.546 0-1.358.253-2.545.758-3.562.506-1.017 1.216-1.807 2.131-2.37.915-.562 1.986-.843 3.213-.843s2.298.28 3.213.843 1.625 1.353 2.131 2.37c.505 1.017.758 2.204.758 3.562 0 1.352-.253 2.534-.758 3.546-.506 1.011-1.216 1.798-2.131 2.36-.915.563-1.986.844-3.213.844zm.009-2.139c.795 0 1.454-.21 1.977-.631.523-.42.909-.98 1.159-1.679.256-.699.383-1.468.383-2.309 0-.836-.127-1.603-.383-2.301-.25-.705-.636-1.27-1.159-1.697-.523-.426-1.182-.639-1.977-.639-.802 0-1.466.213-1.995.64-.522.426-.912.991-1.167 1.696a6.78 6.78 0 00-.375 2.301c0 .841.125 1.61.375 2.309.255.699.645 1.259 1.167 1.679.529.421 1.193.631 1.995.631zm8.938 1.875V95.91h2.463v2.079h.136a3.164 3.164 0 011.262-1.662 3.608 3.608 0 012.062-.614 10.87 10.87 0 011.082.06v2.437a4.566 4.566 0 00-.545-.093 5.2 5.2 0 00-.784-.06c-.602 0-1.139.128-1.611.383a2.851 2.851 0 00-1.517 2.566V109h-2.548zm20.787 2.182l.068-21.818h1.602l-.068 21.818h-1.602zm4.5-15.051c-.091-.807-.466-1.432-1.125-1.875-.659-.45-1.489-.674-2.489-.674-.716 0-1.335.114-1.858.341-.523.222-.929.529-1.219.92a2.173 2.173 0 00-.426 1.322c0 .414.097.772.29 1.074.199.3.457.554.776.758.323.199.67.367 1.039.503.37.13.725.239 1.066.324l1.704.443a12.92 12.92 0 011.713.554c.586.233 1.128.54 1.628.92.5.381.904.853 1.21 1.415.313.563.469 1.236.469 2.02 0 .989-.256 1.867-.767 2.634-.506.767-1.241 1.372-2.207 1.815-.961.443-2.122.665-3.486.665-1.307 0-2.438-.208-3.392-.622-.955-.415-1.702-1.003-2.242-1.765-.539-.767-.838-1.676-.895-2.727h2.643c.051.631.255 1.156.613 1.577.364.415.827.724 1.389.929a5.62 5.62 0 001.867.298c.744 0 1.406-.116 1.986-.349.585-.239 1.045-.569 1.38-.989.336-.426.503-.923.503-1.491 0-.517-.148-.941-.443-1.27-.29-.33-.685-.603-1.185-.819a11.704 11.704 0 00-1.679-.571l-2.062-.562c-1.398-.381-2.506-.94-3.324-1.679-.813-.739-1.219-1.716-1.219-2.932 0-1.005.273-1.883.818-2.633.546-.75 1.284-1.333 2.216-1.748.932-.42 1.983-.63 3.154-.63 1.182 0 2.224.207 3.128.622.909.415 1.625.986 2.147 1.713.523.722.796 1.551.818 2.489h-2.539zm11.763 13.108c-1.17 0-2.216-.202-3.136-.605-.915-.404-1.639-.964-2.173-1.679-.529-.722-.813-1.557-.853-2.506h2.676c.034.517.208.966.52 1.346.318.375.733.665 1.245.87a4.559 4.559 0 001.704.307c.688 0 1.296-.12 1.824-.358.534-.239.952-.571 1.253-.998a2.54 2.54 0 00.452-1.491c0-.585-.151-1.099-.452-1.543-.296-.448-.73-.801-1.304-1.056-.568-.256-1.256-.384-2.063-.384h-1.474v-2.148h1.474c.648 0 1.216-.116 1.705-.35a2.792 2.792 0 001.159-.97c.278-.421.418-.913.418-1.475 0-.54-.123-1.009-.367-1.406a2.454 2.454 0 00-1.023-.946c-.437-.228-.954-.341-1.551-.341a4.03 4.03 0 00-1.593.315 2.95 2.95 0 00-1.194.886c-.306.381-.471.839-.494 1.373h-2.548c.028-.944.307-1.773.835-2.49.534-.715 1.239-1.275 2.114-1.678.875-.404 1.846-.605 2.914-.605 1.12 0 2.086.219 2.898.656.818.432 1.449 1.009 1.892 1.73a4.34 4.34 0 01.665 2.37c.006.977-.267 1.806-.818 2.488-.546.682-1.273 1.14-2.182 1.372v.137c1.159.176 2.057.636 2.693 1.38.642.745.96 1.668.955 2.77a4.318 4.318 0 01-.802 2.583c-.534.761-1.264 1.36-2.19 1.798-.926.432-1.986.648-3.179.648zm12.203-2.625l-.128.929c-.085.681-.23 1.392-.435 2.13a32.69 32.69 0 01-.622 2.071c-.21.637-.384 1.142-.52 1.517h-1.807c.074-.352.176-.829.307-1.431.131-.597.259-1.265.384-2.003.125-.739.218-1.492.281-2.259l.085-.954h2.455zm8.985 2.676c-1.347-.006-2.497-.361-3.452-1.066-.955-.704-1.685-1.73-2.19-3.076-.506-1.347-.759-2.969-.759-4.867 0-1.892.253-3.508.759-4.85.511-1.34 1.244-2.363 2.199-3.067.96-.705 2.107-1.057 3.443-1.057 1.335 0 2.48.355 3.434 1.065.955.705 1.685 1.727 2.191 3.068.511 1.336.767 2.95.767 4.841 0 1.904-.253 3.529-.759 4.875-.505 1.341-1.236 2.367-2.19 3.077-.955.705-2.102 1.057-3.443 1.057zm0-2.276c1.182 0 2.105-.576 2.77-1.73.67-1.153 1.005-2.821 1.005-5.003 0-1.449-.153-2.673-.46-3.673-.301-1.006-.736-1.767-1.304-2.284a2.852 2.852 0 00-2.011-.784c-1.176 0-2.1.58-2.77 1.738-.671 1.16-1.009 2.827-1.014 5.003 0 1.455.15 2.685.451 3.691.307 1 .742 1.758 1.304 2.275.563.512 1.239.767 2.029.767zm15.492 2.276c-1.347-.006-2.497-.361-3.452-1.066-.954-.704-1.684-1.73-2.19-3.076-.506-1.347-.759-2.969-.759-4.867 0-1.892.253-3.508.759-4.85.511-1.34 1.244-2.363 2.199-3.067.96-.705 2.108-1.057 3.443-1.057s2.48.355 3.435 1.065c.954.705 1.684 1.727 2.19 3.068.511 1.336.767 2.95.767 4.841 0 1.904-.253 3.529-.759 4.875-.505 1.341-1.235 2.367-2.19 3.077-.954.705-2.102 1.057-3.443 1.057zm0-2.276c1.182 0 2.105-.576 2.77-1.73.67-1.153 1.005-2.821 1.005-5.003 0-1.449-.153-2.673-.46-3.673-.301-1.006-.736-1.767-1.304-2.284a2.852 2.852 0 00-2.011-.784c-1.176 0-2.1.58-2.77 1.738-.67 1.16-1.009 2.827-1.014 5.003 0 1.455.15 2.685.451 3.691.307 1 .742 1.758 1.304 2.275.563.512 1.239.767 2.029.767zm15.492 2.276c-1.347-.006-2.497-.361-3.452-1.066-.954-.704-1.684-1.73-2.19-3.076-.506-1.347-.759-2.969-.759-4.867 0-1.892.253-3.508.759-4.85.511-1.34 1.244-2.363 2.199-3.067.96-.705 2.108-1.057 3.443-1.057s2.48.355 3.435 1.065c.954.705 1.684 1.727 2.19 3.068.511 1.336.767 2.95.767 4.841 0 1.904-.253 3.529-.758 4.875-.506 1.341-1.236 2.367-2.191 3.077-.954.705-2.102 1.057-3.443 1.057zm0-2.276c1.182 0 2.105-.576 2.77-1.73.67-1.153 1.006-2.821 1.006-5.003 0-1.449-.154-2.673-.461-3.673-.301-1.006-.735-1.767-1.304-2.284a2.852 2.852 0 00-2.011-.784c-1.176 0-2.099.58-2.77 1.738-.67 1.16-1.008 2.827-1.014 5.003 0 1.455.151 2.685.452 3.691.306 1 .741 1.758 1.304 2.275.562.512 1.238.767 2.028.767z"
              fill="#fff"/>
    </g>
    <defs>
        <radialGradient id="paint0_radial" cx="0" cy="0" r="1" gradientUnits="userSpaceOnUse" gradientTransform="matrix(448.19979 258.05847 -545.84858 948.03794 -88.2 -58.059)">
            <stop stop-color="#7744CB"/>
            <stop offset=".693" stop-color="#461974"/>
        </radialGradient>
        <radialGradient id="paint1_radial" cx="0" cy="0" r="1" gradientUnits="userSpaceOnUse" gradientTransform="matrix(448.19979 258.05847 -545.84858 948.03794 -88.2 -58.059)">
            <stop stop-color="#7747E3"/>
            <stop offset=".981" stop-color="#3891D5"/>
        </radialGradient>
        <linearGradient id="paint2_linear" x1="104.783" y1="13.253" x2="104.783" y2="254.391" gradientUnits="userSpaceOnUse">
            <stop stop-color="#fff"/>
            <stop offset="1" stop-color="#fff" stop-opacity="0"/>
        </linearGradient>
        <linearGradient id="paint3_linear" x1="350.784" y1="13.253" x2="350.784" y2="254.391" gradientUnits="userSpaceOnUse">
            <stop stop-color="#fff"/>
            <stop offset="1" stop-color="#fff" stop-opacity="0"/>
        </linearGradient>
    </defs>
</svg>
