<svg width="360" height="200" fill="none" xmlns="http://www.w3.org/2000/svg">
    <mask id="a" mask-type="alpha" maskUnits="userSpaceOnUse" x="0" y="0" width="360" height="200">
        <rect width="360" height="200" rx="4" fill="url(#paint0_radial)"/>
    </mask>
    <g mask="url(#a)">
        <path fill="url(#paint1_radial)" d="M0 0h360v200H0z"/>
        <path fill-rule="evenodd" clip-rule="evenodd"
              d="M-42.815 69.332c-5.29-2.988-5.29-7.832 0-10.82l76.151-43.018c5.29-2.988 13.866-2.988 19.155 0l76.151 43.018c5.29 2.988 5.29 7.832 0 10.82l-76.15 43.018c-5.29 2.988-13.866 2.988-19.156 0l-76.15-43.018zm123.74 69.9c-5.29-2.988-5.29-7.832 0-10.82l76.151-43.018c5.289-2.988 13.865-2.988 19.155 0l76.151 43.018c5.289 2.988 5.289 7.832 0 10.82l-76.151 43.018c-5.29 2.988-13.866 2.988-19.155 0l-76.151-43.018zm-123.74 59.079c-5.29 2.988-5.29 7.833 0 10.821l76.151 43.018c5.29 2.988 13.866 2.988 19.155 0l76.151-43.018c5.29-2.988 5.29-7.833 0-10.821l-76.15-43.017c-5.29-2.988-13.866-2.988-19.156 0l-76.15 43.017z"
              fill="url(#paint2_linear)" fill-opacity=".14"/>
        <path fill-rule="evenodd" clip-rule="evenodd"
              d="M203.185 69.332c-5.289-2.988-5.289-7.832 0-10.82l76.151-43.018c5.29-2.988 13.866-2.988 19.155 0l76.151 43.018c5.29 2.988 5.29 7.832 0 10.82l-76.151 43.018c-5.289 2.988-13.865 2.988-19.155 0l-76.151-43.018zm123.74 69.9c-5.29-2.988-5.29-7.832 0-10.82l76.151-43.018c5.289-2.988 13.865-2.988 19.155 0l76.151 43.018c5.289 2.988 5.289 7.832 0 10.82l-76.151 43.018c-5.29 2.988-13.866 2.988-19.155 0l-76.151-43.018zm-123.74 59.079c-5.289 2.988-5.289 7.833 0 10.821l76.151 43.018c5.29 2.988 13.866 2.988 19.155 0l76.151-43.018c5.29-2.988 5.29-7.833 0-10.821l-76.151-43.017c-5.289-2.988-13.865-2.988-19.155 0l-76.151 43.017z"
              fill="url(#paint3_linear)" fill-opacity=".14"/>
        <path d="M70.918 109V91.546H81.74v2.266h-8.19v5.319h7.415v2.258H73.55V109h-2.633zm16.406-17.454V109h-2.548V91.546h2.548zm7.238 17.744c-.83 0-1.58-.154-2.25-.46a3.795 3.795 0 01-1.594-1.356c-.386-.59-.58-1.315-.58-2.173 0-.739.142-1.346.427-1.824a3.142 3.142 0 011.15-1.133 5.989 5.989 0 011.62-.631c.596-.142 1.204-.25 1.823-.324l1.91-.221c.488-.063.843-.162 1.065-.299.221-.136.332-.358.332-.664v-.06c0-.744-.21-1.321-.63-1.73-.415-.41-1.035-.614-1.858-.614-.858 0-1.535.19-2.029.571-.488.375-.827.793-1.014 1.253l-2.395-.546c.284-.795.699-1.437 1.244-1.926a5.047 5.047 0 011.9-1.074 7.423 7.423 0 012.26-.34c.522 0 1.076.062 1.661.187.591.12 1.142.341 1.654.665.517.324.94.787 1.27 1.39.329.596.494 1.371.494 2.326V109h-2.489v-1.79h-.102c-.165.33-.412.654-.741.972-.33.318-.753.582-1.27.792-.517.211-1.137.316-1.858.316zm.554-2.046c.704 0 1.307-.139 1.807-.417.505-.279.889-.642 1.15-1.091.267-.455.4-.941.4-1.458v-1.687c-.09.091-.266.176-.528.256a8.485 8.485 0 01-.877.196c-.33.051-.651.099-.964.145-.312.039-.573.073-.784.102a6.272 6.272 0 00-1.355.315 2.333 2.333 0 00-.971.639c-.239.273-.358.637-.358 1.091 0 .631.233 1.108.699 1.432.465.318 1.06.477 1.78.477zm19.11-8.139l-2.31.41a2.726 2.726 0 00-.46-.844 2.282 2.282 0 00-.835-.657c-.353-.17-.793-.255-1.321-.255-.722 0-1.324.162-1.807.485-.483.319-.725.73-.725 1.236 0 .438.162.79.486 1.057.324.267.847.486 1.568.656l2.08.477c1.205.279 2.102.708 2.693 1.287.591.58.887 1.333.887 2.259 0 .784-.228 1.483-.682 2.096-.449.608-1.077 1.086-1.884 1.432-.801.347-1.73.52-2.787.52-1.466 0-2.662-.312-3.588-.937-.926-.631-1.494-1.526-1.704-2.685l2.463-.375c.153.642.468 1.128.946 1.457.477.324 1.099.486 1.866.486.835 0 1.503-.173 2.003-.52.5-.352.75-.781.75-1.287 0-.409-.153-.752-.46-1.031-.301-.278-.764-.488-1.389-.631l-2.216-.485c-1.222-.279-2.125-.722-2.711-1.33-.579-.608-.869-1.378-.869-2.31 0-.772.216-1.448.648-2.028.432-.58 1.028-1.031 1.79-1.355.761-.33 1.633-.494 2.616-.494 1.415 0 2.529.306 3.341.92.813.608 1.349 1.423 1.611 2.446zm5.606 2.122V109h-2.549V91.546h2.515v6.494h.162a3.755 3.755 0 011.406-1.68c.63-.414 1.454-.621 2.471-.621.898 0 1.682.184 2.353.554.676.369 1.198.92 1.568 1.653.375.727.562 1.636.562 2.727V109h-2.548v-8.02c0-.96-.247-1.704-.741-2.233-.495-.534-1.182-.801-2.063-.801a3.38 3.38 0 00-1.619.383 2.766 2.766 0 00-1.117 1.126c-.267.488-.4 1.079-.4 1.772zm23.906-4.167a5.314 5.314 0 00-.665-1.39 4.248 4.248 0 00-.98-1.056 4.117 4.117 0 00-1.304-.674 5.243 5.243 0 00-1.594-.23c-.983 0-1.869.253-2.659.759-.79.505-1.415 1.247-1.875 2.224-.454.972-.682 2.162-.682 3.571 0 1.415.231 2.611.691 3.588.46.978 1.091 1.719 1.892 2.225.801.505 1.713.758 2.736.758.948 0 1.775-.193 2.48-.579a4.046 4.046 0 001.645-1.637c.392-.71.588-1.545.588-2.505l.681.127h-4.994v-2.173h6.861v1.986c0 1.466-.313 2.739-.938 3.818a6.382 6.382 0 01-2.573 2.489c-1.091.585-2.341.878-3.75.878-1.58 0-2.966-.364-4.16-1.091-1.187-.728-2.113-1.759-2.778-3.094-.665-1.341-.997-2.932-.997-4.773 0-1.392.193-2.642.579-3.75.387-1.108.929-2.048 1.628-2.82a7.118 7.118 0 012.48-1.782c.955-.415 1.998-.622 3.128-.622a8.09 8.09 0 012.634.417 7.111 7.111 0 012.182 1.185 6.697 6.697 0 011.593 1.824c.421.699.705 1.474.853 2.327h-2.702zm5.959 11.94V95.91h2.464v2.079h.136a3.167 3.167 0 011.261-1.662 3.611 3.611 0 012.063-.614 10.834 10.834 0 011.082.06v2.437a4.566 4.566 0 00-.545-.093 5.21 5.21 0 00-.784-.06c-.603 0-1.14.128-1.611.383a2.851 2.851 0 00-1.517 2.566V109h-2.549zm9.211 0V95.91h2.549V109h-2.549zm1.287-15.11a1.62 1.62 0 01-1.142-.444 1.442 1.442 0 01-.468-1.074c0-.42.156-.778.468-1.074a1.603 1.603 0 011.142-.451c.443 0 .821.15 1.134.451.318.296.477.654.477 1.074 0 .415-.159.773-.477 1.074a1.592 1.592 0 01-1.134.443zm9.591 15.366c-1.057 0-2-.27-2.83-.81-.824-.545-1.472-1.321-1.943-2.327-.466-1.011-.699-2.224-.699-3.639 0-1.415.236-2.625.707-3.63.478-1.006 1.131-1.776 1.961-2.31.829-.534 1.769-.801 2.821-.801.812 0 1.465.136 1.96.409.5.267.886.58 1.159.937.278.358.494.674.648.946h.153v-6.486h2.548V109h-2.488v-2.037h-.213a6.805 6.805 0 01-.665.955c-.284.358-.676.67-1.176.937-.5.267-1.148.401-1.943.401zm.562-2.174c.733 0 1.352-.193 1.858-.579.511-.392.898-.935 1.159-1.628.267-.693.401-1.5.401-2.42 0-.91-.131-1.705-.392-2.387-.262-.682-.645-1.213-1.151-1.594-.506-.38-1.131-.57-1.875-.57-.767 0-1.406.198-1.918.596-.511.398-.897.94-1.159 1.628-.255.687-.383 1.463-.383 2.327 0 .875.13 1.661.392 2.36.261.699.648 1.253 1.159 1.662.517.404 1.153.605 1.909.605zM189.882 109l-4.841-17.454h2.77l3.401 13.516h.162l3.537-13.516h2.744l3.537 13.525h.162l3.392-13.525h2.778L202.675 109h-2.651l-3.673-13.074h-.137L192.541 109h-2.659zm24.192.264c-1.29 0-2.401-.275-3.333-.826-.926-.557-1.642-1.339-2.147-2.344-.5-1.012-.75-2.196-.75-3.554 0-1.341.25-2.523.75-3.546.505-1.022 1.21-1.82 2.113-2.395.909-.573 1.972-.86 3.188-.86.739 0 1.454.122 2.148.366a5.2 5.2 0 011.866 1.15c.551.523.986 1.202 1.304 2.038.318.829.477 1.838.477 3.025v.904h-10.406v-1.91h7.909c0-.67-.136-1.264-.409-1.78a3.096 3.096 0 00-1.15-1.236c-.489-.302-1.063-.452-1.722-.452-.716 0-1.341.176-1.875.528a3.542 3.542 0 00-1.227 1.364 3.94 3.94 0 00-.426 1.815v1.492c0 .875.153 1.619.46 2.233a3.328 3.328 0 001.304 1.406c.557.318 1.207.477 1.951.477a4.06 4.06 0 001.321-.204 2.875 2.875 0 001.032-.631c.289-.279.511-.622.664-1.031l2.412.434a4.367 4.367 0 01-1.039 1.867c-.495.528-1.117.94-1.867 1.236-.744.289-1.594.434-2.548.434zm8.648-.264V91.546h2.549v6.485h.153a7.19 7.19 0 01.639-.946c.279-.358.665-.67 1.159-.937.495-.273 1.148-.41 1.961-.41 1.056 0 2 .268 2.829.802.83.534 1.48 1.304 1.952 2.31.477 1.005.716 2.215.716 3.63s-.236 2.628-.708 3.639c-.471 1.006-1.119 1.782-1.943 2.327-.824.54-1.764.81-2.821.81-.795 0-1.446-.134-1.952-.401-.5-.267-.892-.579-1.176-.937a7.092 7.092 0 01-.656-.955h-.213V109h-2.489zm2.497-6.545c0 .92.134 1.727.401 2.42.267.693.653 1.236 1.159 1.628.506.386 1.125.579 1.858.579.761 0 1.398-.201 1.909-.605.512-.409.898-.963 1.159-1.662.267-.699.401-1.485.401-2.36 0-.864-.131-1.64-.392-2.327-.256-.688-.642-1.23-1.159-1.628-.512-.398-1.151-.597-1.918-.597-.739 0-1.364.19-1.875.571-.506.381-.889.912-1.15 1.594-.262.682-.393 1.477-.393 2.387zM237.541 109V95.91h2.548V109h-2.548zm1.287-15.11a1.62 1.62 0 01-1.142-.444 1.443 1.443 0 01-.469-1.074c0-.42.157-.778.469-1.074a1.603 1.603 0 011.142-.451c.443 0 .821.15 1.134.451.318.296.477.654.477 1.074 0 .415-.159.773-.477 1.074a1.592 1.592 0 01-1.134.443zm7.238 7.337V109h-2.548V95.91h2.446v2.13h.162a3.74 3.74 0 011.414-1.67c.648-.421 1.464-.631 2.447-.631.892 0 1.673.187 2.343.562.671.37 1.191.92 1.56 1.653.369.734.554 1.64.554 2.719V109h-2.548v-8.02c0-.949-.248-1.69-.742-2.224-.494-.54-1.173-.81-2.037-.81-.591 0-1.116.128-1.577.383a2.76 2.76 0 00-1.082 1.126c-.261.488-.392 1.079-.392 1.772zm15.605 8.063c-.829 0-1.579-.154-2.25-.46a3.798 3.798 0 01-1.594-1.356c-.386-.59-.579-1.315-.579-2.173 0-.739.142-1.346.426-1.824a3.142 3.142 0 011.151-1.133 5.982 5.982 0 011.619-.631c.596-.142 1.204-.25 1.824-.324l1.909-.221c.488-.063.844-.162 1.065-.299.222-.136.333-.358.333-.664v-.06c0-.744-.211-1.321-.631-1.73-.415-.41-1.034-.614-1.858-.614-.858 0-1.534.19-2.028.571-.489.375-.827.793-1.015 1.253l-2.395-.546c.285-.795.699-1.437 1.245-1.926a5.043 5.043 0 011.9-1.074 7.424 7.424 0 012.259-.34c.523 0 1.077.062 1.662.187a4.86 4.86 0 011.653.665c.517.324.941.787 1.27 1.39.33.596.494 1.371.494 2.326V109h-2.488v-1.79h-.103a3.59 3.59 0 01-.741.972c-.33.318-.753.582-1.27.792-.517.211-1.136.316-1.858.316zm.554-2.046c.705 0 1.307-.139 1.807-.417.506-.279.889-.642 1.151-1.091.267-.455.4-.941.4-1.458v-1.687c-.091.091-.267.176-.528.256a8.537 8.537 0 01-.878.196c-.33.051-.651.099-.963.145-.313.039-.574.073-.784.102a6.26 6.26 0 00-1.355.315 2.328 2.328 0 00-.972.639c-.239.273-.358.637-.358 1.091 0 .631.233 1.108.699 1.432.466.318 1.06.477 1.781.477zm9.301 1.756V95.91h2.463v2.079h.136a3.167 3.167 0 011.261-1.662 3.611 3.611 0 012.063-.614 10.834 10.834 0 011.082.06v2.437a4.566 4.566 0 00-.545-.093 5.21 5.21 0 00-.784-.06c-.603 0-1.139.128-1.611.383a2.851 2.851 0 00-1.517 2.566V109h-2.548zm19.02-9.895l-2.309.41a2.73 2.73 0 00-.461-.844 2.274 2.274 0 00-.835-.657c-.352-.17-.793-.255-1.321-.255-.722 0-1.324.162-1.807.485-.483.319-.724.73-.724 1.236 0 .438.162.79.486 1.057.323.267.846.486 1.568.656l2.079.477c1.205.279 2.103.708 2.693 1.287.591.58.887 1.333.887 2.259 0 .784-.227 1.483-.682 2.096-.449.608-1.077 1.086-1.883 1.432-.802.347-1.731.52-2.787.52-1.466 0-2.662-.312-3.588-.937-.927-.631-1.495-1.526-1.705-2.685l2.463-.375c.153.642.469 1.128.946 1.457.477.324 1.099.486 1.867.486.835 0 1.502-.173 2.002-.52.5-.352.75-.781.75-1.287 0-.409-.153-.752-.46-1.031-.301-.278-.764-.488-1.389-.631l-2.216-.485c-1.222-.279-2.125-.722-2.71-1.33-.58-.608-.87-1.378-.87-2.31 0-.772.216-1.448.648-2.028.432-.58 1.029-1.031 1.79-1.355.761-.33 1.634-.494 2.616-.494 1.415 0 2.529.306 3.341.92.813.608 1.35 1.423 1.611 2.446z"
              fill="#fff"/>
    </g>
    <defs>
        <radialGradient id="paint0_radial" cx="0" cy="0" r="1" gradientUnits="userSpaceOnUse" gradientTransform="matrix(448.19979 258.05847 -545.84858 948.03794 -88.2 -58.059)">
            <stop stop-color="#7744CB"/>
            <stop offset=".693" stop-color="#461974"/>
        </radialGradient>
        <radialGradient id="paint1_radial" cx="0" cy="0" r="1" gradientUnits="userSpaceOnUse" gradientTransform="matrix(448.19979 258.05847 -545.84858 948.03794 -88.2 -58.059)">
            <stop stop-color="#4E79E7"/>
            <stop offset=".981" stop-color="#0BBDB2"/>
        </radialGradient>
        <linearGradient id="paint2_linear" x1="104.783" y1="13.253" x2="104.783" y2="254.391" gradientUnits="userSpaceOnUse">
            <stop stop-color="#fff"/>
            <stop offset="1" stop-color="#fff" stop-opacity="0"/>
        </linearGradient>
        <linearGradient id="paint3_linear" x1="350.784" y1="13.253" x2="350.784" y2="254.391" gradientUnits="userSpaceOnUse">
            <stop stop-color="#fff"/>
            <stop offset="1" stop-color="#fff" stop-opacity="0"/>
        </linearGradient>
    </defs>
</svg>
