<svg width="179" height="28" fill="none" xmlns="http://www.w3.org/2000/svg">
    <path fill-rule="evenodd" clip-rule="evenodd"
          d="M21.126 7.343h-.082a7.184 7.184 0 00-9.833.747.126.126 0 00-.083.022 9.337 9.337 0 015.63 3.497l-4.173 4.172a3.599 3.599 0 10-4.76 4.76v.001c.465.21.967.32 1.477.32h7.195v.054l.01-.01h7.196a3.598 3.598 0 000-7.195v-.718a7.186 7.186 0 00-2.577-5.65zM3.664 24.703l-.01.04a9.287 9.287 0 005.648 1.88h7.16l.045.045h7.196c5.167.04 9.39-4.117 9.429-9.284a9.36 9.36 0 00-4.115-7.828 12.963 12.963 0 00-3.91-6.304l-.06.06.008-.072c-5.36-4.732-13.54-4.22-18.27 1.14a12.941 12.941 0 00-2.79 5.176c.066-.027.133-.049.2-.066A9.351 9.351 0 000 17.352a9.352 9.352 0 003.654 7.36l.01-.01z"
          fill="url(#paint0_linear)" fill-opacity=".7"/>
    <path d="M52.288 22.6a9.2 9.2 0 01-6.668-2.738 8.885 8.885 0 01-2.799-6.589 8.903 8.903 0 012.799-6.589 9.2 9.2 0 016.668-2.788 8.932 8.932 0 016.396 2.577l-1.798 1.83a6.482 6.482 0 00-4.598-1.82 6.411 6.411 0 00-4.75 2.021 6.607 6.607 0 00-1.95 4.8 6.593 6.593 0 001.95 4.738 6.78 6.78 0 009.46.112 5.37 5.37 0 001.384-3.143h-6.064v-2.585h8.58a8.37 8.37 0 01.101 1.577 8.09 8.09 0 01-2.213 5.963 8.607 8.607 0 01-6.498 2.635zm19.948-1.718a6.185 6.185 0 01-8.56 0 5.76 5.76 0 01-1.748-4.293 5.766 5.766 0 011.748-4.294 6.197 6.197 0 018.56 0 5.767 5.767 0 011.748 4.294 5.763 5.763 0 01-1.758 4.294h.01zm-6.67-1.686a3.273 3.273 0 004.627.151 3.602 3.602 0 001.162-2.759 3.61 3.61 0 00-1.01-2.617 3.326 3.326 0 00-4.801 0 3.609 3.609 0 00-1.01 2.618 3.6 3.6 0 001.02 2.607h.011zm19.826 1.686a6.185 6.185 0 01-8.56 0 5.76 5.76 0 01-1.748-4.293 5.766 5.766 0 011.748-4.294 6.185 6.185 0 018.56 0 5.766 5.766 0 011.748 4.294 5.752 5.752 0 01-1.748 4.294zm-6.668-1.686a3.273 3.273 0 004.627.151 3.602 3.602 0 001.162-2.759 3.609 3.609 0 00-1.01-2.617 3.324 3.324 0 00-4.8 0 3.609 3.609 0 00-1.01 2.618 3.6 3.6 0 001.02 2.607h.01zm15.317 8.8a5.3 5.3 0 01-3.365-1.072 6.202 6.202 0 01-1.96-2.485l2.302-.961a3.867 3.867 0 001.142 1.505 2.88 2.88 0 001.89.637 3.035 3.035 0 002.354-.91 3.694 3.694 0 00.84-2.626v-.87h-.092a3.855 3.855 0 01-3.162 1.365 5.49 5.49 0 01-4.042-1.758 5.818 5.818 0 01-1.728-4.234 5.876 5.876 0 011.728-4.264 5.476 5.476 0 014.042-1.768 4.355 4.355 0 011.86.413c.502.219.95.547 1.314.96h.091v-.96h2.506V21.73a6.275 6.275 0 01-1.607 4.7 5.66 5.66 0 01-4.113 1.567zm.183-7.76a2.94 2.94 0 002.283-1.01 3.736 3.736 0 00.92-2.588 3.816 3.816 0 00-.92-2.637 2.934 2.934 0 00-2.283-1.01A3.126 3.126 0 0091.86 14a3.688 3.688 0 00-1.01 2.617 3.62 3.62 0 001.01 2.588 3.132 3.132 0 002.364 1.03zm9.994-15.662v17.663h-2.637V4.574h2.637zm7.235 18.027a5.733 5.733 0 01-4.254-1.729 5.851 5.851 0 01-1.708-4.283 5.93 5.93 0 011.647-4.326 5.428 5.428 0 014.041-1.689 5.109 5.109 0 012.021.394 4.772 4.772 0 011.545 1.01c.382.369.72.778 1.01 1.224.235.376.434.771.597 1.181l.272.688-8.082 3.325a3.033 3.033 0 002.91 1.82 3.45 3.45 0 002.961-1.666l2.02 1.364a6.632 6.632 0 01-1.941 1.84 5.501 5.501 0 01-3.039.847zm-3.375-6.195l5.376-2.234a1.85 1.85 0 00-.839-.919 2.74 2.74 0 00-1.384-.354 3.12 3.12 0 00-2.172.961 3.203 3.203 0 00-.981 2.546z"
          fill="url(#paint1_linear)" fill-opacity=".7"/>
    <path d="M130.441 22.6a8.326 8.326 0 01-8.467-8.517 8.326 8.326 0 018.131-8.518c.111-.002.224-.002.336-.002a7.542 7.542 0 015.992 2.667l-1.456 1.414a5.495 5.495 0 00-4.526-2.073 6.18 6.18 0 00-4.497 1.798 6.314 6.314 0 00-1.83 4.71 6.307 6.307 0 001.83 4.71 6.173 6.173 0 004.497 1.797 6.423 6.423 0 005.051-2.365l1.456 1.456a7.947 7.947 0 01-2.798 2.132 8.518 8.518 0 01-3.719.792z"
          fill="url(#paint2_linear)" fill-opacity=".7"/>
    <path d="M140.868 22.237h-2.092V5.917h2.092v16.32z" fill="url(#paint3_linear)" fill-opacity=".7"/>
    <path d="M144.285 12.414a5.851 5.851 0 018.245 0 5.914 5.914 0 011.617 4.244 5.914 5.914 0 01-1.617 4.244 5.851 5.851 0 01-8.245 0 5.914 5.914 0 01-1.617-4.244 5.906 5.906 0 011.617-4.244zm1.555 7.176a3.528 3.528 0 004.986.137c.048-.044.093-.092.137-.137a4.045 4.045 0 001.082-2.93 4.029 4.029 0 00-1.082-2.93 3.528 3.528 0 00-4.986-.137c-.048.044-.093.092-.137.138a4.046 4.046 0 00-1.082 2.93 4.036 4.036 0 001.092 2.919l-.01.01z"
          fill="url(#paint4_linear)" fill-opacity=".7"/>
    <path d="M165.736 22.237h-2.02v-1.545h-.06a3.895 3.895 0 01-1.476 1.394 4.113 4.113 0 01-2.072.555 3.933 3.933 0 01-3.173-1.273 5.066 5.066 0 01-1.082-3.415v-6.871h2.093v6.487c0 2.082.919 3.123 2.758 3.123a2.57 2.57 0 002.123-1.01c.542-.687.831-1.54.819-2.415v-6.185h2.092v11.155h-.002z"
          fill="url(#paint5_linear)" fill-opacity=".7"/>
    <path d="M172.84 22.6a4.911 4.911 0 01-3.739-1.708 6.064 6.064 0 01-1.567-4.234 6.064 6.064 0 011.567-4.234 4.917 4.917 0 013.739-1.708 4.744 4.744 0 012.283.545c.619.31 1.142.781 1.516 1.364h.091l-.091-1.546V5.917h2.092v16.32h-2.02v-1.545h-.092a3.856 3.856 0 01-1.515 1.364 4.738 4.738 0 01-2.264.545zm.344-1.909A3.33 3.33 0 00175.7 19.6a4.097 4.097 0 001.011-2.942 4.1 4.1 0 00-1.011-2.941 3.413 3.413 0 00-5.051 0 4.048 4.048 0 00-1.011 2.93 4.049 4.049 0 001.011 2.929 3.327 3.327 0 002.535 1.116z"
          fill="url(#paint6_linear)" fill-opacity=".7"/>
    <defs>
        <linearGradient id="paint0_linear" x1="8.379" y1="7.93" x2="8.379" y2="24.713" gradientUnits="userSpaceOnUse">
            <stop stop-color="#fff"/>
            <stop offset="1" stop-color="#fff" stop-opacity=".5"/>
        </linearGradient>
        <linearGradient id="paint1_linear" x1="79.722" y1="3.882" x2="79.722" y2="28" gradientUnits="userSpaceOnUse">
            <stop stop-color="#fff"/>
            <stop offset="1" stop-color="#fff" stop-opacity=".5"/>
        </linearGradient>
        <linearGradient id="paint2_linear" x1="129.464" y1="5.549" x2="129.465" y2="22.602" gradientUnits="userSpaceOnUse">
            <stop stop-color="#fff"/>
            <stop offset="1" stop-color="#fff" stop-opacity=".5"/>
        </linearGradient>
        <linearGradient id="paint3_linear" x1="139.822" y1="5.908" x2="139.826" y2="22.237" gradientUnits="userSpaceOnUse">
            <stop stop-color="#fff"/>
            <stop offset="1" stop-color="#fff" stop-opacity=".5"/>
        </linearGradient>
        <linearGradient id="paint4_linear" x1="148.407" y1="10.709" x2="148.408" y2="22.601" gradientUnits="userSpaceOnUse">
            <stop stop-color="#fff"/>
            <stop offset="1" stop-color="#fff" stop-opacity=".5"/>
        </linearGradient>
        <linearGradient id="paint5_linear" x1="160.792" y1="11.075" x2="160.792" y2="22.65" gradientUnits="userSpaceOnUse">
            <stop stop-color="#fff"/>
            <stop offset="1" stop-color="#fff" stop-opacity=".5"/>
        </linearGradient>
        <linearGradient id="paint6_linear" x1="173.131" y1="5.907" x2="173.132" y2="22.601" gradientUnits="userSpaceOnUse">
            <stop stop-color="#fff"/>
            <stop offset="1" stop-color="#fff" stop-opacity=".5"/>
        </linearGradient>
    </defs>
</svg>
