<svg width="179" height="28" fill="none" xmlns="http://www.w3.org/2000/svg">
    <path d="M21.024 7.343h1.01l2.88-2.88.141-1.223c-5.36-4.732-13.54-4.22-18.271 1.14a12.941 12.941 0 00-2.788 5.176c.32-.131.676-.153 1.01-.06l5.76-.95s.292-.485.445-.456a7.184 7.184 0 019.833-.747h-.02z"
          fill="#5E308C"/>
    <path d="M29.017 9.556a12.963 12.963 0 00-3.91-6.304l-4.041 4.04a7.186 7.186 0 012.637 5.7v.719a3.598 3.598 0 010 7.195h-7.196l-.718.728v4.316l.718.718h7.196a9.357 9.357 0 009.429-9.284 9.36 9.36 0 00-4.115-7.828z"
          fill="#5E308C"/>
    <path d="M9.302 26.622h7.195v-5.76H9.302a3.582 3.582 0 01-1.486-.324l-1.01.315-2.9 2.88-.252 1.01a9.287 9.287 0 005.648 1.88z" fill="#5E308C"/>
    <path d="M9.302 7.94A9.354 9.354 0 000 17.351a9.352 9.352 0 003.654 7.361l4.172-4.173a3.599 3.599 0 012.962-6.557c.797.36 1.435 1 1.797 1.798l4.173-4.172a9.336 9.336 0 00-7.456-3.67zM52.288 22.6a9.2 9.2 0 01-6.668-2.738 8.884 8.884 0 01-2.798-6.589 8.903 8.903 0 012.798-6.589 9.2 9.2 0 016.668-2.788 8.932 8.932 0 016.396 2.577l-1.798 1.83a6.482 6.482 0 00-4.598-1.82 6.411 6.411 0 00-4.749 2.021 6.607 6.607 0 00-1.951 4.8 6.593 6.593 0 001.951 4.738 6.78 6.78 0 009.459.112 5.37 5.37 0 001.384-3.143h-6.064v-2.585h8.58a8.37 8.37 0 01.101 1.577 8.09 8.09 0 01-2.213 5.963 8.607 8.607 0 01-6.498 2.635zm19.948-1.718a6.185 6.185 0 01-8.56 0 5.76 5.76 0 01-1.748-4.293 5.767 5.767 0 011.748-4.294 6.197 6.197 0 018.56 0 5.767 5.767 0 011.748 4.294 5.762 5.762 0 01-1.758 4.294h.01zm-6.67-1.686a3.273 3.273 0 004.628.151c.051-.05.103-.1.15-.151a3.602 3.602 0 001.011-2.607 3.609 3.609 0 00-1.01-2.618 3.326 3.326 0 00-4.801 0 3.61 3.61 0 00-1.01 2.618 3.6 3.6 0 001.02 2.607h.012zm19.826 1.686a6.185 6.185 0 01-8.56 0 5.76 5.76 0 01-1.748-4.293 5.767 5.767 0 011.748-4.294 6.185 6.185 0 018.56 0 5.766 5.766 0 011.748 4.294 5.752 5.752 0 01-1.748 4.294zm-6.668-1.686a3.273 3.273 0 004.628.151c.051-.05.103-.1.15-.151a3.602 3.602 0 001.011-2.607 3.609 3.609 0 00-1.01-2.618 3.324 3.324 0 00-4.8 0 3.61 3.61 0 00-1.01 2.618 3.6 3.6 0 001.02 2.607h.01zm15.317 8.8a5.3 5.3 0 01-3.365-1.072 6.203 6.203 0 01-1.96-2.485l2.303-.961c.25.589.642 1.106 1.141 1.505a2.88 2.88 0 001.89.637 3.035 3.035 0 002.354-.909 3.695 3.695 0 00.84-2.627v-.87h-.092a3.855 3.855 0 01-3.162 1.365c-1.534.004-3-.633-4.041-1.758a5.817 5.817 0 01-1.729-4.234 5.875 5.875 0 011.728-4.264 5.475 5.475 0 014.042-1.768 4.354 4.354 0 011.86.413c.503.219.95.547 1.314.96h.091v-.96h2.506V21.73a6.276 6.276 0 01-1.607 4.7 5.659 5.659 0 01-4.112 1.567zm.184-7.76a2.94 2.94 0 002.283-1.01 3.736 3.736 0 00.919-2.588 3.816 3.816 0 00-.92-2.637 2.934 2.934 0 00-2.282-1.01A3.126 3.126 0 0091.86 14a3.688 3.688 0 00-1.01 2.618 3.62 3.62 0 001.01 2.587 3.132 3.132 0 002.365 1.03zm9.993-15.662v17.663h-2.637V4.574h2.637zm7.236 18.027a5.732 5.732 0 01-4.254-1.729 5.848 5.848 0 01-1.709-4.283 5.93 5.93 0 011.647-4.326 5.428 5.428 0 014.041-1.689 5.109 5.109 0 012.021.394 4.75 4.75 0 011.545 1.01c.382.369.72.778 1.01 1.224.235.376.434.771.597 1.181l.273.688-8.083 3.325a3.033 3.033 0 002.91 1.82 3.45 3.45 0 002.961-1.666l2.021 1.364a6.643 6.643 0 01-1.941 1.84 5.503 5.503 0 01-3.039.847zm-3.375-6.195l5.375-2.234a1.85 1.85 0 00-.839-.919 2.74 2.74 0 00-1.384-.354 3.12 3.12 0 00-2.172.961 3.199 3.199 0 00-.98 2.546zm22.362 6.194a8.326 8.326 0 01-8.467-8.517 8.327 8.327 0 018.131-8.518c.111-.002.224-.002.336-.002a7.542 7.542 0 015.992 2.667l-1.456 1.414a5.494 5.494 0 00-4.526-2.073 6.18 6.18 0 00-4.497 1.798 6.314 6.314 0 00-1.83 4.71 6.307 6.307 0 001.83 4.71 6.173 6.173 0 004.497 1.797 6.426 6.426 0 005.052-2.365l1.455 1.456a7.947 7.947 0 01-2.798 2.132 8.517 8.517 0 01-3.719.792zm10.427-.363h-2.092V5.917h2.092v16.32zm3.417-9.823a5.851 5.851 0 018.245 0 5.914 5.914 0 011.617 4.244 5.914 5.914 0 01-1.617 4.244 5.851 5.851 0 01-8.245 0 5.914 5.914 0 01-1.617-4.244 5.906 5.906 0 011.617-4.244zm1.555 7.176a3.528 3.528 0 004.986.137c.048-.044.093-.092.137-.137a4.045 4.045 0 001.082-2.93 4.029 4.029 0 00-1.082-2.93 3.528 3.528 0 00-5.123 0 4.045 4.045 0 00-1.082 2.93 4.036 4.036 0 001.092 2.92l-.01.01zm19.897 2.647h-2.021v-1.545h-.06a3.895 3.895 0 01-1.476 1.394 4.114 4.114 0 01-2.072.555 3.931 3.931 0 01-3.172-1.273 5.056 5.056 0 01-1.082-3.415v-6.871h2.092v6.487c0 2.082.919 3.123 2.759 3.123a2.566 2.566 0 002.122-1.01 3.81 3.81 0 00.819-2.415v-6.185h2.093v11.155h-.002zm7.103.363a4.911 4.911 0 01-3.739-1.708 6.064 6.064 0 01-1.567-4.234 6.063 6.063 0 011.567-4.234 4.917 4.917 0 013.739-1.708 4.743 4.743 0 012.283.545c.619.31 1.142.781 1.516 1.364h.091l-.091-1.546V5.917h2.092v16.32h-2.02v-1.545h-.092a3.856 3.856 0 01-1.515 1.364 4.738 4.738 0 01-2.264.545zm.344-1.909A3.331 3.331 0 00175.7 19.6a4.097 4.097 0 001.011-2.942 4.1 4.1 0 00-1.011-2.941 3.413 3.413 0 00-5.051 0 4.048 4.048 0 00-1.011 2.93 4.049 4.049 0 001.011 2.929 3.327 3.327 0 002.535 1.116z"
          fill="#5E308C"/>
</svg>
