<svg width="169" height="44" fill="none" xmlns="http://www.w3.org/2000/svg">
    <mask id="a" mask-type="alpha" maskUnits="userSpaceOnUse" x="0" y="0" width="44" height="44">
        <path fill="#C4C4C4" d="M0 0h44v44H0z"/>
    </mask>
    <g mask="url(#a)" stroke-width="3">
        <path d="M8.854 29.853c-1.533-.72-1.533-2.9 0-3.62l9.758-4.584a8 8 0 016.802 0l9.757 4.583c1.533.72 1.533 2.9 0 3.62l-9.758 4.583a8 8 0 01-6.801 0l-9.758-4.582z"
              stroke="url(#paint0_linear)"/>
        <path d="M8.854 23.838c-1.533-.72-1.533-2.9 0-3.62l9.758-4.584a8 8 0 016.802 0l9.757 4.583c1.533.72 1.533 2.9 0 3.62l-9.758 4.583a8 8 0 01-6.801 0l-9.758-4.582z"
              stroke="url(#paint1_linear)"/>
        <path d="M8.854 17.823c-1.533-.72-1.533-2.9 0-3.62l9.758-4.584a8 8 0 016.802 0l9.757 4.583c1.533.72 1.533 2.9 0 3.62l-9.758 4.583a8 8 0 01-6.801 0l-9.758-4.582z"
              stroke="#5E308C"/>
    </g>
    <path d="M67.398 17.288c-.96 0-1.854-.174-2.682-.522a6.669 6.669 0 01-2.124-1.422 6.886 6.886 0 01-1.422-2.142 6.97 6.97 0 01-.504-2.646c0-.936.168-1.812.504-2.628a6.618 6.618 0 011.422-2.142 6.524 6.524 0 012.124-1.44 6.851 6.851 0 012.682-.522c.96 0 1.848.174 2.664.522a6.476 6.476 0 012.142 1.44c.6.6 1.068 1.314 1.404 2.142.348.816.522 1.692.522 2.628 0 .936-.174 1.818-.522 2.646a6.635 6.635 0 01-1.404 2.142c-.6.6-1.314 1.074-2.142 1.422a6.72 6.72 0 01-2.664.522zm0-2.304c.6 0 1.158-.108 1.674-.324a4.113 4.113 0 001.368-.9c.396-.384.702-.846.918-1.386a4.717 4.717 0 00.342-1.818c0-.66-.114-1.26-.342-1.8a3.91 3.91 0 00-.918-1.404 4.113 4.113 0 00-1.368-.9 4.291 4.291 0 00-1.674-.324c-.6 0-1.164.108-1.692.324a4.371 4.371 0 00-1.368.9c-.384.384-.69.852-.918 1.404a4.807 4.807 0 00-.324 1.8c0 .66.108 1.266.324 1.818a4.3 4.3 0 00.918 1.386c.396.384.852.684 1.368.9a4.425 4.425 0 001.692.324zm10.537-5.652h.144a2.92 2.92 0 011.116-1.044c.468-.264 1.002-.396 1.602-.396.552 0 1.038.09 1.458.27.42.18.762.438 1.026.774.276.324.48.72.612 1.188.144.456.216.966.216 1.53V17H81.75v-5.058c0-.636-.144-1.104-.432-1.404-.276-.312-.684-.468-1.224-.468a1.71 1.71 0 00-.864.216c-.24.132-.45.318-.63.558-.168.228-.3.504-.396.828a3.866 3.866 0 00-.126 1.008V17H75.72V8.18h2.214v1.152zm8.122 1.044h6.102v2.088h-6.102v-2.088zM94.466 17V4.112h4.536c.612 0 1.182.102 1.71.306.54.192 1.008.468 1.404.828.396.36.708.792.936 1.296.228.492.342 1.038.342 1.638 0 .612-.114 1.17-.342 1.674-.228.492-.54.918-.936 1.278s-.864.642-1.404.846a4.967 4.967 0 01-1.71.288h-2.106V17h-2.43zm4.572-7.038c.636 0 1.116-.18 1.44-.54.324-.36.486-.774.486-1.242 0-.228-.042-.45-.126-.666a1.32 1.32 0 00-.36-.558 1.613 1.613 0 00-.594-.396 2.27 2.27 0 00-.846-.144h-2.142v3.546h2.142zm5.792-1.782h2.214v1.224h.144a2.28 2.28 0 01.432-.594c.18-.18.378-.336.594-.468a3.17 3.17 0 01.72-.306c.264-.072.522-.108.774-.108.312 0 .576.03.792.09.228.06.42.138.576.234l-.63 2.142a1.928 1.928 0 00-.486-.162 2.333 2.333 0 00-.63-.072c-.324 0-.618.066-.882.198a1.93 1.93 0 00-.684.522c-.18.228-.324.498-.432.81-.096.3-.144.63-.144.99V17h-2.358V8.18zm15.137 6.696a4.914 4.914 0 01-1.656 1.746c-.684.444-1.524.666-2.52.666a5.04 5.04 0 01-1.872-.342 4.627 4.627 0 01-1.476-.99c-.42-.42-.75-.912-.99-1.476a5.09 5.09 0 01-.342-1.89c0-.636.114-1.236.342-1.8a4.488 4.488 0 01.954-1.494 4.57 4.57 0 011.44-1.026 4.493 4.493 0 011.854-.378c.708 0 1.338.12 1.89.36a3.714 3.714 0 011.386.972c.372.408.654.894.846 1.458.192.564.288 1.176.288 1.836v.216a1.212 1.212 0 00-.018.198c-.012.06-.018.126-.018.198h-6.642c.048.36.144.672.288.936.156.252.342.468.558.648.228.168.474.294.738.378.264.072.534.108.81.108.54 0 .984-.12 1.332-.36.36-.252.642-.564.846-.936l1.962.972zm-2.142-3.42a1.435 1.435 0 00-.162-.522 1.646 1.646 0 00-.396-.54 1.943 1.943 0 00-.648-.414c-.252-.108-.558-.162-.918-.162a2.16 2.16 0 00-1.332.432c-.384.288-.654.69-.81 1.206h4.266zm3.792-3.276h2.214v1.152h.144c.276-.432.648-.78 1.116-1.044a3.232 3.232 0 011.584-.396c.672 0 1.236.156 1.692.468.456.312.78.696.972 1.152.276-.444.666-.822 1.17-1.134.504-.324 1.116-.486 1.836-.486.54 0 1.008.09 1.404.27.396.168.72.408.972.72.264.312.462.69.594 1.134.132.432.198.906.198 1.422V17h-2.358v-5.13c0-1.2-.492-1.8-1.476-1.8-.312 0-.588.072-.828.216-.24.132-.444.318-.612.558a2.934 2.934 0 00-.378.828 4.149 4.149 0 00-.126 1.044V17h-2.358v-5.13c0-1.2-.516-1.8-1.548-1.8-.3 0-.564.072-.792.216-.228.132-.42.318-.576.558a2.618 2.618 0 00-.36.828 4.149 4.149 0 00-.126 1.044V17h-2.358V8.18zm17.152-1.278c-.204 0-.402-.036-.594-.108a1.91 1.91 0 01-.486-.324 1.91 1.91 0 01-.324-.486 1.586 1.586 0 01-.108-.594c0-.216.036-.414.108-.594a1.63 1.63 0 01.324-.468c.144-.144.306-.252.486-.324.192-.084.39-.126.594-.126.42 0 .78.15 1.08.45.3.288.45.642.45 1.062 0 .42-.15.78-.45 1.08-.3.288-.66.432-1.08.432zM137.599 17V8.18h2.358V17h-2.358zm8.006.288a5.133 5.133 0 01-1.548-.216 4.596 4.596 0 01-1.17-.558c-.324-.24-.6-.51-.828-.81a4.071 4.071 0 01-.522-.936l2.106-.9c.204.456.474.798.81 1.026.348.216.732.324 1.152.324.432 0 .774-.078 1.026-.234.252-.156.378-.342.378-.558 0-.24-.108-.432-.324-.576-.204-.156-.564-.294-1.08-.414l-1.242-.27a4.559 4.559 0 01-.864-.288 3.412 3.412 0 01-.792-.504 2.555 2.555 0 01-.594-.738 2.084 2.084 0 01-.234-1.008c0-.432.09-.816.27-1.152.192-.336.45-.618.774-.846.324-.24.702-.42 1.134-.54a4.966 4.966 0 011.422-.198c.84 0 1.59.168 2.25.504.66.324 1.146.846 1.458 1.566l-2.034.828a1.56 1.56 0 00-.738-.756 2.224 2.224 0 00-.972-.234c-.336 0-.63.072-.882.216-.252.132-.378.306-.378.522 0 .204.102.366.306.486.216.12.504.228.864.324l1.35.324c.9.216 1.566.564 1.998 1.044.444.468.666 1.026.666 1.674 0 .384-.09.75-.27 1.098a2.99 2.99 0 01-.774.936c-.324.264-.72.474-1.188.63a4.707 4.707 0 01-1.53.234zm13.65-2.412a4.914 4.914 0 01-1.656 1.746c-.684.444-1.524.666-2.52.666a5.04 5.04 0 01-1.872-.342 4.627 4.627 0 01-1.476-.99c-.42-.42-.75-.912-.99-1.476a5.09 5.09 0 01-.342-1.89c0-.636.114-1.236.342-1.8a4.488 4.488 0 01.954-1.494 4.57 4.57 0 011.44-1.026 4.493 4.493 0 011.854-.378c.708 0 1.338.12 1.89.36a3.714 3.714 0 011.386.972c.372.408.654.894.846 1.458.192.564.288 1.176.288 1.836v.216a1.212 1.212 0 00-.018.198c-.012.06-.018.126-.018.198h-6.642c.048.36.144.672.288.936.156.252.342.468.558.648.228.168.474.294.738.378.264.072.534.108.81.108.54 0 .984-.12 1.332-.36.36-.252.642-.564.846-.936l1.962.972zm-2.142-3.42a1.435 1.435 0 00-.162-.522 1.646 1.646 0 00-.396-.54 1.943 1.943 0 00-.648-.414c-.252-.108-.558-.162-.918-.162a2.16 2.16 0 00-1.332.432c-.384.288-.654.69-.81 1.206h4.266zm7.371 5.832a5.133 5.133 0 01-1.548-.216 4.596 4.596 0 01-1.17-.558c-.324-.24-.6-.51-.828-.81a4.071 4.071 0 01-.522-.936l2.106-.9c.204.456.474.798.81 1.026.348.216.732.324 1.152.324.432 0 .774-.078 1.026-.234.252-.156.378-.342.378-.558 0-.24-.108-.432-.324-.576-.204-.156-.564-.294-1.08-.414l-1.242-.27a4.559 4.559 0 01-.864-.288 3.412 3.412 0 01-.792-.504 2.555 2.555 0 01-.594-.738 2.084 2.084 0 01-.234-1.008c0-.432.09-.816.27-1.152.192-.336.45-.618.774-.846.324-.24.702-.42 1.134-.54a4.966 4.966 0 011.422-.198c.84 0 1.59.168 2.25.504.66.324 1.146.846 1.458 1.566l-2.034.828a1.56 1.56 0 00-.738-.756 2.224 2.224 0 00-.972-.234c-.336 0-.63.072-.882.216-.252.132-.378.306-.378.522 0 .204.102.366.306.486.216.12.504.228.864.324l1.35.324c.9.216 1.566.564 1.998 1.044.444.468.666 1.026.666 1.674 0 .384-.09.75-.27 1.098a2.99 2.99 0 01-.774.936c-.324.264-.72.474-1.188.63a4.707 4.707 0 01-1.53.234zm-99.984 22a5.133 5.133 0 01-1.548-.216 4.596 4.596 0 01-1.17-.558c-.324-.24-.6-.51-.828-.81a4.071 4.071 0 01-.522-.936l2.106-.9c.204.456.474.798.81 1.026.348.216.732.324 1.152.324.432 0 .774-.078 1.026-.234.252-.156.378-.342.378-.558 0-.24-.108-.432-.324-.576-.204-.156-.564-.294-1.08-.414l-1.242-.27a4.559 4.559 0 01-.864-.288 3.412 3.412 0 01-.792-.504 2.555 2.555 0 01-.594-.738 2.084 2.084 0 01-.234-1.008c0-.432.09-.816.27-1.152.192-.336.45-.618.774-.846.324-.24.702-.42 1.134-.54a4.966 4.966 0 011.422-.198c.84 0 1.59.168 2.25.504.66.324 1.146.846 1.458 1.566l-2.034.828a1.56 1.56 0 00-.738-.756 2.224 2.224 0 00-.972-.234c-.336 0-.63.072-.882.216-.252.132-.378.306-.378.522 0 .204.102.366.306.486.216.12.504.228.864.324l1.35.324c.9.216 1.566.564 1.998 1.044.444.468.666 1.026.666 1.674 0 .384-.09.75-.27 1.098a2.99 2.99 0 01-.774.936c-.324.264-.72.474-1.188.63a4.707 4.707 0 01-1.53.234zm9.473-9.396c.684 0 1.308.12 1.872.36a4.166 4.166 0 011.476.972c.42.408.744.9.972 1.476.24.576.36 1.206.36 1.89 0 .684-.12 1.314-.36 1.89a4.35 4.35 0 01-.972 1.494c-.408.408-.9.732-1.476.972a4.952 4.952 0 01-1.872.342 5.09 5.09 0 01-1.89-.342 4.783 4.783 0 01-1.476-.972 4.729 4.729 0 01-.972-1.494 5.09 5.09 0 01-.342-1.89c0-.684.114-1.314.342-1.89.24-.576.564-1.068.972-1.476a4.39 4.39 0 011.476-.972 4.866 4.866 0 011.89-.36zm0 7.218c.3 0 .588-.054.864-.162a2.24 2.24 0 001.26-1.296c.132-.312.198-.666.198-1.062s-.066-.75-.198-1.062a2.24 2.24 0 00-.504-.792 2.099 2.099 0 00-.756-.486 2.145 2.145 0 00-.864-.18c-.312 0-.606.06-.882.18-.276.108-.522.27-.738.486a2.46 2.46 0 00-.522.792c-.12.312-.18.666-.18 1.062s.06.75.18 1.062a2.375 2.375 0 001.26 1.296c.276.108.57.162.882.162zM86.6 32.196h-3.33V39h-2.358v-6.804h-1.584V30.18h1.584v-.864c0-.54.078-1.014.234-1.422.168-.42.403-.768.703-1.044.3-.288.653-.504 1.061-.648a3.752 3.752 0 011.35-.234c.24 0 .432.012.576.036.145.024.282.06.415.108l-.145 2.214a1.63 1.63 0 00-.701-.126c-.349 0-.624.114-.829.342-.203.228-.305.54-.305.936v.702h3.33v-2.7h2.358v2.7h2.16v2.016h-2.16v3.42c0 .204.017.396.053.576a.981.981 0 00.252.432c.169.192.409.288.72.288.205 0 .367-.018.487-.054a1.86 1.86 0 00.341-.18l.666 2.07a3.592 3.592 0 01-.9.288c-.312.072-.66.108-1.044.108-.444 0-.846-.066-1.206-.198a2.677 2.677 0 01-.882-.576c-.564-.54-.846-1.308-.846-2.304v-3.87zm5.57-2.016h2.646l1.458 5.526h.126l1.746-5.526h2.43l1.764 5.526h.126l1.44-5.526h2.61L103.69 39h-2.538l-1.764-5.562h-.126L97.498 39h-2.502l-2.826-8.82zm20.68 7.884h-.144a3.919 3.919 0 01-1.008.864c-.384.24-.882.36-1.494.36-.456 0-.888-.078-1.296-.234a3.238 3.238 0 01-1.044-.612 2.777 2.777 0 01-.702-.954 2.94 2.94 0 01-.252-1.224c0-.456.09-.864.27-1.224.18-.372.432-.69.756-.954a3.3 3.3 0 011.134-.594 4.642 4.642 0 011.44-.216c.576 0 1.05.048 1.422.144.372.084.678.174.918.27v-.27c0-.468-.186-.852-.558-1.152-.372-.312-.834-.468-1.386-.468-.816 0-1.506.342-2.07 1.026l-1.71-1.17c.936-1.176 2.214-1.764 3.834-1.764 1.368 0 2.412.324 3.132.972.72.636 1.08 1.584 1.08 2.844V39h-2.322v-.936zm0-2.646a4.35 4.35 0 00-.864-.306 3.4 3.4 0 00-.954-.126c-.564 0-1.002.126-1.314.378-.3.24-.45.54-.45.9s.144.648.432.864c.3.216.642.324 1.026.324.312 0 .6-.054.864-.162.264-.12.486-.27.666-.45.192-.192.336-.408.432-.648.108-.252.162-.51.162-.774zm4.197-5.238h2.214v1.224h.144a2.28 2.28 0 01.432-.594c.18-.18.378-.336.594-.468a3.17 3.17 0 01.72-.306c.264-.072.522-.108.774-.108.312 0 .576.03.792.09.228.06.42.138.576.234l-.63 2.142a1.928 1.928 0 00-.486-.162 2.333 2.333 0 00-.63-.072c-.324 0-.618.066-.882.198a1.93 1.93 0 00-.684.522c-.18.228-.324.498-.432.81-.096.3-.144.63-.144.99V39h-2.358v-8.82zm15.137 6.696a4.914 4.914 0 01-1.656 1.746c-.684.444-1.524.666-2.52.666a5.04 5.04 0 01-1.872-.342 4.627 4.627 0 01-1.476-.99c-.42-.42-.75-.912-.99-1.476a5.09 5.09 0 01-.342-1.89c0-.636.114-1.236.342-1.8a4.488 4.488 0 01.954-1.494 4.57 4.57 0 011.44-1.026 4.493 4.493 0 011.854-.378c.708 0 1.338.12 1.89.36a3.714 3.714 0 011.386.972c.372.408.654.894.846 1.458.192.564.288 1.176.288 1.836v.216a1.212 1.212 0 00-.018.198c-.012.06-.018.126-.018.198h-6.642c.048.36.144.672.288.936.156.252.342.468.558.648.228.168.474.294.738.378.264.072.534.108.81.108.54 0 .984-.12 1.332-.36.36-.252.642-.564.846-.936l1.962.972zm-2.142-3.42a1.435 1.435 0 00-.162-.522 1.646 1.646 0 00-.396-.54 1.943 1.943 0 00-.648-.414c-.252-.108-.558-.162-.918-.162a2.16 2.16 0 00-1.332.432c-.384.288-.654.69-.81 1.206h4.266z"
          fill="#5E308C"/>
    <defs>
        <linearGradient id="paint0_linear" x1="21.913" y1="30.353" x2="21.913" y2="22.458" gradientUnits="userSpaceOnUse">
            <stop stop-color="#5E308C"/>
            <stop offset="1" stop-color="#CEC8D5" stop-opacity="0"/>
        </linearGradient>
        <linearGradient id="paint1_linear" x1="21.913" y1="24.338" x2="21.913" y2="16.443" gradientUnits="userSpaceOnUse">
            <stop stop-color="#5E308C"/>
            <stop offset="1" stop-color="#CEC8D5" stop-opacity="0"/>
        </linearGradient>
    </defs>
</svg>
