<svg width="206" height="44" fill="none" xmlns="http://www.w3.org/2000/svg">
    <mask id="a" mask-type="alpha" maskUnits="userSpaceOnUse" x="0" y="0" width="44" height="44">
        <path fill="#C4C4C4" d="M0 0h44v44H0z"/>
    </mask>
    <g mask="url(#a)">
        <circle cx="35" cy="35" r="5" fill="#5E308C"/>
        <path d="M36.5 36.5l-29-28" stroke="#5E308C" stroke-width="3"/>
        <circle cx="9" cy="9" r="5" fill="#5E308C"/>
        <circle cx="35.5" cy="9.5" r="3.5" fill="#5E308C"/>
        <circle cx="8.5" cy="35.5" r="3.5" fill="#5E308C"/>
    </g>
    <path d="M63.726 6.416v2.988h5.166v2.304h-5.166v2.988h5.742V17h-8.172V4.112h8.172v2.304h-5.742zm9.709 6.102L70.41 8.18h2.79l1.602 2.448h.126l1.513-2.448h2.88l-3.096 4.338L79.32 17h-2.772l-1.657-2.52h-.126L73.164 17h-2.79l3.06-4.482zm8.022-2.322h-1.548V8.18h1.548v-2.7h2.358v2.7h2.16v2.016h-2.16v3.42c0 .204.018.396.054.576a.981.981 0 00.252.432c.168.192.408.288.72.288.204 0 .366-.018.486-.054a1.86 1.86 0 00.342-.18l.666 2.07a3.592 3.592 0 01-.9.288c-.312.072-.66.108-1.044.108-.444 0-.846-.066-1.206-.198a2.677 2.677 0 01-.882-.576c-.564-.54-.846-1.308-.846-2.304v-3.87zm14.516 4.68a4.914 4.914 0 01-1.656 1.746c-.684.444-1.524.666-2.52.666a5.04 5.04 0 01-1.872-.342 4.627 4.627 0 01-1.476-.99c-.42-.42-.75-.912-.99-1.476a5.09 5.09 0 01-.342-1.89c0-.636.114-1.236.342-1.8a4.488 4.488 0 01.954-1.494 4.57 4.57 0 011.44-1.026 4.493 4.493 0 011.854-.378c.708 0 1.338.12 1.89.36a3.714 3.714 0 011.386.972c.372.408.654.894.846 1.458.192.564.288 1.176.288 1.836v.216a1.212 1.212 0 00-.018.198c-.012.06-.018.126-.018.198H89.44c.048.36.144.672.288.936.156.252.342.468.558.648.228.168.474.294.738.378.264.072.534.108.81.108.54 0 .984-.12 1.332-.36.36-.252.642-.564.846-.936l1.962.972zm-2.142-3.42a1.435 1.435 0 00-.162-.522 1.646 1.646 0 00-.396-.54 1.943 1.943 0 00-.648-.414c-.252-.108-.558-.162-.918-.162a2.16 2.16 0 00-1.332.432c-.384.288-.654.69-.81 1.206h4.266zm6.006-2.124h.144a2.917 2.917 0 011.116-1.044c.468-.264 1.002-.396 1.602-.396.552 0 1.038.09 1.458.27.42.18.762.438 1.026.774.276.324.48.72.612 1.188.144.456.216.966.216 1.53V17h-2.358v-5.058c0-.636-.144-1.104-.432-1.404-.276-.312-.684-.468-1.224-.468a1.71 1.71 0 00-.864.216c-.24.132-.45.318-.63.558-.168.228-.3.504-.396.828a3.866 3.866 0 00-.126 1.008V17h-2.358V8.18h2.214v1.152zm14.692 6.606h-.144c-.216.372-.552.69-1.008.954-.456.264-1.02.396-1.692.396a3.966 3.966 0 01-1.62-.342 4.662 4.662 0 01-1.35-.972 4.814 4.814 0 01-.918-1.494 5.09 5.09 0 01-.342-1.89c0-.684.114-1.314.342-1.89a4.591 4.591 0 01.918-1.476c.396-.42.846-.744 1.35-.972a3.797 3.797 0 011.62-.36c.672 0 1.236.132 1.692.396.456.264.792.582 1.008.954h.144l-.144-1.26v-3.87h2.358V17h-2.214v-1.062zm-2.358-.828c.312 0 .606-.054.882-.162.288-.12.54-.288.756-.504.216-.216.39-.48.522-.792.132-.312.198-.666.198-1.062s-.066-.75-.198-1.062a2.46 2.46 0 00-.522-.792 2.099 2.099 0 00-.756-.486c-.276-.12-.57-.18-.882-.18-.312 0-.612.06-.9.18a2.375 2.375 0 00-1.26 1.296c-.132.312-.198.66-.198 1.044s.066.732.198 1.044a2.375 2.375 0 001.26 1.296c.288.12.588.18.9.18zm14.845-.234a4.914 4.914 0 01-1.656 1.746c-.684.444-1.524.666-2.52.666a5.04 5.04 0 01-1.872-.342 4.627 4.627 0 01-1.476-.99c-.42-.42-.75-.912-.99-1.476a5.09 5.09 0 01-.342-1.89c0-.636.114-1.236.342-1.8a4.488 4.488 0 01.954-1.494 4.57 4.57 0 011.44-1.026 4.493 4.493 0 011.854-.378c.708 0 1.338.12 1.89.36a3.714 3.714 0 011.386.972c.372.408.654.894.846 1.458.192.564.288 1.176.288 1.836v.216a1.212 1.212 0 00-.018.198c-.012.06-.018.126-.018.198h-6.642c.048.36.144.672.288.936.156.252.342.468.558.648.228.168.474.294.738.378.264.072.534.108.81.108.54 0 .984-.12 1.332-.36.36-.252.642-.564.846-.936l1.962.972zm-2.142-3.42a1.435 1.435 0 00-.162-.522 1.646 1.646 0 00-.396-.54 1.943 1.943 0 00-.648-.414c-.252-.108-.558-.162-.918-.162a2.16 2.16 0 00-1.332.432c-.384.288-.654.69-.81 1.206h4.266zm10.45 4.482h-.144c-.216.372-.552.69-1.008.954-.456.264-1.02.396-1.692.396a3.966 3.966 0 01-1.62-.342 4.662 4.662 0 01-1.35-.972 4.814 4.814 0 01-.918-1.494 5.09 5.09 0 01-.342-1.89c0-.684.114-1.314.342-1.89a4.591 4.591 0 01.918-1.476c.396-.42.846-.744 1.35-.972a3.797 3.797 0 011.62-.36c.672 0 1.236.132 1.692.396.456.264.792.582 1.008.954h.144l-.144-1.26v-3.87h2.358V17h-2.214v-1.062zm-2.358-.828c.312 0 .606-.054.882-.162.288-.12.54-.288.756-.504.216-.216.39-.48.522-.792.132-.312.198-.666.198-1.062s-.066-.75-.198-1.062a2.46 2.46 0 00-.522-.792 2.099 2.099 0 00-.756-.486c-.276-.12-.57-.18-.882-.18-.312 0-.612.06-.9.18a2.375 2.375 0 00-1.26 1.296c-.132.312-.198.66-.198 1.044s.066.732.198 1.044a2.375 2.375 0 001.26 1.296c.288.12.588.18.9.18zm-71.67 11.002h4.356c1.02 0 1.938.156 2.754.468a5.879 5.879 0 012.088 1.332 5.563 5.563 0 011.314 2.034c.312.792.468 1.662.468 2.61 0 .96-.156 1.836-.468 2.628-.3.792-.738 1.47-1.314 2.034a6.009 6.009 0 01-2.088 1.314c-.816.312-1.734.468-2.754.468h-4.356V26.112zm4.248 10.584c.708 0 1.332-.096 1.872-.288.54-.204.99-.486 1.35-.846.36-.36.63-.792.81-1.296.18-.516.27-1.086.27-1.71 0-.624-.09-1.188-.27-1.692a3.421 3.421 0 00-.81-1.314c-.36-.36-.81-.636-1.35-.828-.54-.204-1.164-.306-1.872-.306h-1.818v8.28h1.818zm9.716-7.794a1.68 1.68 0 01-.595-.108 1.91 1.91 0 01-.486-.324 1.91 1.91 0 01-.323-.486 1.586 1.586 0 01-.108-.594c0-.216.035-.414.108-.594a1.63 1.63 0 01.324-.468c.143-.144.305-.252.485-.324.192-.084.39-.126.594-.126.42 0 .78.15 1.08.45.3.288.45.642.45 1.062 0 .42-.15.78-.45 1.08-.3.288-.66.432-1.08.432zM74.09 39v-8.82h2.358V39H74.09zm8.006.288a5.133 5.133 0 01-1.548-.216 4.596 4.596 0 01-1.17-.558c-.324-.24-.6-.51-.828-.81a4.071 4.071 0 01-.522-.936l2.106-.9c.204.456.474.798.81 1.026.348.216.732.324 1.152.324.432 0 .774-.078 1.026-.234.252-.156.378-.342.378-.558 0-.24-.108-.432-.324-.576-.204-.156-.564-.294-1.08-.414l-1.242-.27a4.559 4.559 0 01-.864-.288 3.412 3.412 0 01-.792-.504 2.555 2.555 0 01-.594-.738 2.084 2.084 0 01-.234-1.008c0-.432.09-.816.27-1.152.192-.336.45-.618.774-.846.324-.24.702-.42 1.134-.54a4.966 4.966 0 011.422-.198c.84 0 1.59.168 2.25.504.66.324 1.146.846 1.458 1.566l-2.034.828a1.56 1.56 0 00-.738-.756 2.224 2.224 0 00-.972-.234c-.336 0-.63.072-.882.216-.252.132-.378.306-.378.522 0 .204.102.366.306.486.216.12.504.228.864.324l1.35.324c.9.216 1.566.564 1.998 1.044.444.468.666 1.026.666 1.674 0 .384-.09.75-.27 1.098a2.99 2.99 0 01-.774.936c-.324.264-.72.474-1.188.63a4.707 4.707 0 01-1.53.234zm6.093-7.092h-1.548V30.18h1.548v-2.7h2.358v2.7h2.16v2.016h-2.16v3.42c0 .204.018.396.054.576a.981.981 0 00.252.432c.168.192.408.288.72.288.204 0 .366-.018.486-.054a1.86 1.86 0 00.342-.18l.666 2.07a3.592 3.592 0 01-.9.288c-.312.072-.66.108-1.044.108-.444 0-.846-.066-1.206-.198a2.677 2.677 0 01-.882-.576c-.564-.54-.846-1.308-.846-2.304v-3.87zm11.513 5.868h-.144a3.919 3.919 0 01-1.008.864c-.384.24-.882.36-1.494.36-.456 0-.888-.078-1.296-.234a3.238 3.238 0 01-1.044-.612 2.777 2.777 0 01-.702-.954 2.94 2.94 0 01-.252-1.224c0-.456.09-.864.27-1.224.18-.372.432-.69.756-.954a3.3 3.3 0 011.134-.594 4.642 4.642 0 011.44-.216c.576 0 1.05.048 1.422.144.372.084.678.174.918.27v-.27c0-.468-.186-.852-.558-1.152-.372-.312-.834-.468-1.386-.468-.816 0-1.506.342-2.07 1.026l-1.71-1.17c.936-1.176 2.214-1.764 3.834-1.764 1.368 0 2.412.324 3.132.972.72.636 1.08 1.584 1.08 2.844V39h-2.322v-.936zm0-2.646a4.35 4.35 0 00-.864-.306 3.4 3.4 0 00-.954-.126c-.564 0-1.002.126-1.314.378-.3.24-.45.54-.45.9s.144.648.432.864c.3.216.642.324 1.026.324.312 0 .6-.054.864-.162.264-.12.486-.27.666-.45.192-.192.336-.408.432-.648.108-.252.162-.51.162-.774zm6.411-4.086h.144a2.92 2.92 0 011.116-1.044c.468-.264 1.002-.396 1.602-.396.552 0 1.038.09 1.458.27.42.18.762.438 1.026.774.276.324.48.72.612 1.188.144.456.216.966.216 1.53V39h-2.358v-5.058c0-.636-.144-1.104-.432-1.404-.276-.312-.684-.468-1.224-.468a1.71 1.71 0 00-.864.216c-.24.132-.45.318-.63.558-.168.228-.3.504-.396.828a3.866 3.866 0 00-.126 1.008V39h-2.358v-8.82h2.214v1.152zm16.492 5.418a4.967 4.967 0 01-1.62 1.836c-.684.468-1.542.702-2.574.702a5.09 5.09 0 01-1.89-.342 4.627 4.627 0 01-1.476-.99 4.783 4.783 0 01-.972-1.476 5.09 5.09 0 01-.342-1.89c0-.684.114-1.314.342-1.89.24-.576.564-1.068.972-1.476a4.39 4.39 0 011.476-.972 4.866 4.866 0 011.89-.36c1.02 0 1.878.234 2.574.702a4.157 4.157 0 011.53 1.818l-2.16.9c-.204-.408-.468-.714-.792-.918-.312-.216-.708-.324-1.188-.324-.312 0-.606.06-.882.18s-.522.288-.738.504c-.204.216-.366.48-.486.792-.12.312-.18.66-.18 1.044s.06.732.18 1.044c.12.312.282.576.486.792.216.216.462.384.738.504.276.12.57.18.882.18.492 0 .906-.108 1.242-.324.348-.228.624-.552.828-.972l2.16.936zm9.702.126a4.914 4.914 0 01-1.656 1.746c-.684.444-1.524.666-2.52.666a5.04 5.04 0 01-1.872-.342 4.627 4.627 0 01-1.476-.99c-.42-.42-.75-.912-.99-1.476a5.09 5.09 0 01-.342-1.89c0-.636.114-1.236.342-1.8a4.488 4.488 0 01.954-1.494 4.57 4.57 0 011.44-1.026 4.493 4.493 0 011.854-.378c.708 0 1.338.12 1.89.36a3.714 3.714 0 011.386.972c.372.408.654.894.846 1.458.192.564.288 1.176.288 1.836v.216a1.212 1.212 0 00-.018.198c-.012.06-.018.126-.018.198h-6.642c.048.36.144.672.288.936.156.252.342.468.558.648.228.168.474.294.738.378.264.072.534.108.81.108.54 0 .984-.12 1.332-.36.36-.252.642-.564.846-.936l1.962.972zm-2.142-3.42a1.435 1.435 0 00-.162-.522 1.646 1.646 0 00-.396-.54 1.943 1.943 0 00-.648-.414c-.252-.108-.558-.162-.918-.162a2.16 2.16 0 00-1.332.432c-.384.288-.654.69-.81 1.206h4.266zm18.952 3.474a6.505 6.505 0 01-2.25 1.764c-.864.396-1.83.594-2.898.594-.96 0-1.854-.174-2.682-.522a6.669 6.669 0 01-2.124-1.422 6.669 6.669 0 01-1.422-2.124 6.805 6.805 0 01-.522-2.664c0-.948.174-1.83.522-2.646a6.618 6.618 0 011.422-2.142c.6-.6 1.308-1.074 2.124-1.422a6.851 6.851 0 012.682-.522c1.032 0 1.938.18 2.718.54.792.36 1.494.882 2.106 1.566l-1.71 1.656a4.528 4.528 0 00-1.332-1.062c-.492-.264-1.08-.396-1.764-.396-.6 0-1.164.108-1.692.324a4.08 4.08 0 00-1.386.882c-.384.384-.69.852-.918 1.404-.228.54-.342 1.146-.342 1.818 0 .672.114 1.284.342 1.836a4.3 4.3 0 00.918 1.386c.396.384.858.684 1.386.9a4.654 4.654 0 001.692.306c.72 0 1.356-.144 1.908-.432a4.79 4.79 0 001.494-1.26l1.728 1.638zm1.487 2.07V26.112h2.358V39h-2.358zm10.479-1.152h-.144a3.06 3.06 0 01-1.116 1.062c-.468.252-1.002.378-1.602.378-1.116 0-1.95-.342-2.502-1.026-.54-.684-.81-1.596-.81-2.736V30.18h2.358v5.058c0 .636.138 1.11.414 1.422.288.3.702.45 1.242.45.324 0 .606-.066.846-.198.252-.144.462-.33.63-.558.18-.24.312-.516.396-.828.096-.324.144-.666.144-1.026v-4.32h2.358V39h-2.214v-1.152zm7.638 1.44a5.133 5.133 0 01-1.548-.216 4.596 4.596 0 01-1.17-.558c-.324-.24-.6-.51-.828-.81a4.071 4.071 0 01-.522-.936l2.106-.9c.204.456.474.798.81 1.026.348.216.732.324 1.152.324.432 0 .774-.078 1.026-.234.252-.156.378-.342.378-.558 0-.24-.108-.432-.324-.576-.204-.156-.564-.294-1.08-.414l-1.242-.27a4.559 4.559 0 01-.864-.288 3.412 3.412 0 01-.792-.504 2.555 2.555 0 01-.594-.738 2.084 2.084 0 01-.234-1.008c0-.432.09-.816.27-1.152.192-.336.45-.618.774-.846.324-.24.702-.42 1.134-.54a4.966 4.966 0 011.422-.198c.84 0 1.59.168 2.25.504.66.324 1.146.846 1.458 1.566l-2.034.828a1.56 1.56 0 00-.738-.756 2.224 2.224 0 00-.972-.234c-.336 0-.63.072-.882.216-.252.132-.378.306-.378.522 0 .204.102.366.306.486.216.12.504.228.864.324l1.35.324c.9.216 1.566.564 1.998 1.044.444.468.666 1.026.666 1.674 0 .384-.09.75-.27 1.098a2.99 2.99 0 01-.774.936c-.324.264-.72.474-1.188.63a4.707 4.707 0 01-1.53.234zm6.093-7.092h-1.548V30.18h1.548v-2.7h2.358v2.7h2.16v2.016h-2.16v3.42c0 .204.018.396.054.576a.981.981 0 00.252.432c.168.192.408.288.72.288.204 0 .366-.018.486-.054a1.86 1.86 0 00.342-.18l.666 2.07a3.592 3.592 0 01-.9.288c-.312.072-.66.108-1.044.108-.444 0-.846-.066-1.206-.198a2.677 2.677 0 01-.882-.576c-.564-.54-.846-1.308-.846-2.304v-3.87zm14.517 4.68a4.914 4.914 0 01-1.656 1.746c-.684.444-1.524.666-2.52.666a5.04 5.04 0 01-1.872-.342 4.627 4.627 0 01-1.476-.99c-.42-.42-.75-.912-.99-1.476a5.09 5.09 0 01-.342-1.89c0-.636.114-1.236.342-1.8a4.488 4.488 0 01.954-1.494 4.57 4.57 0 011.44-1.026 4.493 4.493 0 011.854-.378c.708 0 1.338.12 1.89.36a3.714 3.714 0 011.386.972c.372.408.654.894.846 1.458.192.564.288 1.176.288 1.836v.216a1.212 1.212 0 00-.018.198c-.012.06-.018.126-.018.198h-6.642c.048.36.144.672.288.936.156.252.342.468.558.648.228.168.474.294.738.378.264.072.534.108.81.108.54 0 .984-.12 1.332-.36.36-.252.642-.564.846-.936l1.962.972zm-2.142-3.42a1.435 1.435 0 00-.162-.522 1.646 1.646 0 00-.396-.54 1.943 1.943 0 00-.648-.414c-.252-.108-.558-.162-.918-.162a2.16 2.16 0 00-1.332.432c-.384.288-.654.69-.81 1.206h4.266zm3.792-3.276h2.214v1.224h.144a2.28 2.28 0 01.432-.594c.18-.18.378-.336.594-.468a3.17 3.17 0 01.72-.306c.264-.072.522-.108.774-.108.312 0 .576.03.792.09.228.06.42.138.576.234l-.63 2.142a1.928 1.928 0 00-.486-.162 2.333 2.333 0 00-.63-.072c-.324 0-.618.066-.882.198a1.93 1.93 0 00-.684.522c-.18.228-.324.498-.432.81-.096.3-.144.63-.144.99V39h-2.358v-8.82zm10.47 9.108a5.133 5.133 0 01-1.548-.216 4.596 4.596 0 01-1.17-.558c-.324-.24-.6-.51-.828-.81a4.071 4.071 0 01-.522-.936l2.106-.9c.204.456.474.798.81 1.026.348.216.732.324 1.152.324.432 0 .774-.078 1.026-.234.252-.156.378-.342.378-.558 0-.24-.108-.432-.324-.576-.204-.156-.564-.294-1.08-.414l-1.242-.27a4.559 4.559 0 01-.864-.288 3.412 3.412 0 01-.792-.504 2.555 2.555 0 01-.594-.738 2.084 2.084 0 01-.234-1.008c0-.432.09-.816.27-1.152.192-.336.45-.618.774-.846.324-.24.702-.42 1.134-.54a4.966 4.966 0 011.422-.198c.84 0 1.59.168 2.25.504.66.324 1.146.846 1.458 1.566l-2.034.828a1.56 1.56 0 00-.738-.756 2.224 2.224 0 00-.972-.234c-.336 0-.63.072-.882.216-.252.132-.378.306-.378.522 0 .204.102.366.306.486.216.12.504.228.864.324l1.35.324c.9.216 1.566.564 1.998 1.044.444.468.666 1.026.666 1.674 0 .384-.09.75-.27 1.098a2.99 2.99 0 01-.774.936c-.324.264-.72.474-1.188.63a4.707 4.707 0 01-1.53.234z"
          fill="#5E308C"/>
</svg>
