<svg width="176" height="44" fill="none" xmlns="http://www.w3.org/2000/svg">
    <g clip-path="url(#clip0)">
        <mask id="a" mask-type="alpha" maskUnits="userSpaceOnUse" x="0" y="0" width="44" height="44">
            <path fill="url(#paint0_linear)" fill-opacity=".7" d="M0 0h44v44H0z"/>
        </mask>
        <g mask="url(#a)">
            <path fill-rule="evenodd" clip-rule="evenodd"
                  d="M36.451 14.998C34.01 8.303 26.571 4.854 19.848 7.27a12.898 12.898 0 00-7.613 7.3 11.818 11.818 0 00-1.143-.056C5.405 14.515.5 18.603.5 24.025c0 5.03 4.148 8.928 9.457 9.45l.073.007h4.221v-3h-4.07C6.133 30.054 3.5 27.198 3.5 24.025c0-3.423 3.198-6.51 7.592-6.51.631 0 1.247.068 1.84.193l1.36.287.389-1.336a9.902 9.902 0 016.182-6.564c5.183-1.864 10.899.802 12.77 5.93.331.913.524 1.83.582 2.731l.075 1.193 1.18.192c3.007.492 5.03 2.739 5.03 5.15 0 2.572-2.03 4.889-5.413 5.209h-5.578v3h5.71l.066-.006c4.718-.41 8.215-3.818 8.215-8.204 0-3.8-2.81-6.823-6.416-7.856-.13-.82-.341-1.634-.633-2.435v-.002zM24 27v1h-4v-1a2 2 0 114 0zm4 3a2 2 0 00-2-2v-1a4 4 0 00-8 0v1a2 2 0 00-2 2v6a2 2 0 002 2h8a2 2 0 002-2v-6z"
                  fill="url(#paint1_linear)" fill-opacity=".7"/>
        </g>
        <path d="M60 28.417V15.529h4.536c.612 0 1.182.102 1.71.306.54.192 1.008.468 1.404.828.396.36.708.792.936 1.296.228.492.342 1.038.342 1.638 0 .612-.114 1.17-.342 1.674-.228.492-.54.918-.936 1.278s-.864.642-1.404.846a4.967 4.967 0 01-1.71.288H62.43v4.734H60zm4.572-7.038c.636 0 1.116-.18 1.44-.54.324-.36.486-.774.486-1.242 0-.228-.042-.45-.126-.666a1.32 1.32 0 00-.36-.558 1.614 1.614 0 00-.594-.396 2.27 2.27 0 00-.846-.144H62.43v3.546h2.142z"
              fill="url(#paint2_linear)" fill-opacity=".7"/>
        <path d="M70.364 19.597h2.214v1.224h.144a2.28 2.28 0 01.432-.594c.18-.18.378-.336.594-.468a3.17 3.17 0 01.72-.306c.264-.072.522-.108.774-.108.312 0 .576.03.792.09.228.06.42.138.576.234l-.63 2.142a1.928 1.928 0 00-.486-.162 2.333 2.333 0 00-.63-.072c-.324 0-.618.066-.882.198a1.93 1.93 0 00-.684.522c-.18.228-.324.498-.432.81-.096.3-.144.63-.144.99v4.32h-2.358v-8.82z"
              fill="url(#paint3_linear)" fill-opacity=".7"/>
        <path d="M79.008 18.319c-.204 0-.402-.036-.594-.108a1.91 1.91 0 01-.486-.324 1.91 1.91 0 01-.324-.486 1.586 1.586 0 01-.108-.594c0-.216.036-.414.108-.594a1.63 1.63 0 01.324-.468c.144-.144.306-.252.486-.324.192-.084.39-.126.594-.126.42 0 .78.15 1.08.45.3.288.45.642.45 1.062 0 .42-.15.78-.45 1.08-.3.288-.66.432-1.08.432zm-1.17 10.098v-8.82h2.358v8.82h-2.358z"
              fill="url(#paint4_linear)" fill-opacity=".7"/>
        <path d="M81.417 19.597h2.682l2.196 5.616h.126l2.214-5.616h2.664l-3.798 8.82h-2.322l-3.762-8.82z" fill="url(#paint5_linear)" fill-opacity=".7"/>
        <path d="M97.632 27.481h-.144a3.919 3.919 0 01-1.008.864c-.384.24-.882.36-1.494.36-.456 0-.888-.078-1.296-.234a3.238 3.238 0 01-1.044-.612 2.777 2.777 0 01-.702-.954 2.94 2.94 0 01-.252-1.224c0-.456.09-.864.27-1.224.18-.372.432-.69.756-.954a3.3 3.3 0 011.134-.594 4.642 4.642 0 011.44-.216c.576 0 1.05.048 1.422.144.372.084.678.174.918.27v-.27c0-.468-.186-.852-.558-1.152-.372-.312-.834-.468-1.386-.468-.816 0-1.506.342-2.07 1.026l-1.71-1.17c.936-1.176 2.214-1.764 3.834-1.764 1.368 0 2.412.324 3.132.972.72.636 1.08 1.584 1.08 2.844v5.292h-2.322v-.936zm0-2.646a4.35 4.35 0 00-.864-.306 3.4 3.4 0 00-.954-.126c-.564 0-1.002.126-1.314.378-.3.24-.45.54-.45.9s.144.648.432.864c.3.216.642.324 1.026.324.312 0 .6-.054.864-.162.264-.12.486-.27.666-.45.192-.192.336-.408.432-.648.108-.252.162-.51.162-.774z"
              fill="url(#paint6_linear)" fill-opacity=".7"/>
        <path d="M102.625 21.613h-1.548v-2.016h1.548v-2.7h2.358v2.7h2.16v2.016h-2.16v3.42c0 .204.018.396.054.576a.981.981 0 00.252.432c.168.192.408.288.72.288.204 0 .366-.018.486-.054a1.86 1.86 0 00.342-.18l.666 2.07a3.592 3.592 0 01-.9.288c-.312.072-.66.108-1.044.108-.444 0-.846-.066-1.206-.198a2.677 2.677 0 01-.882-.576c-.564-.54-.846-1.308-.846-2.304v-3.87z"
              fill="url(#paint7_linear)" fill-opacity=".7"/>
        <path d="M117.142 26.293a4.914 4.914 0 01-1.656 1.746c-.684.444-1.524.666-2.52.666a5.04 5.04 0 01-1.872-.342 4.627 4.627 0 01-1.476-.99c-.42-.42-.75-.912-.99-1.476a5.09 5.09 0 01-.342-1.89c0-.636.114-1.236.342-1.8a4.488 4.488 0 01.954-1.494 4.57 4.57 0 011.44-1.026 4.493 4.493 0 011.854-.378c.708 0 1.338.12 1.89.36a3.714 3.714 0 011.386.972c.372.408.654.894.846 1.458.192.564.288 1.176.288 1.836v.216a1.212 1.212 0 00-.018.198c-.012.06-.018.126-.018.198h-6.642c.048.36.144.672.288.936.156.252.342.468.558.648.228.168.474.294.738.378.264.072.534.108.81.108.54 0 .984-.12 1.332-.36.36-.252.642-.564.846-.936l1.962.972zM115 22.873a1.435 1.435 0 00-.162-.522 1.646 1.646 0 00-.396-.54 1.943 1.943 0 00-.648-.414c-.252-.108-.558-.162-.918-.162a2.16 2.16 0 00-1.332.432c-.384.288-.654.69-.81 1.206H115z"
              fill="url(#paint8_linear)" fill-opacity=".7"/>
        <path d="M131.117 26.167a4.967 4.967 0 01-1.62 1.836c-.684.468-1.542.702-2.574.702a5.09 5.09 0 01-1.89-.342 4.627 4.627 0 01-1.476-.99 4.783 4.783 0 01-.972-1.476 5.09 5.09 0 01-.342-1.89c0-.684.114-1.314.342-1.89.24-.576.564-1.068.972-1.476a4.39 4.39 0 011.476-.972 4.866 4.866 0 011.89-.36c1.02 0 1.878.234 2.574.702a4.157 4.157 0 011.53 1.818l-2.16.9c-.204-.408-.468-.714-.792-.918-.312-.216-.708-.324-1.188-.324-.312 0-.606.06-.882.18s-.522.288-.738.504c-.204.216-.366.48-.486.792-.12.312-.18.66-.18 1.044s.06.732.18 1.044c.12.312.282.576.486.792.216.216.462.384.738.504.276.12.57.18.882.18.492 0 .906-.108 1.242-.324.348-.228.624-.552.828-.972l2.16.936z"
              fill="url(#paint9_linear)" fill-opacity=".7"/>
        <path d="M132.556 28.417V15.529h2.358v12.888h-2.358z" fill="url(#paint10_linear)" fill-opacity=".7"/>
        <path d="M141.021 19.309c.684 0 1.308.12 1.872.36a4.166 4.166 0 011.476.972c.42.408.744.9.972 1.476.24.576.36 1.206.36 1.89 0 .684-.12 1.314-.36 1.89a4.35 4.35 0 01-.972 1.494c-.408.408-.9.732-1.476.972a4.952 4.952 0 01-1.872.342 5.09 5.09 0 01-1.89-.342 4.783 4.783 0 01-1.476-.972 4.729 4.729 0 01-.972-1.494 5.09 5.09 0 01-.342-1.89c0-.684.114-1.314.342-1.89.24-.576.564-1.068.972-1.476a4.39 4.39 0 011.476-.972 4.866 4.866 0 011.89-.36zm0 7.218c.3 0 .588-.054.864-.162a2.24 2.24 0 001.26-1.296c.132-.312.198-.666.198-1.062s-.066-.75-.198-1.062a2.24 2.24 0 00-.504-.792 2.099 2.099 0 00-.756-.486 2.145 2.145 0 00-.864-.18c-.312 0-.606.06-.882.18-.276.108-.522.27-.738.486a2.46 2.46 0 00-.522.792c-.12.312-.18.666-.18 1.062s.06.75.18 1.062a2.375 2.375 0 001.26 1.296c.276.108.57.162.882.162z"
              fill="url(#paint11_linear)" fill-opacity=".7"/>
        <path d="M153.23 27.265h-.144a3.06 3.06 0 01-1.116 1.062c-.468.252-1.002.378-1.602.378-1.116 0-1.95-.342-2.502-1.026-.54-.684-.81-1.596-.81-2.736v-5.346h2.358v5.058c0 .636.138 1.11.414 1.422.288.3.702.45 1.242.45.324 0 .606-.066.846-.198.252-.144.462-.33.63-.558.18-.24.312-.516.396-.828.096-.324.144-.666.144-1.026v-4.32h2.358v8.82h-2.214v-1.152z"
              fill="url(#paint12_linear)" fill-opacity=".7"/>
        <path d="M163.946 27.355h-.144c-.216.372-.552.69-1.008.954-.456.264-1.02.396-1.692.396a3.966 3.966 0 01-1.62-.342 4.662 4.662 0 01-1.35-.972 4.814 4.814 0 01-.918-1.494 5.09 5.09 0 01-.342-1.89c0-.684.114-1.314.342-1.89a4.591 4.591 0 01.918-1.476c.396-.42.846-.744 1.35-.972a3.797 3.797 0 011.62-.36c.672 0 1.236.132 1.692.396.456.264.792.582 1.008.954h.144l-.144-1.26v-3.87h2.358v12.888h-2.214v-1.062zm-2.358-.828c.312 0 .606-.054.882-.162.288-.12.54-.288.756-.504.216-.216.39-.48.522-.792.132-.312.198-.666.198-1.062s-.066-.75-.198-1.062a2.46 2.46 0 00-.522-.792 2.099 2.099 0 00-.756-.486c-.276-.12-.57-.18-.882-.18-.312 0-.612.06-.9.18a2.375 2.375 0 00-1.26 1.296c-.132.312-.198.66-.198 1.044s.066.732.198 1.044a2.375 2.375 0 001.26 1.296c.288.12.588.18.9.18z"
              fill="url(#paint13_linear)" fill-opacity=".7"/>
        <path d="M171.573 28.705a5.133 5.133 0 01-1.548-.216 4.596 4.596 0 01-1.17-.558c-.324-.24-.6-.51-.828-.81a4.071 4.071 0 01-.522-.936l2.106-.9c.204.456.474.798.81 1.026.348.216.732.324 1.152.324.432 0 .774-.078 1.026-.234.252-.156.378-.342.378-.558 0-.24-.108-.432-.324-.576-.204-.156-.564-.294-1.08-.414l-1.242-.27a4.559 4.559 0 01-.864-.288 3.412 3.412 0 01-.792-.504 2.555 2.555 0 01-.594-.738 2.084 2.084 0 01-.234-1.008c0-.432.09-.816.27-1.152.192-.336.45-.618.774-.846.324-.24.702-.42 1.134-.54a4.966 4.966 0 011.422-.198c.84 0 1.59.168 2.25.504.66.324 1.146.846 1.458 1.566l-2.034.828a1.56 1.56 0 00-.738-.756 2.224 2.224 0 00-.972-.234c-.336 0-.63.072-.882.216-.252.132-.378.306-.378.522 0 .204.102.366.306.486.216.12.504.228.864.324l1.35.324c.9.216 1.566.564 1.998 1.044.444.468.666 1.026.666 1.674 0 .384-.09.75-.27 1.098a2.99 2.99 0 01-.774.936c-.324.264-.72.474-1.188.63a4.707 4.707 0 01-1.53.234z"
              fill="url(#paint14_linear)" fill-opacity=".7"/>
    </g>
    <defs>
        <linearGradient id="paint0_linear" x1="22" y1="-.024" x2="22.001" y2="44" gradientUnits="userSpaceOnUse">
            <stop stop-color="#fff"/>
            <stop offset="1" stop-color="#fff" stop-opacity=".5"/>
        </linearGradient>
        <linearGradient id="paint1_linear" x1="22" y1="6.482" x2="22" y2="38" gradientUnits="userSpaceOnUse">
            <stop stop-color="#fff"/>
            <stop offset="1" stop-color="#fff" stop-opacity=".5"/>
        </linearGradient>
        <linearGradient id="paint2_linear" x1="117.666" y1="15.287" x2="117.666" y2="28.705" gradientUnits="userSpaceOnUse">
            <stop stop-color="#fff"/>
            <stop offset="1" stop-color="#fff" stop-opacity=".5"/>
        </linearGradient>
        <linearGradient id="paint3_linear" x1="117.666" y1="15.287" x2="117.666" y2="28.705" gradientUnits="userSpaceOnUse">
            <stop stop-color="#fff"/>
            <stop offset="1" stop-color="#fff" stop-opacity=".5"/>
        </linearGradient>
        <linearGradient id="paint4_linear" x1="117.666" y1="15.287" x2="117.666" y2="28.705" gradientUnits="userSpaceOnUse">
            <stop stop-color="#fff"/>
            <stop offset="1" stop-color="#fff" stop-opacity=".5"/>
        </linearGradient>
        <linearGradient id="paint5_linear" x1="117.666" y1="15.287" x2="117.666" y2="28.705" gradientUnits="userSpaceOnUse">
            <stop stop-color="#fff"/>
            <stop offset="1" stop-color="#fff" stop-opacity=".5"/>
        </linearGradient>
        <linearGradient id="paint6_linear" x1="117.666" y1="15.287" x2="117.666" y2="28.705" gradientUnits="userSpaceOnUse">
            <stop stop-color="#fff"/>
            <stop offset="1" stop-color="#fff" stop-opacity=".5"/>
        </linearGradient>
        <linearGradient id="paint7_linear" x1="117.666" y1="15.287" x2="117.666" y2="28.705" gradientUnits="userSpaceOnUse">
            <stop stop-color="#fff"/>
            <stop offset="1" stop-color="#fff" stop-opacity=".5"/>
        </linearGradient>
        <linearGradient id="paint8_linear" x1="117.666" y1="15.287" x2="117.666" y2="28.705" gradientUnits="userSpaceOnUse">
            <stop stop-color="#fff"/>
            <stop offset="1" stop-color="#fff" stop-opacity=".5"/>
        </linearGradient>
        <linearGradient id="paint9_linear" x1="117.666" y1="15.287" x2="117.666" y2="28.705" gradientUnits="userSpaceOnUse">
            <stop stop-color="#fff"/>
            <stop offset="1" stop-color="#fff" stop-opacity=".5"/>
        </linearGradient>
        <linearGradient id="paint10_linear" x1="117.666" y1="15.287" x2="117.666" y2="28.705" gradientUnits="userSpaceOnUse">
            <stop stop-color="#fff"/>
            <stop offset="1" stop-color="#fff" stop-opacity=".5"/>
        </linearGradient>
        <linearGradient id="paint11_linear" x1="117.666" y1="15.287" x2="117.666" y2="28.705" gradientUnits="userSpaceOnUse">
            <stop stop-color="#fff"/>
            <stop offset="1" stop-color="#fff" stop-opacity=".5"/>
        </linearGradient>
        <linearGradient id="paint12_linear" x1="117.666" y1="15.287" x2="117.666" y2="28.705" gradientUnits="userSpaceOnUse">
            <stop stop-color="#fff"/>
            <stop offset="1" stop-color="#fff" stop-opacity=".5"/>
        </linearGradient>
        <linearGradient id="paint13_linear" x1="117.666" y1="15.287" x2="117.666" y2="28.705" gradientUnits="userSpaceOnUse">
            <stop stop-color="#fff"/>
            <stop offset="1" stop-color="#fff" stop-opacity=".5"/>
        </linearGradient>
        <linearGradient id="paint14_linear" x1="117.666" y1="15.287" x2="117.666" y2="28.705" gradientUnits="userSpaceOnUse">
            <stop stop-color="#fff"/>
            <stop offset="1" stop-color="#fff" stop-opacity=".5"/>
        </linearGradient>
        <clipPath id="clip0">
            <path fill="#fff" d="M0 0h175.335v44H0z"/>
        </clipPath>
    </defs>
</svg>
