<svg width="194" height="40" fill="none" xmlns="http://www.w3.org/2000/svg">
    <path d="M92.941 10.396v11.512L78.201 9.31v20.263h3.817V18.061L96.79 30.66V10.396h-3.848zm20.232 12.599c0 2.203-1.086 3.848-3.289 3.848-2.173 0-3.29-1.645-3.29-3.848V12.599h-3.817v10.396c0 4.375 2.173 7.106 7.107 7.106s7.106-2.73 7.106-7.106V12.599h-3.817v10.396zm13.126.558l2.204-6.02 2.172 6.02h-4.376zm.528-10.954l-7.106 16.974h4.375l1.086-2.73h7.107l1.086 2.73h4.375L130.116 12.6h-3.289zm26.811 9.31l-12.04-9.868v17.532h3.817v-9.309l12.04 10.396V12.599h-3.817v9.31zm16.943 4.933c-2.731 0-4.934-2.203-4.934-5.461 0-3.29 2.203-5.462 4.934-5.462 1.645 0 2.731.559 3.29 1.086l3.289-2.203c-1.645-1.645-4.375-2.73-6.02-2.73-5.462 0-9.279 3.847-9.279 9.309 0 5.461 3.817 8.75 9.279 8.75 2.172 0 4.934-1.085 6.02-2.73l-2.731-2.73c-1.117 1.613-2.203 2.171-3.848 2.171zm14.741-.558v-3.29h7.137v-3.816h-7.137v-3.29h7.665V12.6h-11.482v16.974h12.04v-3.289h-8.223zM19.147 10.396c8.75 0 19.674 7.665 19.674 7.665v-.56S28.425 0 8.75 0H2.73C1.086 0 0 1.086 0 2.203V18.62c0 1.645 1.086 2.73 2.73 2.73h16.386V10.397h.03zM48.13 29.573c-8.75 0-19.674-7.665-19.674-7.665v.559S39.38 40 58.526 40h6.02c1.645 0 2.73-1.086 2.73-2.731V21.381c0-1.645-1.085-2.731-2.73-2.731H48.13v10.923zm25.136 8.193h.558c.559 0 .559 0 .559-.56 0-.558 0-.558-.559-.558h-.558v1.117zm0-1.087h.558c.559 0 1.087 0 1.087.559s-.528.559-.528.559l.528 1.086h-.528l-.559-1.087h-.558v1.087-2.204zm.558 2.731c1.087 0 1.645-.558 1.645-1.644 0-1.087-.558-1.645-1.645-1.645-1.086 0-1.644.558-1.644 1.645 0 1.117.527 1.644 1.644 1.644zm0-3.817c1.087 0 2.173 1.086 2.173 2.203 0 1.087-1.087 2.204-2.173 2.204s-2.203-1.086-2.203-2.203c0-1.118 1.086-2.204 2.203-2.204z"
          fill="#000"/>
</svg>
