<svg width="380" height="200" fill="none" xmlns="http://www.w3.org/2000/svg">
    <rect width="380" height="200" rx="4" fill="url(#paint1_radial)"/>
    <g filter="url(#filter0_bdi)">
        <path fill-rule="evenodd" clip-rule="evenodd"
              d="M152.929 71.865c-3.905-3.905-3.905-10.237 0-14.142l12.794-12.794c3.905-3.905 10.237-3.905 14.142 0l12.794 12.794c3.905 3.905 3.905 10.237 0 14.142l-12.794 12.794c-3.905 3.905-10.237 3.905-14.142 0l-12.794-12.794zm34.973 34.972c-3.905-3.905-3.905-10.237 0-14.142l12.794-12.794c3.905-3.905 10.237-3.905 14.142 0l12.794 12.794c3.905 3.906 3.905 10.237 0 14.142l-12.794 12.794c-3.905 3.906-10.237 3.906-14.142 0l-12.794-12.794zm-34.973 20.831c-3.905 3.906-3.905 10.237 0 14.142l12.794 12.794c3.905 3.906 10.237 3.906 14.142 0l12.794-12.794c3.905-3.905 3.905-10.236 0-14.142l-12.794-12.794c-3.905-3.905-10.237-3.905-14.142 0l-12.794 12.794z"
              fill="url(#paint2_linear)" fill-opacity=".7"/>
    </g>
    <defs>
        <radialGradient id="paint0_radial" cx="0" cy="0" r="1" gradientUnits="userSpaceOnUse" gradientTransform="matrix(379.99995 199.99963 -534.47126 1015.49713 0 0)">
            <stop stop-color="#652B93"/>
            <stop offset="1" stop-color="#0F0C35"/>
        </radialGradient>
        <radialGradient id="paint1_radial" cx="0" cy="0" r="1" gradientUnits="userSpaceOnUse" gradientTransform="matrix(379.99995 199.99963 -534.47126 1015.49713 0 0)">
            <stop stop-color="#652B93"/>
            <stop offset="1" stop-color="#211C57"/>
        </radialGradient>
        <linearGradient id="paint2_linear" x1="190.28" y1="41.936" x2="190.285" y2="157.533" gradientUnits="userSpaceOnUse">
            <stop stop-color="#fff"/>
            <stop offset="1" stop-color="#fff" stop-opacity=".5"/>
        </linearGradient>
        <filter id="filter0_bdi" x="134" y="26" width="112.561" height="147.533" filterUnits="userSpaceOnUse" color-interpolation-filters="sRGB">
            <feFlood flood-opacity="0" result="BackgroundImageFix"/>
            <feGaussianBlur in="BackgroundImage" stdDeviation="4"/>
            <feComposite in2="SourceAlpha" operator="in" result="effect1_backgroundBlur"/>
            <feColorMatrix in="SourceAlpha" type="matrix" values="0 0 0 0 0 0 0 0 0 0 0 0 0 0 0 0 0 0 127 0"/>
            <feOffset/>
            <feGaussianBlur stdDeviation="8"/>
            <feColorMatrix type="matrix" values="0 0 0 0 1 0 0 0 0 1 0 0 0 0 1 0 0 0 0.24 0"/>
            <feBlend mode="normal" in2="effect1_backgroundBlur" result="effect2_dropShadow"/>
            <feBlend mode="normal" in="SourceGraphic" in2="effect2_dropShadow" result="shape"/>
            <feColorMatrix in="SourceAlpha" type="matrix" values="0 0 0 0 0 0 0 0 0 0 0 0 0 0 0 0 0 0 127 0" result="hardAlpha"/>
            <feOffset dy="3"/>
            <feGaussianBlur stdDeviation="1.5"/>
            <feComposite in2="hardAlpha" operator="arithmetic" k2="-1" k3="1"/>
            <feColorMatrix type="matrix" values="0 0 0 0 1 0 0 0 0 1 0 0 0 0 1 0 0 0 0.25 0"/>
            <feBlend mode="normal" in2="shape" result="effect3_innerShadow"/>
        </filter>
    </defs>
</svg>
