<svg width="40" height="40" fill="none" xmlns="http://www.w3.org/2000/svg">
    <path d="M38.461 20C38.461 9.822 30.18 1.54 20 1.54 9.82 1.54 1.538 9.82 1.538 20c0 5.206 2.174 9.906 5.652 13.266.081.106.178.192.29.264 3.295 3.05 7.686 4.932 12.52 4.932 4.833 0 9.224-1.882 12.519-4.932.113-.072.209-.158.29-.264 3.478-3.36 5.652-8.06 5.652-13.265zM20 3.848c8.907 0 16.154 7.247 16.154 16.154 0 3.776-1.313 7.247-3.493 10-1.001-3.227-3.858-5.753-7.736-6.916 2.113-1.529 3.496-4.007 3.496-6.807 0-4.637-3.777-8.41-8.421-8.41-4.644 0-8.421 3.773-8.421 8.41 0 2.8 1.382 5.278 3.495 6.807-3.878 1.163-6.735 3.69-7.736 6.917A16.061 16.061 0 013.846 20c0-8.907 7.246-16.154 16.154-16.154zm-6.114 12.431c0-3.364 2.742-6.102 6.114-6.102 3.371 0 6.113 2.738 6.113 6.102 0 3.365-2.742 6.102-6.113 6.102-3.372 0-6.114-2.737-6.114-6.102zM9.278 32.05c.347-4.23 4.833-7.362 10.722-7.362 5.888 0 10.375 3.131 10.721 7.362-2.855 2.544-6.605 4.104-10.721 4.104-4.117 0-7.867-1.56-10.722-4.104z"
          fill="#5E308C"/>
</svg>
