<svg width="149" height="71" fill="none" xmlns="http://www.w3.org/2000/svg">
    <path fill="#595959" d="M0 47h149v24H0z"/>
    <path d="M21.769 62h1.194v-8.143h2.796v-1.004h-6.773v1.004h2.783V62zm3.517-3.162c0 1.968 1.208 3.311 3.23 3.311 1.032 0 1.778-.23 2.185-.42l-.203-.855c-.448.19-.964.339-1.832.339-1.195 0-2.213-.665-2.24-2.28h4.6c.042-.136.055-.299.055-.557 0-1.207-.57-3.094-2.7-3.094-1.928 0-3.095 1.56-3.095 3.556zm1.154-.76c.095-.828.624-1.927 1.832-1.927 1.344 0 1.67 1.18 1.656 1.927H26.44zm5.637.72c0 2.008 1.29 3.351 3.271 3.351.882 0 1.574-.23 1.886-.393l-.203-.882c-.34.135-.787.312-1.452.312-1.317 0-2.294-.937-2.294-2.457 0-1.357.814-2.483 2.32-2.483.652 0 1.1.163 1.385.312l.271-.923c-.325-.163-.963-.34-1.669-.34-2.13 0-3.515 1.48-3.515 3.502zM38.638 62h1.18v-3.963c0-.217.028-.393.096-.57.217-.638.814-1.194 1.601-1.194 1.127 0 1.52.882 1.52 1.954V62h1.181v-3.895c0-2.28-1.398-2.823-2.294-2.823-.447 0-.854.136-1.207.34a2.352 2.352 0 00-.869.84h-.027v-4.098h-1.18V62zm7.533 0h1.181v-3.95c0-.203.04-.406.095-.556.217-.678.814-1.221 1.601-1.221 1.113 0 1.52.882 1.52 1.954V62h1.181v-3.922c0-2.24-1.411-2.796-2.307-2.796-1.086 0-1.846.624-2.171 1.235h-.041l-.054-1.086h-1.059c.027.557.054 1.1.054 1.778V62zm7.059-3.257c0 2.117 1.384 3.406 3.121 3.406 1.52 0 3.298-1.004 3.298-3.433 0-2.104-1.303-3.434-3.149-3.434-1.778 0-3.27 1.262-3.27 3.46zm1.207 0c0-1.167.53-2.552 1.995-2.552 1.466 0 2.009 1.398 2.009 2.538 0 1.33-.706 2.538-2.009 2.538-1.316 0-1.995-1.221-1.995-2.524zM61.164 62h1.18v-9.636h-1.18V62zm2.716-3.257c0 2.117 1.384 3.406 3.121 3.406 1.52 0 3.298-1.004 3.298-3.433 0-2.104-1.303-3.434-3.148-3.434-1.778 0-3.271 1.262-3.271 3.46zm1.208 0c0-1.167.53-2.552 1.995-2.552 1.466 0 2.008 1.398 2.008 2.538 0 1.33-.705 2.538-2.008 2.538-1.317 0-1.995-1.221-1.995-2.524zm7.125 4.641l-.3.923c.544.34 1.399.53 2.2.53.827 0 1.75-.19 2.388-.788.638-.57.936-1.479.936-2.999v-3.814c0-.8.028-1.33.055-1.805h-1.045l-.055.991h-.027c-.285-.543-.909-1.14-2.049-1.14-1.506 0-2.959 1.262-2.959 3.488 0 1.819 1.154 3.203 2.796 3.203 1.004 0 1.737-.489 2.09-1.1h.027v.733c0 1.656-.895 2.308-2.117 2.308a3.792 3.792 0 01-1.94-.53zm.352-4.682c0-1.52.815-2.483 1.941-2.483.882 0 1.466.57 1.683 1.262.04.163.068.339.068.543v1.18c0 .204-.027.435-.095.638-.258.76-.923 1.235-1.656 1.235-1.29 0-1.94-1.086-1.94-2.375zm7.394 4.723a3.407 3.407 0 01-1.058.57l.298 1.004c.285-.054.869-.258 1.466-.773.814-.706 1.398-1.86 2.253-4.112l1.791-4.683h-1.262L82.144 59.3c-.163.462-.298.977-.42 1.357h-.028a24.528 24.528 0 00-.42-1.343l-1.439-3.882h-1.303l2.416 6.067c.068.136.095.23.095.298 0 .082-.04.163-.095.285a3.964 3.964 0 01-.99 1.344zM89.45 62h1.195v-3.624c.244.041.597.068.977.068 1.126 0 2.144-.325 2.769-1.004.46-.475.705-1.126.705-1.968 0-.828-.312-1.493-.8-1.927-.543-.489-1.398-.76-2.566-.76-.936 0-1.71.081-2.28.176V62zm1.195-4.587v-3.61c.203-.04.583-.082 1.113-.082 1.302 0 2.157.598 2.157 1.819 0 1.249-.868 1.954-2.307 1.954-.38 0-.773-.027-.963-.081zm5.128 2.85c0 .95.692 1.886 2.008 1.886.937 0 1.643-.475 2.009-.977h.027l.109.828h1.072a11.001 11.001 0 01-.095-1.574v-2.443c0-1.33-.489-2.7-2.497-2.7-.815 0-1.615.23-2.172.583l.285.787a3.272 3.272 0 011.71-.489c1.33 0 1.493.977 1.493 1.52v.15c-2.538-.028-3.95.841-3.95 2.429zm1.194-.136c0-1.276 1.48-1.493 2.782-1.48v1.154c0 .109-.027.245-.054.367a1.653 1.653 0 01-1.601 1.1c-.611 0-1.127-.354-1.127-1.14zM102.824 62h1.194v-3.501c0-.19.014-.394.054-.557.163-.896.76-1.533 1.602-1.533.163 0 .285.013.407.04v-1.126a1.293 1.293 0 00-.339-.04c-.801 0-1.52.556-1.832 1.451h-.041l-.041-1.303h-1.058c.04.625.054 1.276.054 2.05V62zm5.501-.353c.285.326.747.502 1.303.502.462 0 .828-.081 1.059-.176l-.055-.91c-.162.055-.38.096-.692.096-.665 0-.895-.462-.895-1.276V56.34h1.71v-.91h-1.71v-1.886l-1.181.312v1.574h-1.018v.91h1.018v3.583c0 .773.136 1.343.461 1.723zm3.771.353h1.181v-3.95c0-.203.041-.406.095-.556.217-.678.814-1.221 1.601-1.221 1.113 0 1.52.882 1.52 1.954V62h1.181v-3.922c0-2.24-1.411-2.796-2.307-2.796-1.086 0-1.846.624-2.172 1.235h-.04l-.055-1.086h-1.058c.027.557.054 1.1.054 1.778V62zm7.058-3.162c0 1.968 1.208 3.311 3.23 3.311 1.032 0 1.778-.23 2.185-.42l-.203-.855c-.448.19-.964.339-1.832.339-1.195 0-2.212-.665-2.24-2.28h4.601c.041-.136.054-.299.054-.557 0-1.207-.57-3.094-2.7-3.094-1.927 0-3.095 1.56-3.095 3.556zm1.154-.76c.095-.828.624-1.927 1.832-1.927 1.344 0 1.669 1.18 1.656 1.927h-3.488zM126.407 62h1.194v-3.501c0-.19.014-.394.054-.557.163-.896.76-1.533 1.602-1.533.163 0 .285.013.407.04v-1.126a1.293 1.293 0 00-.339-.04c-.801 0-1.52.556-1.832 1.451h-.041l-.041-1.303h-1.058c.04.625.054 1.276.054 2.05V62z"
          fill="#fff"/>
    <g clip-path="url(#clip0)">
        <path d="M30.412 19.919c2.984 0 7.303-.616 7.303-4.166a3.344 3.344 0 00-.074-.816l-1.778-7.72c-.41-1.699-.77-2.47-3.752-3.96C29.796 2.072 24.755.118 23.264.118c-1.389 0-1.792 1.79-3.448 1.79-1.593 0-2.777-1.337-4.268-1.337-1.431 0-2.364.976-3.085 2.983 0 0-2.006 5.659-2.264 6.48-.04.15-.058.306-.052.462 0 2.2 8.66 9.412 20.265 9.412v.01zm7.76-2.725c.414 1.954.414 2.16.414 2.417 0 3.34-3.756 5.194-8.692 5.194-11.156.007-20.928-6.53-20.928-10.85 0-.602.122-1.197.36-1.75-4.013.201-9.207.917-9.207 5.502 0 7.51 17.796 16.768 31.886 16.768 10.803 0 13.528-4.886 13.528-8.744 0-3.035-2.624-6.48-7.355-8.537"
              fill="#E00"/>
        <path d="M38.173 17.195c.413 1.954.413 2.16.413 2.417 0 3.34-3.756 5.194-8.692 5.194-11.156.007-20.928-6.53-20.928-10.85 0-.602.122-1.197.36-1.75l.873-2.161c-.04.148-.057.3-.052.453 0 2.2 8.66 9.412 20.265 9.412 2.984 0 7.303-.615 7.303-4.165a3.338 3.338 0 00-.074-.816l.532 2.266z"
              fill="#220F39"/>
        <path d="M138.314 22.14c0 2.838 1.706 4.217 4.817 4.217a12.43 12.43 0 002.837-.401v-3.29a5.923 5.923 0 01-1.832.277c-1.281 0-1.756-.401-1.756-1.606v-5.041h3.712v-3.388h-3.712V8.613l-4.056.878v3.417h-2.694v3.388h2.684v5.845zm-12.644.077c0-.878.88-1.305 2.209-1.305.812.005 1.621.106 2.41.3v1.707a5.137 5.137 0 01-2.537.627c-1.302 0-2.082-.5-2.082-1.329zm1.24 4.19c1.432 0 2.586-.3 3.665-1.029v.805h4.013v-8.508c0-3.235-2.181-5.01-5.819-5.01-2.033 0-4.042.477-6.203 1.455l1.455 2.987c1.556-.654 2.863-1.055 4.015-1.055 1.67 0 2.534.652 2.534 1.983v.651a11.818 11.818 0 00-3.011-.377c-3.414 0-5.47 1.432-5.47 3.992 0 2.333 1.856 4.113 4.816 4.113l.005-.007zm-22.059-.217h4.316v-6.883h7.227v6.876h4.327V8.617h-4.311v6.75h-7.226v-6.75h-4.316l-.017 17.572zm-16.428-6.657c0-1.908 1.505-3.364 3.487-3.364a4.109 4.109 0 012.806 1.03v4.641a3.903 3.903 0 01-2.805 1.064c-1.957 0-3.489-1.455-3.489-3.361v-.01zm6.348 6.659h4.015V7.74l-4.055.878v4.994a6.752 6.752 0 00-3.388-.878c-3.863 0-6.9 2.984-6.9 6.8a6.74 6.74 0 006.776 6.823 5.993 5.993 0 003.562-1.153l-.01.988zM76.346 15.986c1.278 0 2.357.827 2.784 2.106h-5.535c.4-1.32 1.405-2.106 2.75-2.106zm-6.84 3.578c0 3.865 3.16 6.876 7.224 6.876 2.233 0 3.865-.604 5.547-2.009l-2.687-2.386c-.627.654-1.555 1.005-2.657 1.005a3.434 3.434 0 01-3.264-2.107h9.46v-1.009c0-4.216-2.835-7.25-6.7-7.25a6.816 6.816 0 00-6.919 6.873l-.005.007zm-6.998-7.257c1.431 0 2.233.902 2.233 1.982 0 1.081-.802 1.983-2.233 1.983H58.24v-3.965h4.268zm-8.589 13.876h4.316v-6.4h3.285l3.314 6.4h4.831L65.8 19.155a5.313 5.313 0 003.312-4.943c0-3.161-2.484-5.595-6.203-5.595h-8.99v17.564z"
              fill="#050608"/>
    </g>
    <defs>
        <clipPath id="clip0">
            <path fill="#fff" d="M0 0h146.25v34.594H0z"/>
        </clipPath>
    </defs>
</svg>
