<svg width="217" height="60" fill="none" xmlns="http://www.w3.org/2000/svg">
    <g clip-path="url(#clip0)" fill-rule="evenodd" clip-rule="evenodd">
        <path d="M74.758 29.381c.884.5 2.151.944 3.802 1.326 1.652.384 3.342.577 5.072.577 1.691 0 3.248-.212 4.668-.633 1.419-.421 2.643-1.041 3.662-1.847a8.735 8.735 0 002.392-2.909c.574-1.132.865-2.411.865-3.831 0-1.73-.513-3.267-1.53-4.612-1.02-1.345-2.72-2.399-5.102-3.17l-4.667-1.497c-1.766-.578-2.978-1.182-3.63-1.815-.653-.633-.979-1.413-.979-2.334 0-1.348.519-2.327 1.557-2.94 1.034-.614 2.496-.924 4.38-.924 2.34 0 4.458.424 6.338 1.27.574.267.999.404 1.267.404.5 0 .747-.349.747-1.04V3.85c0-.46-.094-.826-.284-1.093-.196-.27-.522-.539-.979-.81a8.762 8.762 0 00-1.384-.574c-.578-.193-1.2-.365-1.873-.519A21.817 21.817 0 0086.948.48 17.14 17.14 0 0084.73.336a14.72 14.72 0 00-4.152.575c-1.305.385-2.448.953-3.427 1.7a8.849 8.849 0 00-2.363 2.709c-.597 1.058-.894 2.275-.894 3.659 0 1.73.548 3.322 1.645 4.785 1.093 1.462 2.849 2.575 5.271 3.342l4.781 1.498c1.616.539 2.723 1.117 3.317 1.73.594.617.89 1.38.89 2.308 0 1.341-.564 2.382-1.7 3.11-1.132.728-2.735 1.093-4.811 1.093a19.27 19.27 0 01-3.92-.401 17.605 17.605 0 01-3.629-1.155 18.33 18.33 0 00-.836-.343 1.735 1.735 0 00-.607-.114c-.499 0-.747.343-.747 1.035v1.67c0 .31.069.617.202.924.134.307.473.614 1.009.92zM22.832 19.18c0 1.113-.104 2.067-.316 2.853a5.26 5.26 0 01-1.123 2.106c-.885.998-1.923 1.7-3.114 2.102-1.191.404-2.324.606-3.4.606-1.5 0-2.651-.394-3.457-1.18-.806-.791-1.211-1.953-1.211-3.49 0-1.648.538-2.918 1.615-3.802 1.074-.885 2.706-1.326 4.896-1.326.999 0 2.027.066 3.084.203 1.055.134 2.064.317 3.026.545v1.384zm-3.776-5.793a24.71 24.71 0 00-3.486-.258c-3.378 0-6.071.856-8.068 2.566-1.998 1.707-2.996 3.966-2.996 6.772 0 2.648.806 4.766 2.422 6.339 1.612 1.573 3.802 2.363 6.57 2.363 3.877 0 7.108-1.518 9.68-4.556a23.9 23.9 0 001.009 1.932 7.527 7.527 0 001.181 1.528c.307.306.633.463.979.463.271 0 .559-.098.865-.287l2.076-1.384c.42-.31.634-.634.634-.982 0-.23-.08-.48-.23-.748a15.13 15.13 0 01-1.066-2.363c-.252-.728-.376-1.71-.376-2.938V11.112c0-3.613-.914-6.312-2.738-8.097C23.684 1.229 20.815.338 16.898.338c-1.808 0-3.518.21-5.134.63-1.612.425-2.996.924-4.145 1.502-.463.228-.77.457-.923.691-.154.229-.232.614-.232 1.15v1.612c0 .692.232 1.04.692 1.04.114 0 .287-.028.519-.087.231-.056.613-.203 1.152-.431a24.862 24.862 0 013.545-1.126 15.505 15.505 0 013.544-.431c2.536 0 4.32.51 5.36 1.528 1.037 1.018 1.556 2.774 1.556 5.27v2.423a44.782 44.782 0 00-3.776-.722zm20.316 15.418c.193.656.42 1.087.692 1.296.27.212.692.317 1.27.317h2.823c.614 0 1.054-.115 1.325-.343.267-.232.48-.676.633-1.328l5.072-21.21 5.128 21.21c.153.652.365 1.096.636 1.328.268.228.708.343 1.325.343h2.82c.578 0 1.002-.105 1.27-.317.27-.21.5-.64.692-1.296l7.95-25.474c.121-.343.193-.614.236-.806.035-.193.055-.363.055-.52 0-.535-.268-.806-.806-.806h-3.055c-.617 0-1.048.108-1.296.317-.251.212-.47.646-.662 1.296l-5.705 22.073-5.19-22.073c-.15-.65-.366-1.084-.633-1.296-.268-.21-.709-.317-1.322-.317h-2.654c-.613 0-1.057.108-1.325.317-.271.212-.48.646-.633 1.296l-5.131 21.786-5.532-21.786c-.192-.65-.412-1.084-.663-1.296-.25-.21-.682-.317-1.299-.317H32.17c-.54 0-.807.27-.807.806 0 .232.095.676.287 1.326l7.723 25.474z"
              fill="#222932"/>
        <path d="M88.286 44.764c-12.155 5.157-25.367 7.651-37.385 7.651-17.814 0-35.064-4.889-49.007-13.007-1.224-.705-2.128.545-1.113 1.462 12.925 11.672 30.012 18.683 48.981 18.683 13.535 0 29.258-4.253 40.1-12.252 1.792-1.329.258-3.314-1.576-2.537z"
              fill="#EB912D"/>
        <path d="M81.442 40.256c-.956.669-.79 1.596.27 1.468 3.494-.421 11.274-1.354 12.662.421 1.387 1.78-1.544 9.097-2.853 12.364-.395.989.457 1.39 1.351.64 5.817-4.867 7.321-15.06 6.13-16.535-1.182-1.462-11.352-2.716-17.56 1.642z"
              fill="#EB912D"/>
        <path d="M130.403 17.127c1.43 0 2.51-.47 3.231-1.403.728-.934 1.09-2.328 1.09-4.178 0-3.702-1.406-5.553-4.217-5.553-1.449 0-2.898.562-4.347 1.678v7.674c.714.614 1.413 1.06 2.092 1.351.683.287 1.4.43 2.151.43zm-5.347 6.47c-.26 0-.391-.132-.391-.393V5.42c0-.26.131-.394.391-.394h.5c.28 0 .428.133.444.394l.108 1.074c.803-.646 1.583-1.12 2.343-1.416a6.466 6.466 0 012.347-.444c1.69 0 3.026.606 4.008 1.818.973 1.217 1.463 2.878 1.463 4.994 0 2.144-.513 3.857-1.545 5.134-1.031 1.273-2.415 1.91-4.165 1.91-1.609 0-3.071-.591-4.399-1.78v6.495c0 .261-.131.392-.395.392h-.709zm17.918-6.47c.663 0 1.381-.134 2.152-.408a12.1 12.1 0 002.33-1.136v-3.277a13.17 13.17 0 00-3.404-.47c-2.445 0-3.669.94-3.669 2.827 0 .806.218 1.416.653 1.837.437.415 1.084.627 1.938.627zm-.208 1.361c-1.205 0-2.162-.343-2.869-1.031-.709-.692-1.061-1.613-1.061-2.765 0-1.276.437-2.281 1.309-3.012.874-.735 2.059-1.104 3.564-1.104 1.168 0 2.418.203 3.747.604v-2.2c0-1.064-.255-1.827-.761-2.295-.506-.46-1.345-.692-2.513-.692-1.192 0-2.464.22-3.825.657-.16.052-.291.078-.395.078-.173 0-.261-.11-.261-.34v-.42c0-.14.026-.249.078-.327a.568.568 0 01.265-.199 11.902 11.902 0 014.373-.81c1.537 0 2.673.324 3.414.97.747.647 1.117 1.622 1.117 2.93v9.274c0 .264-.131.395-.392.395h-.552c-.261 0-.402-.13-.421-.395l-.101-1.126c-1.505 1.207-3.075 1.808-4.716 1.808zm10.607-.289c-.261 0-.394-.131-.394-.395V5.417c0-.26.133-.394.394-.394h.5c.28 0 .428.134.444.394l.134 1.518c.662-.734 1.312-1.25 1.948-1.56.64-.304 1.358-.457 2.16-.457.282 0 .506.01.683.026.261.017.392.16.392.421v.653a.28.28 0 01-.08.195.26.26 0 01-.207.096c-.141 0-.272-.007-.392-.014a7.33 7.33 0 00-.552-.016c-.803 0-1.514.15-2.134.448-.621.296-1.218.776-1.796 1.439v9.638c0 .264-.13.395-.392.395h-.708zm13.202.157c-1.031 0-1.815-.278-2.357-.826-.545-.549-.812-1.345-.812-2.396v-8.8h-2.066c-.264 0-.395-.13-.395-.394v-.261c0-.14.023-.245.078-.313.053-.072.157-.115.317-.135l2.118-.182.186-3.456a.528.528 0 01.114-.301c.062-.061.154-.09.278-.09h.47c.264 0 .391.13.391.39v3.43h3.8c.261 0 .391.135.391.393v.525c0 .264-.13.395-.391.395h-3.8v8.724c0 .712.154 1.217.457 1.515.31.3.816.444 1.534.444.506 0 .953-.043 1.339-.13.189-.034.342-.066.457-.089.114-.03.196-.043.248-.043.192 0 .29.108.29.317v.392c0 .297-.098.483-.29.548-.679.231-1.462.343-2.357.343zm5.815-.156c-.262 0-.395-.13-.395-.394V5.419c0-.26.133-.395.395-.395h.526c.277 0 .427.134.444.395l.104 1.126a10.861 10.861 0 012.699-1.416c.943-.33 1.86-.5 2.748-.5 1.276 0 2.249.34 2.921 1.012.673.672 1.009 1.665 1.009 2.973v9.192c0 .264-.131.394-.391.394h-.706c-.264 0-.398-.13-.398-.394V9.244c0-1.136-.212-1.961-.65-2.477-.44-.512-1.135-.77-2.098-.77-1.746 0-3.446.558-5.108 1.674v10.135c0 .264-.13.394-.392.394h-.708zm23.285-7.544c.016-.245.03-.532.03-.864 0-1.258-.311-2.207-.921-2.857-.611-.643-1.511-.965-2.699-.965-2.758 0-4.217 1.56-4.37 4.686h7.96zm-3.222 7.935c-2.078 0-3.642-.588-4.686-1.766-1.048-1.182-1.574-2.931-1.574-5.252 0-2.2.529-3.907 1.583-5.12 1.058-1.215 2.537-1.822 4.442-1.822 1.59 0 2.807.457 3.656 1.361.843.91 1.27 2.213 1.27 3.904 0 .698-.039 1.223-.108 1.573-.052.26-.203.395-.444.395h-8.877c.016 1.83.418 3.185 1.2 4.057.787.875 2.001 1.309 3.646 1.309a9.858 9.858 0 003.584-.653c.228-.088.385-.13.473-.13.072 0 .131.029.183.087a.342.342 0 01.082.226v.391c0 .281-.102.464-.291.552-1.26.59-2.637.888-4.139.888zm8.381-.392c-.261 0-.395-.131-.395-.395V5.417c0-.26.134-.394.395-.394h.5c.28 0 .427.134.443.394l.134 1.518c.659-.734 1.312-1.25 1.949-1.56.639-.304 1.357-.457 2.16-.457.281 0 .506.01.683.026.26.017.391.16.391.421v.653a.283.283 0 01-.079.195.261.261 0 01-.208.096c-.141 0-.271-.007-.392-.014a7.33 7.33 0 00-.552-.016c-.802 0-1.514.15-2.134.448-.62.296-1.221.776-1.795 1.439v9.638c0 .264-.13.395-.392.395h-.708zm-75.776 29.098c-.261 0-.395-.13-.395-.394V34.516c0-.26.134-.395.395-.395h.526c.277 0 .428.134.444.395l.107 1.126a10.81 10.81 0 012.696-1.416c.943-.33 1.861-.5 2.749-.5 1.276 0 2.248.34 2.921 1.012.672.672 1.009 1.665 1.009 2.973v9.192c0 .264-.132.394-.392.394h-.706c-.264 0-.397-.13-.397-.394V38.34c0-1.136-.213-1.961-.653-2.477-.434-.513-1.133-.77-2.096-.77-1.746 0-3.446.557-5.108 1.674v10.135c0 .264-.13.394-.392.394h-.708zm23.286-7.543c.016-.245.029-.533.029-.865 0-1.257-.31-2.207-.92-2.857-.61-.642-1.512-.965-2.699-.965-2.758 0-4.217 1.56-4.37 4.687h7.96zm-3.221 7.934c-2.08 0-3.643-.587-4.687-1.766-1.048-1.181-1.574-2.93-1.574-5.252 0-2.199.529-3.906 1.583-5.12 1.058-1.214 2.536-1.822 4.442-1.822 1.59 0 2.804.457 3.656 1.362.842.91 1.27 2.212 1.27 3.903 0 .698-.039 1.224-.108 1.573-.052.261-.202.396-.444.396h-8.877c.016 1.83.414 3.185 1.201 4.056.786.875 2 1.31 3.642 1.31 1.26 0 2.454-.216 3.587-.654.229-.087.385-.13.473-.13.072 0 .13.03.183.088a.336.336 0 01.082.225v.392c0 .28-.101.463-.291.551-1.26.591-2.637.888-4.138.888zm12.047-.235c-1.031 0-1.815-.277-2.356-.825-.546-.548-.813-1.345-.813-2.396v-8.8h-2.069c-.261 0-.392-.13-.392-.395v-.26c0-.14.023-.245.078-.313.053-.072.157-.114.314-.134l2.121-.183.186-3.457a.528.528 0 01.114-.3c.062-.062.154-.091.278-.091h.47c.264 0 .391.13.391.391v3.43h3.8c.261 0 .391.134.391.392v.526c0 .264-.13.395-.391.395h-3.8v8.724c0 .712.154 1.218.457 1.515.31.3.816.444 1.538.444a6.02 6.02 0 001.335-.131c.189-.033.342-.066.457-.088.114-.03.196-.042.248-.042.192 0 .29.107.29.316v.392c0 .296-.098.482-.29.548-.679.232-1.462.343-2.357.343zm8.541-.157c-.245 0-.412-.12-.5-.365l-4.165-12.181c-.072-.193-.103-.324-.103-.395 0-.154.104-.236.316-.236h.838c.226 0 .376.115.444.343l3.587 11.107 3.173-11.084c.085-.241.252-.366.496-.366h.966c.245 0 .411.125.496.366l3.147 11.159 3.668-11.181c.068-.23.215-.344.444-.344h.787c.208 0 .313.082.313.236 0 .07-.035.202-.105.395l-4.269 12.18c-.091.245-.254.366-.499.366h-.861c-.245 0-.415-.12-.5-.365l-3.17-11.134-3.142 11.134c-.085.244-.255.365-.496.365h-.865zm21.74-.968c3.018 0 4.53-1.876 4.53-5.63 0-3.737-1.512-5.607-4.53-5.607-3.023 0-4.534 1.87-4.534 5.608 0 3.753 1.511 5.63 4.534 5.63zm0 1.362c-1.92 0-3.415-.614-4.482-1.845-1.067-1.233-1.596-2.947-1.596-5.146 0-2.204.529-3.914 1.596-5.134 1.067-1.224 2.562-1.834 4.482-1.834 1.918 0 3.413.61 4.478 1.834 1.066 1.22 1.595 2.93 1.595 5.134 0 2.199-.529 3.913-1.595 5.146-1.065 1.23-2.56 1.845-4.478 1.845zm9.872-.394c-.261 0-.395-.13-.395-.394V34.515c0-.26.134-.395.395-.395h.499c.278 0 .428.134.444.395l.13 1.517c.663-.734 1.316-1.25 1.952-1.559.64-.304 1.358-.457 2.161-.457.281 0 .506.01.683.026.26.016.392.16.392.421v.653a.283.283 0 01-.08.195.262.262 0 01-.208.095c-.14 0-.271-.007-.392-.013a7.248 7.248 0 00-.552-.017c-.802 0-1.514.151-2.134.448-.62.296-1.217.776-1.796 1.439v9.639c0 .264-.13.394-.391.394h-.708zm9.011 0c-.262 0-.396-.13-.396-.395V28.307c0-.265.134-.395.396-.395h.708c.261 0 .391.13.391.395V39.99l6.287-5.607a.898.898 0 01.656-.265h.943c.205 0 .317.082.317.236 0 .092-.098.222-.291.395l-6.339 5.607 6.862 6.34c.156.136.234.253.234.338 0 .173-.101.261-.313.261h-1.126a.85.85 0 01-.578-.235l-6.652-6.208V46.9c0 .265-.13.395-.391.395h-.708z"
              fill="#222932"/>
    </g>
    <defs>
        <clipPath id="clip0">
            <path fill="#fff" d="M0 0h216.667v60H0z"/>
        </clipPath>
    </defs>
</svg>
