<svg width="1199" height="577" fill="none" xmlns="http://www.w3.org/2000/svg">
    <path fill="url(#paint0_linear)" d="M0 0h1198v577H0z"/>
    <mask id="a" mask-type="alpha" maskUnits="userSpaceOnUse" x="0" y="0" width="1199" height="577">
        <path fill="url(#paint1_linear)" d="M0 0h1199v577H0z"/>
    </mask>
    <g mask="url(#a)" fill-rule="evenodd" clip-rule="evenodd" fill-opacity=".04">
        <path d="M124.91 189.728c-5.29-2.988-5.29-7.833 0-10.821l123.324-69.666c5.289-2.988 13.865-2.988 19.155 0l123.324 69.666c5.29 2.988 5.29 7.833 0 10.821l-123.324 69.666c-5.29 2.988-13.866 2.988-19.155 0L124.91 189.728zm184.987 104.497c-5.29-2.988-5.29-7.832 0-10.82l123.324-69.666c5.289-2.988 13.865-2.988 19.155 0L575.7 283.405c5.29 2.988 5.29 7.832 0 10.82l-123.324 69.666c-5.29 2.988-13.866 2.988-19.155 0l-123.324-69.666zM124.91 387.903c-5.29 2.988-5.29 7.833 0 10.821l123.324 69.666c5.289 2.988 13.865 2.988 19.155 0l123.324-69.666c5.29-2.988 5.29-7.833 0-10.821l-123.324-69.666c-5.29-2.988-13.866-2.988-19.155 0L124.91 387.903z"
              fill="url(#paint2_linear)"/>
        <path d="M308.91-120.272c-5.29-2.988-5.29-7.833 0-10.821l123.324-69.666c5.289-2.988 13.865-2.988 19.155 0l123.324 69.666c5.29 2.988 5.29 7.833 0 10.821L451.389-50.606c-5.29 2.988-13.866 2.988-19.155 0L308.91-120.272zM493.897-15.775c-5.29-2.988-5.29-7.832 0-10.82l123.324-69.666c5.289-2.988 13.865-2.988 19.155 0L759.7-26.595c5.29 2.988 5.29 7.832 0 10.82L636.376 53.891c-5.29 2.989-13.866 2.989-19.155 0L493.897-15.775zM308.91 77.903c-5.29 2.988-5.29 7.832 0 10.82l123.324 69.667c5.289 2.988 13.865 2.988 19.155 0l123.324-69.666c5.29-2.989 5.29-7.833 0-10.821L451.389 8.237c-5.29-2.988-13.866-2.988-19.155 0L308.91 77.903z"
              fill="url(#paint3_linear)"/>
        <path d="M496.91 189.728c-5.29-2.988-5.29-7.833 0-10.821l123.324-69.666c5.289-2.988 13.865-2.988 19.155 0l123.324 69.666c5.29 2.988 5.29 7.833 0 10.821l-123.324 69.666c-5.29 2.988-13.866 2.988-19.155 0L496.91 189.728zm184.987 104.497c-5.29-2.988-5.29-7.832 0-10.82l123.324-69.666c5.289-2.988 13.865-2.988 19.155 0L947.7 283.405c5.29 2.988 5.29 7.832 0 10.82l-123.324 69.666c-5.29 2.988-13.866 2.988-19.155 0l-123.324-69.666zM496.91 387.903c-5.29 2.988-5.29 7.833 0 10.821l123.324 69.666c5.289 2.988 13.865 2.988 19.155 0l123.324-69.666c5.29-2.988 5.29-7.833 0-10.821l-123.324-69.666c-5.29-2.988-13.866-2.988-19.155 0L496.91 387.903z"
              fill="url(#paint4_linear)"/>
    </g>
    <defs>
        <linearGradient id="paint0_linear" x1="0" y1="0" x2="1249.31" y2="150.187" gradientUnits="userSpaceOnUse">
            <stop stop-color="#5E308C"/>
            <stop offset="1" stop-color="#74308C"/>
        </linearGradient>
        <linearGradient id="paint1_linear" x1="0" y1="0" x2="1250.32" y2="150.434" gradientUnits="userSpaceOnUse">
            <stop stop-color="#5E308C"/>
            <stop offset="1" stop-color="#74308C"/>
        </linearGradient>
        <linearGradient id="paint2_linear" x1="350.305" y1="107" x2="350.305" y2="470.631" gradientUnits="userSpaceOnUse">
            <stop stop-color="#fff"/>
            <stop offset="1" stop-color="#fff" stop-opacity="0"/>
        </linearGradient>
        <linearGradient id="paint3_linear" x1="534.305" y1="-203" x2="534.305" y2="160.631" gradientUnits="userSpaceOnUse">
            <stop stop-color="#fff"/>
            <stop offset="1" stop-color="#fff" stop-opacity="0"/>
        </linearGradient>
        <linearGradient id="paint4_linear" x1="722.305" y1="107" x2="722.305" y2="470.631" gradientUnits="userSpaceOnUse">
            <stop stop-color="#fff"/>
            <stop offset="1" stop-color="#fff" stop-opacity="0"/>
        </linearGradient>
    </defs>
</svg>
