<svg width="79" height="28" fill="none" xmlns="http://www.w3.org/2000/svg">
    <g clip-path="url(#clip0)">
        <path d="M35.975 18.404V7.624h4.25c3.374 0 5.719 2.147 5.719 5.39 0 3.242-2.345 5.39-5.719 5.39h-4.25zm7.624-5.368c0-1.906-1.16-3.396-3.374-3.396h-1.95v6.748h1.95c2.126 0 3.374-1.534 3.374-3.352zm3.725-4.513c0-.68.548-1.227 1.227-1.227.68 0 1.227.547 1.227 1.227 0 .679-.548 1.226-1.227 1.226-.68 0-1.227-.547-1.227-1.226zm.22 9.88v-7.8h2.059v7.8h-2.06zm4.512.001V12.4h-1.292v-1.796h1.292v-.416c0-1.665 1.074-2.717 2.63-2.717.744 0 1.533.197 2.037.723l-.767 1.205a1.138 1.138 0 00-.854-.329c-.57 0-.964.373-.964 1.096v.416h1.577v1.797h-1.577v6.025h-2.082zm5.302 0V12.4h-1.292v-1.796h1.292v-.416c0-1.665 1.074-2.717 2.63-2.717.744 0 1.533.197 2.037.723l-.767 1.205a1.136 1.136 0 00-.854-.329c-.57 0-.964.373-.964 1.096v.416h1.577v1.797H59.44v6.025h-2.082zm4.338-3.9c0-2.388 1.731-4.097 4.141-4.097 1.6 0 2.564.701 3.09 1.402l-1.337 1.27c-.373-.547-.986-.876-1.643-.832-1.249 0-2.125.899-2.125 2.257s.876 2.279 2.125 2.279a1.948 1.948 0 001.643-.833l1.337 1.249c-.526.723-1.49 1.424-3.09 1.424-2.41-.022-4.14-1.709-4.14-4.119zm8.063 0c0-2.213 1.555-4.097 4.119-4.097 2.563 0 4.14 1.884 4.14 4.097 0 2.213-1.555 4.097-4.14 4.097s-4.119-1.884-4.119-4.097zm6.135 0c0-1.205-.723-2.257-1.994-2.257-1.27 0-1.994 1.052-1.994 2.257s.701 2.279 1.994 2.279c1.292 0 1.994-1.052 1.994-2.279z"
              fill="#fff"/>
        <path d="M28 25.196A2.81 2.81 0 0125.196 28H2.826C1.271 28 0 26.751 0 25.196V2.804C0 1.271 1.27 0 2.826 0h22.37c1.555 0 2.826 1.27 2.826 2.804v22.392H28z" fill="#3D2C53"/>
        <path d="M18.689 4.754a12.584 12.584 0 00-4.842-.898 12.443 12.443 0 00-4.952.942v10.473l2.739 1.6-6.704 3.877h-.044v3.418h2.169V22.04l11.634-6.77V4.754zm-2.17 9.268l-2.716 1.577-2.739-1.577V6.157l.175-.044a12.15 12.15 0 015.105-.022l.175.044v7.887zm4.448 10.122h2.17V21.01l-5.895-3.418-2.169 1.249 5.894 3.418v1.884z"
              fill="#fff"/>
    </g>
    <defs>
        <clipPath id="clip0">
            <path fill="#fff" d="M0 0h78.019v28H0z"/>
        </clipPath>
    </defs>
</svg>
