<svg width="304" height="242" fill="none" xmlns="http://www.w3.org/2000/svg">
    <path fill-rule="evenodd" clip-rule="evenodd"
          d="M4.185 56.332c-5.29-2.988-5.29-7.832 0-10.82L80.336 2.494c5.29-2.988 13.866-2.988 19.155 0l76.151 43.018c5.29 2.988 5.29 7.832 0 10.82L99.492 99.35c-5.29 2.988-13.866 2.988-19.156 0L4.186 56.332zm123.74 69.9c-5.29-2.988-5.29-7.832 0-10.82l76.151-43.018c5.289-2.988 13.865-2.988 19.155 0l76.151 43.018c5.289 2.988 5.289 7.832 0 10.82l-76.151 43.018c-5.29 2.988-13.866 2.988-19.155 0l-76.151-43.018zM4.185 185.311c-5.29 2.988-5.29 7.833 0 10.821l76.151 43.018c5.29 2.988 13.866 2.988 19.155 0l76.151-43.018c5.29-2.988 5.29-7.833 0-10.821l-76.15-43.017c-5.29-2.988-13.866-2.988-19.156 0l-76.15 43.017z"
          fill="url(#paint0_linear)" fill-opacity=".14"/>
    <defs>
        <linearGradient id="paint0_linear" x1="151.784" y1=".253" x2="151.784" y2="241.391" gradientUnits="userSpaceOnUse">
            <stop stop-color="#fff" stop-opacity=".3"/>
            <stop offset="1" stop-color="#fff" stop-opacity="0"/>
        </linearGradient>
    </defs>
</svg>
