<svg width="24" height="26" fill="none" xmlns="http://www.w3.org/2000/svg">
    <g clip-path="url(#clip0)">
        <path d="M24 13.283c0-.833-.067-1.67-.211-2.488H12.24v4.714h6.613a5.667 5.667 0 01-2.448 3.72v3.06h3.946C22.669 20.156 24 17.007 24 13.283z" fill="#4285F4"/>
        <path d="M12.24 25.245c3.303 0 6.088-1.085 8.116-2.956l-3.945-3.06c-1.098.748-2.515 1.17-4.166 1.17-3.194 0-5.902-2.154-6.873-5.051H1.3V18.5a12.245 12.245 0 0010.94 6.744z"
              fill="#34A853"/>
        <path d="M5.367 15.347a7.333 7.333 0 010-4.688V7.506H1.3a12.253 12.253 0 000 10.994l4.067-3.153z" fill="#FBBC04"/>
        <path d="M12.24 5.604a6.653 6.653 0 014.697 1.835l3.496-3.495A11.767 11.767 0 0012.24.759 12.24 12.24 0 001.3 7.507l4.066 3.153c.967-2.902 3.68-5.056 6.874-5.056z"
              fill="#EA4335"/>
    </g>
    <defs>
        <clipPath id="clip0">
            <path fill="#fff" transform="translate(0 .758)" d="M0 0h24v24.486H0z"/>
        </clipPath>
    </defs>
</svg>
