<svg width="48" height="48" fill="none" xmlns="http://www.w3.org/2000/svg">
    <path fill-rule="evenodd" clip-rule="evenodd"
          d="M20.606 24l-6.788-6.788 3.394-3.394L24 20.606l6.788-6.788 3.395 3.394L27.394 24l6.788 6.788-3.394 3.394L24 27.394l-6.788 6.788-3.394-3.394L20.606 24zM7.03 7.03c9.333-9.334 24.607-9.334 33.94 0 9.335 9.333 9.335 24.607 0 33.94-9.333 9.334-24.607 9.334-33.94 0-9.334-9.333-9.334-24.607 0-33.94zm3.394 3.394c-7.467 7.467-7.467 19.685 0 27.152 7.467 7.468 19.686 7.468 27.153 0 7.467-7.467 7.467-19.685 0-27.152-7.467-7.468-19.686-7.468-27.153 0z"
          fill="#EB5757"/>
</svg>
