<svg width="64" height="64" fill="none" xmlns="http://www.w3.org/2000/svg">
    <path fill-rule="evenodd" clip-rule="evenodd"
          d="M11.854 17.044a6 6 0 010-8.486l6.303-6.303a6 6 0 018.485 0l6.303 6.303a6 6 0 010 8.486l-6.303 6.303a6 6 0 01-8.485 0l-6.303-6.303zm19.2 19.199a6 6 0 010-8.485l6.303-6.303a6 6 0 018.486 0l6.302 6.303a6 6 0 010 8.485l-6.303 6.303a6 6 0 01-8.485 0l-6.303-6.303zm-19.2 10.714a6 6 0 000 8.485l6.303 6.303a6 6 0 008.485 0l6.303-6.303a6 6 0 000-8.485l-6.303-6.303a6 6 0 00-8.485 0l-6.303 6.303z"
          fill="#5E308C"/>
</svg>
