<svg width="32" height="32" fill="none" xmlns="http://www.w3.org/2000/svg">
    <path fill-rule="evenodd" clip-rule="evenodd"
          d="M5.927 8.521a3 3 0 010-4.242l3.151-3.152a3 3 0 014.243 0l3.152 3.152a3 3 0 010 4.242l-3.152 3.152a3 3 0 01-4.243 0L5.927 8.52zm9.6 9.6a3 3 0 010-4.242l3.152-3.152a3 3 0 014.242 0l3.152 3.152a3 3 0 010 4.242l-3.152 3.152a3 3 0 01-4.242 0l-3.152-3.152zm-9.6 5.358a3 3 0 000 4.242l3.151 3.152a3 3 0 004.243 0l3.152-3.152a3 3 0 000-4.242l-3.152-3.152a3 3 0 00-4.243 0L5.927 23.48z"
          fill="#5E308C"/>
</svg>
