<svg width="24" height="20" fill="none" xmlns="http://www.w3.org/2000/svg">
    <g clip-path="url(#clip0)">
        <path d="M7.548 19.751c9.056 0 14.01-7.503 14.01-14.01 0-.213 0-.425-.015-.636A10.02 10.02 0 0024 2.555a9.815 9.815 0 01-2.828.775A4.94 4.94 0 0023.337.607a9.865 9.865 0 01-3.127 1.195 4.929 4.929 0 00-8.391 4.491A13.98 13.98 0 011.67 1.148a4.928 4.928 0 001.525 6.573A4.88 4.88 0 01.96 7.105v.063a4.926 4.926 0 003.95 4.826 4.914 4.914 0 01-2.223.085 4.93 4.93 0 004.6 3.42A9.88 9.88 0 010 17.538a13.941 13.941 0 007.548 2.208"
              fill="#1DA1F2"/>
    </g>
    <defs>
        <clipPath id="clip0">
            <path fill="#fff" transform="translate(0 .25)" d="M0 0h24v19.501H0z"/>
        </clipPath>
    </defs>
</svg>
